<?xml version="1.0" encoding="UTF-8"?>
<svg id="Capa_1" xmlns="http://www.w3.org/2000/svg" version="1.1" xmlns:xlink="http://www.w3.org/1999/xlink" viewBox="0 0 45.3 185.9">
  <!-- Generator: Adobe Illustrator 29.6.0, SVG Export Plug-In . SVG Version: 2.1.1 Build 207)  -->
  <defs>
    <style>
      .st0 {
        fill: url(#Degradado_sin_nombre2);
      }

      .st0, .st1 {
        stroke-width: .9px;
      }

      .st0, .st1, .st2 {
        stroke: #1d1d1b;
        stroke-miterlimit: 10;
      }

      .st1 {
        fill: url(#Degradado_sin_nombre1);
      }

      .st2 {
        fill: url(#Degradado_sin_nombre);
        stroke-width: 1.5px;
      }
    </style>
    <linearGradient id="Degradado_sin_nombre" data-name="Degradado sin nombre" x1="1.3" y1="91.6" x2="40.2" y2="91.6" gradientUnits="userSpaceOnUse">
      <stop offset="0" stop-color="#475f68"/>
      <stop offset=".5" stop-color="#374f56"/>
      <stop offset="1" stop-color="#2a4147"/>
      <stop offset="1" stop-color="#151f21"/>
    </linearGradient>
    <linearGradient id="Degradado_sin_nombre1" data-name="Degradado sin nombre" x1="21.1" y1="182.9" x2="22.1" y2="182.9" xlink:href="#Degradado_sin_nombre"/>
    <linearGradient id="Degradado_sin_nombre2" data-name="Degradado sin nombre" x1="20.3" y1="183.8" x2="23.1" y2="183.8" xlink:href="#Degradado_sin_nombre"/>
  </defs>
  <path class="st2" d="M39.7,97.1c-.9,1.9,0,8.9-14.5,14.8-1.8,1.5-2.2,1.8-2.2,1.8l.7,6.7s.1,7.3,2.6,14.8c.7,2.3,3.3,11.5,2,16.8,0,2,2.1,9.5-2.5,17.6v3.7l-4.3,8.8-4.3-8.8v-3.5c0-.2-.2-.3-.4-.5-.8-.4-2.4-7.3-2.2-10.6,0-1.4-1.8-9.6.1-19.2,0,0,1.2-7.7,2.9-15.1-.2-1.1,1.8-7.8.4-11.1-.9-1.1-5.7-1-11.4-8.1-1.5-2.1-6.4-7-5.2-15,.7-2.6,1.7-9.6,5.7-15.5,1.3-4.5,3.3-7.4,6-24.6,0-1.8,6.2-24.8,4.6-47.7,0,0,1.9-2.1,2.7.2-.2.9,2.6,32.3,7,48.2.2,2.4,2.9,17.1,8,27.6,1.1,2,6.2,14.2,4.2,18.8Z"/>
  <g>
    <path class="st1" d="M22.1,182.5l-.6,1-.5-.9c.2-.1.4-.2.7-.2s.3,0,.4,0Z"/>
    <path class="st0" d="M23.1,183.8c0,.8-.6,1.4-1.4,1.4s-1.4-.6-1.4-1.4.3-1,.8-1.2c.2-.1.4-.2.7-.2s.3,0,.4,0c.6.2,1,.7,1,1.4Z"/>
  </g>
</svg>