<?xml version="1.0" encoding="UTF-8"?><svg id="Capa_1" xmlns="http://www.w3.org/2000/svg" viewBox="0 0 146.67 198.67"><defs><style>.cls-1{fill:#cdd3d3;stroke:#1d1d1d;stroke-miterlimit:10;stroke-width:1.5px;}.cls-2{fill:#e8e8e8;}</style></defs><path class="cls-1" d="M6.19,34.5L48.42,9.29s6.59-5.6,10.85,0c4.26,5.6,64.7,77.64,79.04,139.27,1.55,4.8,4.26,8,0,17.21-3.1,2.8-41.07,26.01-41.07,26.01,0,0-5.04,3.2-13.95,0-3.49-4.8-74.77-145.67-74.77-145.67l-2.32-4.8v-6.8Z"/><path class="cls-2" d="M15.38,44.77l36.11-19.58s5.63-4.35,9.28,0c3.64,4.35,55.32,60.3,67.58,108.16,1.33,3.73,3.64,6.22,0,13.36-2.65,2.18-35.11,20.2-35.11,20.2,0,0-4.31,2.49-11.93,0-2.98-3.73-63.93-113.13-63.93-113.13l-1.99-3.73v-5.28Z"/></svg>