<?xml version="1.0" encoding="UTF-8"?>
<svg id="Capa_1" xmlns="http://www.w3.org/2000/svg" viewBox="0 0 1280 1157.46">
  <defs>
    <style>.cls-1{font-family:Calibri, Calibri;font-size:45px;}.cls-2{fill:#f2f2f2;}</style>
  </defs>
  <circle class="cls-2" cx="640" cy="578.73" r="425"/>
  <g id="rotatableDias">
    <text class="cls-1" transform="translate(357.74 830.19) rotate(-128.24)" dy="31.5" dx="5"><tspan x="0" y="0">21</tspan></text>
    <text class="cls-1" transform="translate(280.68 697.05) rotate(-104.97)" dy="33" dx="3"><tspan x="0" y="0">23</tspan></text>
    <text class="cls-1" transform="translate(262.59 544.25) rotate(-81.82)" dy="33" dx="3.2"><tspan x="0" y="0">25</tspan></text>
    <text class="cls-1" transform="translate(276.75 468.27) rotate(-70.16)" dy="33" dx="-0.5"><tspan x="0" y="0">26</tspan></text>
    <text class="cls-1" transform="translate(349.15 332.55) rotate(-46.89)" dy="33.5" dx="-2"><tspan x="0" y="0">28</tspan></text>
    <text class="cls-1" transform="translate(404.24 278.36) rotate(-35.35)" dy="35" dx="-0.5"><tspan x="0" y="0">29</tspan></text>
    <text class="cls-1" transform="translate(541.12 208.14) rotate(-12.04)" dy="35" dx="0"><tspan x="0" y="0">31</tspan></text>
    <text class="cls-1" transform="translate(617.34 195.19) rotate(-.42)" dy="35"><tspan x="0" y="0">01</tspan></text>
    <text class="cls-1" transform="translate(769.8 215.79) rotate(22.76)" dy="35"><tspan x="0" y="0">03</tspan></text>
    <text class="cls-1" transform="translate(901.68 294.98) rotate(45.99)" dy="38" dx="2"><tspan x="0" y="0">05</tspan></text>
    <text class="cls-1" transform="translate(953.02 352.73) rotate(57.54)" dy="38" dx="2"><tspan x="0" y="0">06</tspan></text>
    <text class="cls-1" transform="translate(991.78 419.66) rotate(69.18)" dy="35" dx="5"><tspan x="0" y="0">07</tspan></text>
    <text class="cls-1" transform="translate(1016.19 492.96) rotate(80.87)" dy="35" dx="5"><tspan x="0" y="0">08</tspan></text>
    <text class="cls-1" transform="translate(839.8 248.68) rotate(34.43)" dy="35"><tspan x="0" y="0">04</tspan></text>
    <text class="cls-1" transform="translate(694.66 197.79) rotate(11.08)" dy="35"><tspan x="0" y="0">02</tspan></text>
    <text class="cls-1" transform="translate(469.12 236.27) rotate(-23.74)" dy="35"><tspan x="0" y="0">30</tspan></text>
    <text class="cls-1" transform="translate(306.01 396.73) rotate(-58.48)" dy="35"><tspan x="0" y="0">27</tspan></text>
    <text class="cls-1" transform="translate(263.87 621.61) rotate(-93.31)" dy="33"><tspan x="0" y="0">24</tspan></text>
    <text class="cls-1" transform="translate(312.44 767.52) rotate(-116.65)" dy="32" dx="1.7"><tspan x="0" y="0">22</tspan></text>
    <text class="cls-1" transform="translate(414.64 882.49) rotate(-139.78)" dy="32" dx="5"><tspan x="0" y="0">20</tspan></text>
    <text class="cls-1" transform="translate(480.93 922.32) rotate(-151.39)" dy="32" dx="5"><tspan x="0" y="0">19</tspan></text>
    <text class="cls-1" transform="translate(553.87 947.88) rotate(-163.09)" dy="32.5" dx="3"><tspan x="0" y="0">18</tspan></text>
    <text class="cls-1" transform="translate(630.5 958.19) rotate(-174.71)" dy="32.5" dx="5"><tspan x="0" y="0">17</tspan></text>
    <text class="cls-1" transform="translate(707.69 953.03) rotate(173.79)" dy="33" dx="5"><tspan x="0" y="0">16</tspan></text>
    <text class="cls-1" transform="translate(782.14 932.39) rotate(162.11)" dy="33" dx="5"><tspan x="0" y="0">15</tspan></text>
    <text class="cls-1" transform="translate(850.95 897.07) rotate(150.44)" dy="33" dx="5"><tspan x="0" y="0">14</tspan></text>
    <text class="cls-1" transform="translate(911.22 848.69) rotate(138.88)" dy="35" dx="5"><tspan x="0" y="0">13</tspan></text>
    <text class="cls-1" transform="translate(960.58 789.23) rotate(127.33)" dy="35" dx="5"><tspan x="0" y="0">12</tspan></text>
    <text class="cls-1" transform="translate(1018.8 646.89) rotate(104)" dy="35" dx="5"><tspan x="0" y="0">10</tspan></text>
    <text class="cls-1" transform="translate(997 721) rotate(115.69)" dy="35" dx="5"><tspan x="0" y="0">11</tspan></text>
    <text class="cls-1" transform="translate(1025.25 569.79) rotate(92.43)" dy="35" dx="5"><tspan x="0" y="0">09</tspan></text>
  </g>
</svg>







