<?xml version="1.0" encoding="UTF-8"?><svg id="Capa_1" xmlns="http://www.w3.org/2000/svg" viewBox="0 0 912 916"><defs><style>.cls-1{letter-spacing:-.15em;}.cls-2,.cls-3,.cls-4,.cls-5,.cls-6,.cls-7,.cls-8,.cls-9,.cls-10,.cls-11,.cls-12{stroke-miterlimit:10;}.cls-2,.cls-13,.cls-5{fill:#f2f2f2;}.cls-2,.cls-8,.cls-10,.cls-12{stroke-width:1.5px;}.cls-2,.cls-10{stroke:#1d1d1b;}.cls-3,.cls-7,.cls-14,.cls-11{fill:#3f5863;}.cls-3,.cls-7,.cls-11{stroke:#3f5863;stroke-width:2px;}.cls-15{opacity:.67;}.cls-16{letter-spacing:0em;}.cls-17{fill:#1fa7a3;}.cls-17,.cls-18{opacity:.3;}.cls-4{fill:none;}.cls-4,.cls-5{stroke:blue;}.cls-18{fill:#d66;}.cls-19,.cls-6,.cls-8,.cls-9{fill:#283740;}.cls-20{letter-spacing:0em;}.cls-21{letter-spacing:0em;}.cls-22{fill:#efede4;}.cls-6{font-size:14px;}.cls-6,.cls-8,.cls-9{font-family:MSReferenceSansSerif, 'MS Reference Sans Serif';opacity:.8;stroke:#283740;}.cls-23{letter-spacing:-.01em;}.cls-7,.cls-11{font-family:SourceSerifVariable-Roman, 'Source Serif Variable';font-size:90px;font-variation-settings:'wght' 389;}.cls-24{letter-spacing:-.02em;}.cls-8{font-size:28.08px;}.cls-9{font-size:39.06px;stroke-width:1.75px;}.cls-10{fill:#e5e5e5;}.cls-11{letter-spacing:-.04em;}.cls-25{opacity:.5;}.cls-12{fill:#d5dbdb;stroke:#1d1d1d;}</style></defs><path class="cls-13" d="M456,6.09C207.68,6.09,6.38,208.41,6.38,457.99s201.3,451.92,449.62,451.92,449.62-202.33,449.62-451.92S704.32,6.09,456,6.09ZM588.14,665.21c-4.21-2.39-9.12-3.8-14.56-4.17-1.39-4.48-3.22-7.9-3.92-9.12-5.54-10.91-17.33-16.45-18.67-17.05l-.22-.1-.22-.08c-.39-.16-.79-.33-1.18-.49-.31-.14-.62-.27-.93-.39-1.56-.68-3.24-1.34-4.99-1.68-.28-.05-.6-.12-.95-.19l-.98-.37h-.71c-3.76-.84-7.54-1.26-11.25-1.26-10.06,0-17.79,2.99-22.74,5.7-1.64-.7-3.47-1.37-5.5-2.01-2.73-1.05-5.63-1.81-8.65-2.26l-.66-.22h-1.08c-1.79-.21-3.64-.32-5.51-.32-8.47,0-17.5,2.08-25.52,5.86-3.75-1.63-6.92-2.46-8.28-2.77-.83-.24-1.66-.38-2.5-.43-6.1-.88-11.88-1.32-17.21-1.32-10.52,0-16.79,1.7-19.6,2.71-7.74,1.59-13.64,4.81-17.86,7.96-.56-.35-1.14-.68-1.74-1l-.13-.09-.3-.15c-7.06-4.08-12.84-5.68-20.51-5.68-2.58,0-5.28.17-8.41.35-1.95.12-4.12.25-6.56.36l-.87.04-.85.19c-5.78,1.28-10.77,3.37-15.06,5.97,19.18-47.91,66.08-81.85,120.76-81.85,62.73,0,115.23,44.67,127.36,103.86ZM439.4,295.15v-50.21h49.87v50.21h-49.87ZM500.65,60.09l-6.61,72.97c.4.06.8.12,1.2.19-24.76-3.81-53.05-2.04-69.66-.33.1-.02.21-.03.31-.04l-7.45-72.86c22,.02,60.6.06,82.21.07ZM171.39,491.87c0,.7-.58,1.27-1.28,1.27h-78.38c-.71,0-1.28-.57-1.28-1.27v-48.77c0-.7.57-1.28,1.28-1.28h78.38c.7,0,1.28.58,1.28,1.28v48.77ZM247.33,200.9s-34.08,33.49-39.02,38.85c-5.44,6.21-10.21-.6-10.21-.6,0,0-39.38-32.64-40.15-33.32-1.62-1.36-.59-3.91,0-5.02,6.72-13.28,48.6-47.21,49.75-48.36,2.68-2.49,4.91.32,4.91.32,0,0,31.72,39.57,34.34,42.06,3.38,3.32.38,6.07.38,6.07ZM299.37,529.76v-41.16c0-2.26,1.83-4.09,4.1-4.09h73.12c2.27,0,4.1,1.83,4.1,4.09v41.16c0,2.26-1.83,4.1-4.1,4.1h-73.12c-2.27,0-4.1-1.84-4.1-4.1ZM572.39,776.57h-223.5c-14.59-19.36-24.24-42.66-27.11-68.03.01-.02.03-.04.04-.07.03.27.06.54.09.8h8.3c-2.14-6-3.3-12.74-3.55-20.44-.02-.67-.01-1.34,0-2,0-.67-.02-1.34,0-2,.02-.66-.02-1.33-.03-2v-.08c0-.31,0-.62.03-.92,0,0,2.85-27.79,30.68-33.96,15.42-.68,19.99-2.25,30.31,3.8.02.01.03.02.05.03.65.33,1.3.7,1.96,1.13,1.37.88,3.74,3.72,5,5,0,0,6.53-9.48,20.52-12.05h.01c.4-.18,10.33-4.46,33.24-1.05.18-.03.42,0,.71.11,0,0,5.86,1.16,11.47,4.68.98-.79,2-1.73,3.01-2.23,7.69-3.76,17.65-6.06,26.76-4.91h0s.02-.01.05,0c.02,0,.05.01.08.02,2.63.33,5.18.96,7.59,1.92,3.4,1.05,7.1,2.49,9.29,4.24,0,0,.02-.02.07-.05,1.02-.88,13.16-10.72,32.27-6.08.03,0,.05.01.08.02.68.14,1.33.28,1.85.38.78.15,1.84.57,2.99,1.07.76.31,1.55.66,2.34.97,0,0,9.93,4.46,13.97,12.69,0,0,4.49,7.48,4.45,15.05,1.74-.29,3.41-.77,5.25-.78,15.39-.08,23.4,9.95,23,25-.1,3.83-.96,8.13-2.35,12.44h8.49c-3.11,25.08-12.85,48.12-27.41,67.3ZM719.24,243.34c-3.27,3.44-6.06.48-6.06.48,0,0-34.02-33.55-39.46-38.41-6.3-5.34.44-10.22.44-10.22,0,0,32.01-39.89,32.68-40.66,1.34-1.64,3.91-.66,5.02-.08,13.38,6.51,47.97,47.84,49.14,48.97,2.53,2.65-.24,4.92-.24,4.92,0,0-39.07,32.35-41.52,35ZM836.11,493.15h-78.38c-.71,0-1.28-.57-1.28-1.27v-48.77c0-.7.57-1.28,1.28-1.28h78.38c.7,0,1.28.58,1.28,1.28v48.77c0,.7-.58,1.27-1.28,1.27Z"/><path class="cls-12" d="M264.27,196.88s-46.81-58.1-49.7-60.99c-1.53-1.54-4.43-1.54-6.64-.68-33.53,24.17-61.28,60.76-64.94,64.93-2.97,5.53,1.54,7.83,1.54,7.83,0,0,56.08,47.58,59.12,49.96,1.51.68,6.15,1.02,7.34-1.02,19.92-27.41,50.9-50.56,53.28-53.11,2.38-3.91,0-6.92,0-6.92ZM247.33,200.89s-34.08,33.49-39.02,38.85c-5.44,6.21-10.21-.6-10.21-.6,0,0-39.38-32.64-40.15-33.32-1.62-1.36-.59-3.91,0-5.02,6.72-13.28,48.6-47.21,49.75-48.36,2.68-2.49,4.91.32,4.91.32,0,0,31.72,39.57,34.34,42.06,3.38,3.32.38,6.07.38,6.07Z"/><path class="cls-12" d="M778.24,203.39c-24.7-33.15-61.73-60.32-65.95-63.91-5.58-2.89-7.81,1.66-7.81,1.66,0,0-46.69,56.82-49.02,59.9-.66,1.52-.92,6.17,1.14,7.32,27.71,19.49,51.34,50.1,53.94,52.44,3.95,2.32,6.91-.11,6.91-.11,0,0,57.36-47.72,60.21-50.65,1.51-1.56,1.46-4.45.58-6.65ZM760.76,208.34s-39.07,32.35-41.52,35c-3.27,3.44-6.06.48-6.06.48,0,0-34.02-33.55-39.46-38.41-6.3-5.34.44-10.22.44-10.22,0,0,32.01-39.89,32.68-40.66,1.34-1.64,3.91-.66,5.02-.08,13.38,6.51,47.97,47.84,49.14,48.97,2.53,2.65-.24,4.92-.24,4.92Z"/><path class="cls-10" d="M519.59,61.98s-5.53,65.61-6.04,70.34c-.04,1.62-.37,2.61-.84,3.18-.05.07-.11.14-.18.2-1.14,1.11-2.81.19-2.81.19,0,0-.95-.2-2.59-.51-.47-.09-1-.19-1.58-.28-.63-.11-1.33-.23-2.08-.36-.82-.18-1.64-.35-2.48-.51-.83-.16-1.67-.32-2.51-.46-1.07-.19-2.15-.37-3.24-.53-.4-.07-.8-.13-1.2-.19l6.61-72.97c9.16.01,15.26.02,15.75.02.54-.11.99-.12,1.35-.08.25.03.46.09.64.16.19.08.35.18.48.28.13.1.23.22.32.34.4.55.4,1.18.4,1.18Z"/><path class="cls-10" d="M425.89,132.87c-.73.08-1.44.15-2.12.23-.07.01-.14.02-.2.02-.45.05-.9.1-1.33.15-.28.03-.55.06-.82.09-.45.05-.89.1-1.31.16h-.03c-.55.06-1.07.13-1.57.19-.29.04-.58.07-.85.11-.81.1-1.55.2-2.22.29-.33.04-.63.09-.92.13-1.19.17-2.07.3-2.62.39-.06.01-.12.02-.18.03-.21.04-.36.07-.42.08-.24-.01-.46-.02-.68-.04-.64-.07-1.16-.19-1.6-.36-.43-.17-.77-.39-1.04-.62-1.24-1.1-.9-2.68-.9-2.68l-6.89-69.06c-.1-.97.11-1.49.41-1.77.09-.08.19-.14.29-.18.04-.02.07-.03.1-.04.44-.15.9,0,.9,0,0,0,1.64,0,4.53.01,2.89.01,7.03.01,12.02.01l7.45,72.86Z"/><path class="cls-12" d="M531.38,49.51c-3.83-.77-74.04-15.58-137.87-2.55-2.3.76-6.9.76-9.7,4.34l8.17,90.12s1.53,8.43,7.4,8.43c5.11-.77,62.3-14.81,122.3,0,3.06,1.28,5.36-1.02,6.64-4.85.76-5.36,9.44-92.43,9.44-92.43,0,0-1.27-2.3-6.38-3.06ZM513.55,132.32c-.04,1.62-.37,2.61-.84,3.18-.06.08-.12.15-.18.2-1.14,1.11-2.81.19-2.81.19,0,0-.95-.2-2.59-.51-.47-.08-1-.18-1.58-.28-.63-.11-1.33-.23-2.08-.36-.82-.18-1.64-.35-2.48-.51-.83-.16-1.66-.32-2.51-.46-1.07-.19-2.15-.37-3.24-.53-25.69-3.95-55.17-1.9-71.47-.14-.07.01-.14.02-.2.02-.46.05-.9.1-1.33.15-.28.03-.55.06-.82.09-.45.06-.89.11-1.31.16h-.03c-.55.07-1.07.13-1.57.19-.29.04-.58.07-.85.11-.81.1-1.55.2-2.22.29-.32.05-.63.09-.92.13-1.19.17-2.07.3-2.62.39-.06.01-.12.02-.18.03-.21.04-.36.07-.42.08-.24-.01-.46-.02-.68-.04-.64-.06-1.16-.19-1.6-.36-.43-.17-.77-.38-1.04-.62-1.24-1.1-.9-2.68-.9-2.68l-6.89-69.06c-.1-.97.11-1.49.41-1.77.09-.08.19-.14.29-.18.04-.02.07-.03.1-.04.45-.14.9.01.9.01h4.53c2.89.01,7.03.01,12.02.01,22,.02,60.6.06,82.21.07,9.16.01,15.26.02,15.75.02.54-.11.99-.12,1.35-.08.25.03.46.09.64.16.19.08.35.18.48.28.13.1.23.22.32.34.4.55.4,1.18.4,1.18,0,0-5.53,65.61-6.04,70.34Z"/><path class="cls-10" d="M846.96,432.89h-99.32c-.21,0-.41.06-.58.17-18.75-141.31-138.72-250.31-283.92-250.31s-265.07,108.91-283.89,250.14h-97.61c-.63,0-1.15.51-1.15,1.15v67.66c0,.63.52,1.15,1.15,1.15h96.67c5.22,49.23,22.69,94.76,49.27,133.43,1.38,2.01,4.1,2.58,6.19,1.33,17.76-10.68,35.39-22.07,51.85-34.71,1.93-1.48,2.37-4.23,1-6.25-24.08-35.44-38.2-78.47-38.2-124.87,0-109.62,78.74-200.45,181.61-216.7v46.5c0,1.06.86,1.91,1.92,1.91h63.57c1.06,0,1.92-.85,1.92-1.91v-46.31c102.29,16.76,180.43,107.31,180.43,216.51,0,47.68-14.9,91.81-40.21,127.8-1.48,2.1-.96,5,1.15,6.45,17.06,11.76,33.28,25.2,51.11,35.39,2.07,1.19,4.72.64,6.1-1.3,28.09-39.49,46.56-86.4,51.95-137.27h98.99c.63,0,1.15-.52,1.15-1.15v-67.66c0-.64-.52-1.15-1.15-1.15ZM171.39,491.87c0,.7-.58,1.27-1.28,1.27h-78.38c-.71,0-1.28-.57-1.28-1.27v-48.77c0-.7.57-1.28,1.28-1.28h78.38c.7,0,1.28.58,1.28,1.28v48.77ZM489.27,295.15h-49.87v-50.21h49.87v50.21ZM690.7,630.27c-9.7-5.89-18.95-12.7-28.68-19.85-4.29-3.15-8.68-6.38-13.13-9.54,25.52-38.13,38.98-82.65,38.98-129.1,0-114.54-82.73-209.74-190.43-226.63v-7.14c0-1.06-.86-1.92-1.92-1.92h-63.57c-1.06,0-1.92.86-1.92,1.92v6.96c-108.27,16.38-191.61,111.85-191.61,226.81,0,45.2,12.81,88.73,37.1,126.23-12.19,9.11-25.91,18.26-42.54,28.39-30.31-45.85-46.31-99.2-46.31-154.62,0-74.55,28.77-144.63,81.01-197.34,52.22-52.68,121.64-81.69,195.46-81.69s143.25,29.01,195.47,81.69c52.23,52.71,81,122.79,81,197.34,0,57.09-16.89,111.78-48.91,158.49ZM837.39,491.87c0,.7-.58,1.27-1.28,1.27h-78.38c-.71,0-1.28-.57-1.28-1.27v-48.77c0-.7.57-1.28,1.28-1.28h78.38c.7,0,1.28.58,1.28,1.28v48.77Z"/><path class="cls-14" d="M445.49,21.66l9.15-10.91s2.29-2.08,4.06,0c1.46,1.56,8.22,10.91,8.22,10.91,0,0,1.04,1.87,0,3.01-.52.94-8.01,10.91-8.01,10.91,0,0-2.81,1.25-4.06,0-.83-1.14-9.36-11.32-9.36-11.32,0,0-.63-1.84,0-2.6Z"/><ellipse class="cls-22" cx="456.35" cy="22.95" rx="7.49" ry="7.32"/><path class="cls-14" d="M445.2,889.7l9.15-10.91s2.29-2.08,4.06,0c1.46,1.56,8.22,10.91,8.22,10.91,0,0,1.04,1.87,0,3.01-.52.94-8.01,10.91-8.01,10.91,0,0-2.81,1.25-4.06,0-.83-1.14-9.36-11.32-9.36-11.32,0,0-.63-1.84,0-2.6Z"/><ellipse class="cls-22" cx="456.06" cy="890.99" rx="7.49" ry="7.32"/><text class="cls-7" transform="translate(419.17 861.74) scale(.74 1)"><tspan x="0" y="0">VI</tspan></text><text class="cls-11" transform="translate(639.57 820.19) rotate(-27.74) scale(.74 1)"><tspan x="0" y="0">V</tspan></text><text class="cls-7" transform="translate(782 703.98) rotate(-59.58) scale(.74 1)"><tspan x="0" y="0">IIII</tspan></text><text class="cls-7" transform="translate(203.66 782.48) rotate(29.11) scale(.74 1)"><tspan x="0" y="0">VII</tspan></text><text class="cls-7" transform="translate(73.44 602.85) rotate(59.05) scale(.74 1)"><tspan x="0" y="0">VIII</tspan></text><text class="cls-7" transform="translate(149.55 299.6) rotate(-63.17) scale(.74 1)"><tspan x="0" y="0">X</tspan></text><text class="cls-7" transform="translate(259.88 175.21) rotate(-32.67) scale(.74 1)"><tspan x="0" y="0">XI</tspan></text><path class="cls-3" d="M673.12,108.72c-.29,3.8-4.09,5.32-5.52,8.34s-1.57,6.59-2.88,9.5c-12.13,27.05-27.66,47.46-55.14,59.89-3.58,1.62-10.31,5.14-13.5,3.31,27.85-12.4,48.82-35.04,59.44-63.82.87-2.35,4.15-10.83,1.93-12.31-1.88-1.25-12.3-5.27-14.29-4.45-6.11,2.49-8.84,26.49-23.38,21.36,6.43-8.64,10.57-21.24,20.85-26.01,1.34-.62,9.03-2.71,9.94-2.44l22.54,6.64Z"/><path class="cls-3" d="M822.54,274.65c-12.84.07-20.96,9.3-34.29,8.18-4.38-.37-8.94-2.75-12.93-3.71-1.13-.27-1.51-.75-2.61.37.76,3.93.56,8.76-.45,12.62-3.81,14.67-25.03,39.85-37.32,48.55-1.32.94-1.18,2.48-3.64,1.28.93-4.25,4.98-6.63,7.47-9.84,13.62-17.55,39.65-51.66,13.17-69.19,6.11-2.37,14.22-.58,18.17,4.81,3.85,5.25.51,7.02,9.68,7.91,8.94.87,19.16-3.11,26.19-8.56-1.87-6.51-7.12-17.49-15.03-16.92-9.69.69-18.7,9.08-28.2-2.1l25.89-5.69c8.58,6.67,18.88,6,24.2,16.54,1.53,3.02,1.66,6.8,3.5,9.57,1.66,2.49,4.78,3.5,6.2,6.2Z"/><text class="cls-9" transform="translate(348.94 354.11) scale(.84 1)"><tspan class="cls-16" x="0" y="0">L</tspan><tspan class="cls-24" x="21.36" y="0">O</tspan><tspan x="51.15" y="0">TUS </tspan></text><text class="cls-8" transform="translate(416.86 391.56) scale(.89 1)"><tspan x="0" y="0">ENGINE</tspan></text><text class="cls-9" transform="translate(470.29 354.1) scale(.84 1)"><tspan x="0" y="0">TRUST</tspan></text><g class="cls-25"><rect class="cls-19" x="880.15" y="394.61" width="4.76" height="29.28" transform="translate(1199.68 -510.4) rotate(84.15)"/><rect class="cls-19" x="881.03" y="403.22" width="4.76" height="29.28" transform="translate(1209.04 -503.54) rotate(84.15)"/><rect class="cls-19" x="872.8" y="350.14" width="4.77" height="29.28" transform="translate(1053.61 -566.44) rotate(78.22)"/><rect class="cls-19" x="874.57" y="358.62" width="4.77" height="29.28" transform="translate(1063.31 -561.43) rotate(78.22)"/><rect class="cls-19" x="860.87" y="306.65" width="4.77" height="29.28" transform="translate(906.05 -598.82) rotate(72.25)"/><rect class="cls-19" x="863.51" y="314.9" width="4.76" height="29.28" transform="translate(915.74 -595.6) rotate(72.25)"/><rect class="cls-19" x="844.48" y="264.64" width="4.77" height="29.28" transform="translate(761.71 -608.37) rotate(66.27)"/><rect class="cls-19" x="847.96" y="272.57" width="4.76" height="29.28" transform="translate(771.05 -606.83) rotate(66.27)"/><rect class="cls-19" x="799.07" y="186.85" width="4.77" height="29.28" transform="translate(497.91 -567.14) rotate(54.34)"/><rect class="cls-19" x="804.12" y="193.89" width="4.76" height="29.28" transform="translate(505.73 -568.31) rotate(54.34)"/><rect class="cls-19" x="770.54" y="151.88" width="4.77" height="29.28" transform="translate(384.03 -521.88) rotate(48.38)"/><rect class="cls-19" x="776.29" y="158.36" width="4.77" height="29.28" transform="translate(390.8 -524.01) rotate(48.38)"/><rect class="cls-19" x="738.58" y="120.11" width="4.76" height="29.28" transform="translate(284.86 -464.54) rotate(42.42)"/><rect class="cls-19" x="744.97" y="125.95" width="4.76" height="29.28" transform="translate(290.47 -467.32) rotate(42.42)"/><rect class="cls-19" x="703.48" y="91.84" width="4.76" height="29.28" transform="translate(201.2 -398.4) rotate(36.43)"/><rect class="cls-19" x="710.45" y="96.98" width="4.77" height="29.28" transform="translate(205.62 -401.53) rotate(36.43)"/><rect class="cls-19" x="625.33" y="47.05" width="4.77" height="29.28" transform="translate(81.19 -253.18) rotate(24.34)"/><rect class="cls-19" x="633.22" y="50.62" width="4.76" height="29.28" transform="translate(83.36 -256.12) rotate(24.34)"/><rect class="cls-19" x="583.15" y="31.11" width="4.76" height="29.28" transform="translate(43.7 -180.87) rotate(18.23)"/><rect class="cls-19" x="591.37" y="33.82" width="4.76" height="29.28" transform="translate(44.96 -183.3) rotate(18.23)"/><rect class="cls-19" x="539.55" y="19.76" width="4.76" height="29.28" transform="translate(19.29 -112.97) rotate(12.12)"/><rect class="cls-19" x="548.01" y="21.58" width="4.76" height="29.28" transform="translate(19.86 -114.71) rotate(12.12)"/><rect class="cls-19" x="494.92" y="13.11" width="4.77" height="29.28" transform="translate(5.65 -51.98) rotate(6.02)"/><rect class="cls-19" x="503.53" y="14.02" width="4.76" height="29.28" transform="translate(5.79 -52.88) rotate(6.02)"/></g><g class="cls-25"><rect class="cls-19" x="408.84" y="11.62" width="4.76" height="29.28" transform="translate(-.49 43.26) rotate(-6.02)"/><rect class="cls-19" x="364.28" y="18.73" width="4.77" height="29.28" transform="translate(1.16 77.7) rotate(-12.12)"/><rect class="cls-19" x="320.8" y="30.52" width="4.77" height="29.28" transform="translate(2.09 103.36) rotate(-18.23)"/><rect class="cls-19" x="278.79" y="46.88" width="4.77" height="29.28" transform="translate(-.37 121.33) rotate(-24.34)"/><rect class="cls-19" x="201.1" y="92.46" width="4.76" height="29.28" transform="translate(-23.83 141.78) rotate(-36.43)"/><rect class="cls-19" x="166.29" y="121.09" width="4.76" height="29.28" transform="translate(-47.4 149.3) rotate(-42.42)"/><rect class="cls-19" x="134.65" y="153.17" width="4.77" height="29.28" transform="translate(-79.43 158.79) rotate(-48.38)"/><rect class="cls-19" x="106.46" y="188.42" width="4.77" height="29.28" transform="translate(-119.59 173.11) rotate(-54.34)"/><rect class="cls-19" x="61.84" y="266.65" width="4.77" height="29.28" transform="translate(-219.13 226.88) rotate(-66.27)"/><rect class="cls-19" x="45.87" y="308.82" width="4.76" height="29.28" transform="translate(-274.52 270.8) rotate(-72.25)"/><rect class="cls-19" x="34.38" y="352.43" width="4.77" height="29.28" transform="translate(-330.08 328.12) rotate(-78.22)"/><rect class="cls-19" x="27.48" y="396.97" width="4.77" height="29.28" transform="translate(-382.65 399.35) rotate(-84.15)"/><rect class="cls-19" x="27.48" y="487.08" width="4.76" height="29.28" transform="translate(-466.21 582.57) rotate(-95.85)"/><rect class="cls-19" x="34.38" y="531.62" width="4.77" height="29.28" transform="translate(-490.49 693.77) rotate(-101.78)"/><rect class="cls-19" x="45.87" y="575.23" width="4.76" height="29.28" transform="translate(-498.82 815.67) rotate(-107.75)"/><rect class="cls-19" x="61.84" y="617.4" width="4.76" height="29.28" transform="translate(-488.53 945.19) rotate(-113.73)"/><rect class="cls-19" x="106.46" y="695.63" width="4.77" height="29.28" transform="translate(-404.77 1212.79) rotate(-125.66)"/><rect class="cls-19" x="134.65" y="730.88" width="4.77" height="29.28" transform="translate(-329.27 1343.13) rotate(-131.62)"/><rect class="cls-19" x="166.29" y="762.97" width="4.76" height="29.28" transform="translate(-231.35 1465.44) rotate(-137.58)"/><rect class="cls-19" x="201.1" y="791.59" width="4.77" height="29.28" transform="translate(-111.62 1575.73) rotate(-143.57)"/><rect class="cls-19" x="278.79" y="837.17" width="4.76" height="29.28" transform="translate(186.35 1743.8) rotate(-155.66)"/><rect class="cls-19" x="320.8" y="853.54" width="4.76" height="29.28" transform="translate(358.57 1793.88) rotate(-161.77)"/><rect class="cls-19" x="364.28" y="865.33" width="4.77" height="29.28" transform="translate(540.48 1817.29) rotate(-167.88)"/><rect class="cls-19" x="408.84" y="872.44" width="4.76" height="29.28" transform="translate(727.18 1812.37) rotate(-173.98)"/><rect class="cls-19" x="498.93" y="872.44" width="4.77" height="29.28" transform="translate(1092.87 1716.7) rotate(173.98)"/><rect class="cls-19" x="543.49" y="865.33" width="4.77" height="29.28" transform="translate(1264.27 1625.77) rotate(167.88)"/><rect class="cls-19" x="586.97" y="853.54" width="4.76" height="29.28" transform="translate(1420.7 1508.43) rotate(161.77)"/><rect class="cls-19" x="628.98" y="837.17" width="4.76" height="29.28" transform="translate(1557.64 1367.76) rotate(155.66)"/><rect class="cls-19" x="706.67" y="791.59" width="4.76" height="29.28" transform="translate(1758.33 1033.78) rotate(143.57)"/><rect class="cls-19" x="741.48" y="762.97" width="4.76" height="29.28" transform="translate(1817.54 849.89) rotate(137.58)"/><rect class="cls-19" x="773.12" y="730.88" width="4.76" height="29.28" transform="translate(1847.92 660.97) rotate(131.62)"/><rect class="cls-19" x="801.31" y="695.63" width="4.77" height="29.28" transform="translate(1849.31 471.38) rotate(125.66)"/><rect class="cls-19" x="845.93" y="617.4" width="4.76" height="29.28" transform="translate(1768.31 109.82) rotate(113.73)"/><rect class="cls-19" x="861.9" y="575.23" width="4.77" height="29.28" transform="translate(1689.57 -53.42) rotate(107.75)"/><rect class="cls-19" x="873.39" y="531.62" width="4.76" height="29.28" transform="translate(1589.32 -199.55) rotate(101.78)"/><rect class="cls-19" x="880.29" y="487.08" width="4.76" height="29.28" transform="translate(1471.77 -325.21) rotate(95.85)"/></g><text class="cls-6" transform="translate(79.47 424.43) scale(.89 1)"><tspan x="0" y="0">MAX EX</tspan><tspan class="cls-1" x="54.33" y="0">P</tspan><tspan x="60.72" y="0">. </tspan><tspan class="cls-20" x="70.73" y="0">L</tspan><tspan x="78.39" y="0">O</tspan><tspan class="cls-23" x="89.41" y="0">S</tspan><tspan x="98.83" y="0">S</tspan></text><text class="cls-6" transform="translate(756.96 424.64) scale(.89 1)"><tspan x="0" y="0">EX</tspan><tspan class="cls-1" x="18.44" y="0">P</tspan><tspan x="24.84" y="0">. RETURN</tspan></text><circle class="cls-4" cx="456.34" cy="460.09" r="31.66"/><line class="cls-5" x1="414.93" y1="460.09" x2="499.72" y2="460.09"/><line class="cls-4" x1="456" y1="419.47" x2="456" y2="505.77"/><path class="cls-14" d="M661.71,836.28l2.86-13.95s1.02-2.92,3.57-1.93c2.02.68,12.42,5.69,12.42,5.69,0,0,1.8,1.15,1.43,2.65-.01,1.07-1.86,13.41-1.86,13.41,0,0-1.88,2.43-3.57,1.93-1.28-.61-13.62-5.51-13.62-5.51,0,0-1.43-1.32-1.24-2.28Z"/><ellipse class="cls-22" cx="671.88" cy="832.24" rx="7.49" ry="7.32" transform="translate(-314.89 419.51) rotate(-28.39)"/><path class="cls-14" d="M821.33,681.55l-4.65-13.46s-.61-3.03,2.08-3.48c2.09-.45,13.58-1.45,13.58-1.45,0,0,2.14.07,2.58,1.55.53.93,5.24,12.48,5.24,12.48,0,0-.37,3.05-2.08,3.48-1.41.13-14.53,2.21-14.53,2.21,0,0-1.91-.4-2.23-1.33Z"/><ellipse class="cls-22" cx="828.02" cy="672.89" rx="7.49" ry="7.32" transform="translate(-174.72 1037.47) rotate(-59.08)"/><path class="cls-14" d="M884.76,470.38l-10.91-9.15s-2.08-2.29,0-4.06c1.56-1.46,10.91-8.22,10.91-8.22,0,0,1.87-1.04,3.01,0,.93.52,10.91,8.01,10.91,8.01,0,0,1.25,2.81,0,4.06-1.14.83-11.32,9.36-11.32,9.36,0,0-1.84.63-2.6,0Z"/><ellipse class="cls-22" cx="886.05" cy="459.52" rx="7.49" ry="7.32" transform="translate(423.75 1344.12) rotate(-89.82)"/><path class="cls-14" d="M833.51,253.71l-13.77-3.64s-2.85-1.19-1.73-3.67c.79-1.98,6.37-12.08,6.37-12.08,0,0,1.25-1.74,2.73-1.28,1.07.07,13.28,2.6,13.28,2.6,0,0,2.32,2.01,1.73,3.67-.68,1.24-6.26,13.29-6.26,13.29,0,0-1.4,1.36-2.35,1.11Z"/><ellipse class="cls-22" cx="830.05" cy="243.33" rx="7.32" ry="7.49" transform="translate(-25.03 373.86) rotate(-25.02)"/><path class="cls-14" d="M681.58,89.76l-13.5,4.53s-3.04.58-3.46-2.12c-.43-2.09-1.32-13.59-1.32-13.59,0,0,.09-2.14,1.57-2.57.93-.53,12.52-5.12,12.52-5.12,0,0,3.05.4,3.46,2.12.11,1.41,2.08,14.55,2.08,14.55,0,0-.42,1.9-1.36,2.22Z"/><ellipse class="cls-22" cx="672.99" cy="82.99" rx="7.32" ry="7.49" transform="translate(249.34 612.45) rotate(-58.36)"/><path class="cls-14" d="M231.93,824.65l13.48-4.6s3.03-.59,3.47,2.1c.44,2.09,1.39,13.59,1.39,13.59,0,0-.08,2.14-1.56,2.58-.93.53-12.5,5.19-12.5,5.19,0,0-3.05-.39-3.47-2.1-.12-1.41-2.15-14.53-2.15-14.53,0,0,.41-1.9,1.34-2.22Z"/><ellipse class="cls-22" cx="240.56" cy="831.37" rx="7.32" ry="7.49" transform="translate(-595.33 607.03) rotate(-58.84)"/><path class="cls-14" d="M78.97,662.31l14.05,2.31s2.95.91,2.07,3.49c-.6,2.05-5.19,12.63-5.19,12.63,0,0-1.08,1.85-2.59,1.54-1.07.03-13.47-1.32-13.47-1.32,0,0-2.51-1.78-2.07-3.49.56-1.3,4.96-13.83,4.96-13.83,0,0,1.26-1.48,2.23-1.32Z"/><ellipse class="cls-22" cx="83.41" cy="672.31" rx="7.32" ry="7.5" transform="translate(-331.59 136.83) rotate(-30.7)"/><path class="cls-14" d="M26.45,446.83l11.16,8.85s2.14,2.23.11,4.06c-1.52,1.5-10.67,8.52-10.67,8.52,0,0-1.84,1.09-3.01.08-.95-.49-11.13-7.7-11.13-7.7,0,0-1.32-2.77-.11-4.06,1.12-.86,11.06-9.68,11.06-9.68,0,0,1.82-.69,2.6-.07Z"/><ellipse class="cls-22" cx="25.47" cy="457.72" rx="7.32" ry="7.5" transform="translate(-13.4 .94) rotate(-1.68)"/><path class="cls-14" d="M91.22,231.6l4.6,13.48s.59,3.03-2.1,3.47c-2.09.44-13.59,1.39-13.59,1.39,0,0-2.14-.08-2.58-1.56-.53-.93-5.19-12.5-5.19-12.5,0,0,.39-3.05,2.1-3.47,1.41-.12,14.53-2.16,14.53-2.16,0,0,1.9.41,2.22,1.34Z"/><ellipse class="cls-22" cx="84.5" cy="240.23" rx="7.5" ry="7.32" transform="translate(-164.86 188.58) rotate(-58.92)"/><path class="cls-14" d="M251.56,77.42l-2.57,14.01s-.96,2.94-3.53,2c-2.04-.64-12.53-5.42-12.53-5.42,0,0-1.83-1.11-1.49-2.62,0-1.07,1.58-13.44,1.58-13.44,0,0,1.83-2.47,3.53-2,1.29.58,13.73,5.22,13.73,5.22,0,0,1.46,1.29,1.28,2.26Z"/><ellipse class="cls-22" cx="241.48" cy="81.66" rx="7.5" ry="7.32" transform="translate(-8.75 130.29) rotate(-29.68)"/><path class="cls-17" d="M643.55,286.41c-48.43-48.86-112.8-75.78-181.26-75.78-.04,0-.08,0-.12,0-.17,3.24-.24,6.49-.09,9.73.07,0,.14,0,.21,0,134.95,0,244.73,111.84,244.73,249.3,0,43.92-11.09,86.25-32.26,123.81,3.09,2.27,6.13,4.5,9.15,6.65,22.87-39.47,34.85-84.11,34.85-130.47,0-69.24-26.71-134.32-75.21-183.25Z"/><path class="cls-18" d="M462.18,210.64c-68.41.03-132.73,26.94-181.14,75.77-48.5,48.94-75.21,114.02-75.21,183.25,0,44.89,11.29,88.3,32.83,126.9,3.26-2.12,6.4-4.21,9.43-6.27-20.02-36.79-30.51-78.03-30.51-120.63,0-137.39,109.67-249.18,244.51-249.3-.15-3.24-.08-6.49.09-9.73Z"/><text class="cls-6" transform="translate(292.12 470.54) scale(.89 1)"><tspan x="0" y="0">Unreali</tspan><tspan class="cls-21" x="49.51" y="0">z</tspan><tspan x="56.79" y="0">ed P&amp;L</tspan></text><path class="cls-10" d="M383.85,477.05h-89.64c-2.26,0-4.1,1.84-4.1,4.1v56.07c0,2.26,1.84,4.09,4.1,4.09h89.64c2.26,0,4.09-1.83,4.09-4.09v-56.07c0-2.26-1.83-4.1-4.09-4.1ZM379.69,529.76c0,2.26-1.83,4.1-4.1,4.1h-73.12c-2.27,0-4.1-1.84-4.1-4.1v-41.16c0-2.26,1.83-4.09,4.1-4.09h73.12c2.27,0,4.1,1.83,4.1,4.09v41.16Z"/><path class="cls-2" d="M379.69,488.6v41.16c0,2.26-1.83,4.1-4.1,4.1h-73.12c-2.27,0-4.1-1.84-4.1-4.1v-41.16c0-2.26,1.83-4.09,4.1-4.09h73.12c2.27,0,4.1,1.83,4.1,4.09Z"/><path class="cls-2" d="M837.4,443.1v48.77c0,.7-.58,1.27-1.28,1.27h-78.37c-.71,0-1.28-.57-1.28-1.27v-48.77c0-.7.57-1.28,1.28-1.28h78.37c.7,0,1.28.58,1.28,1.28Z"/><path class="cls-2" d="M171.39,443.31v48.77c0,.7-.58,1.27-1.28,1.27h-78.38c-.71,0-1.27-.57-1.27-1.27v-48.77c0-.7.56-1.28,1.27-1.28h78.38c.7,0,1.28.58,1.28,1.28Z"/><g class="cls-15"><path class="cls-19" d="M574.62,412.1c.22.07-.18-.19-.27-.27,0-.03-.33-.46-.29-.4-.32-.48-.6-.99-.84-1.5-.53-1.14-.85-2.36-1.04-3.59-.16-1.03-1.61-1.59-2.62-1.34-1.22.3-1.65,1.33-1.49,2.37.27,1.72.86,3.36,1.68,4.92.82,1.57,1.88,2.89,3.74,3.52,1.08.36,2.33-.4,2.62-1.34.33-1.08-.41-2-1.49-2.37Z"/><path class="cls-19" d="M624.3,432.55c-.15-1.68-.39-3.36-.69-5.03-.6-3.28-1.52-6.5-2.75-9.63-1.43-3.64-3.26-7.16-5.45-10.48-.56-.85-1.95-1.27-2.91-.69-5.75,3.47-11.12,7.45-15.98,11.89-1.89,1.73.96,4.37,2.89,2.82,1.32,4.53,1.69,9.21,1.12,13.89-.03.22.01.44.09.65-.5.36-.97.76-1.4,1.21.14-.29.25-.6.33-.92.62-2.52.44-5.2-.38-7.66-.79-2.36-4.9-1.36-4.11,1.02.36,1.07.58,2.13.6,3.25.01.54,0,1.08-.08,1.61-.05.35-.07.94-.28,1.24-.03.04-.2.13-.39.18-.51.14-1.05.2-1.58.26-1.31.15-2.65.19-3.97.15-1.08-.03-2.19-.23-3.27-.17,2.61-7.55,4.81-15.22,6.59-22.97.23-1.02-.33-2.08-1.49-2.37-1.06-.26-2.39.32-2.62,1.34-1.43,6.23-3.13,12.4-5.09,18.5-.83-.55-1.6-1.18-2.54-1.61-1.2-.56-2.42-.7-3.68-.64-.63-1.81-1.25-3.63-1.88-5.44,1.92-.16,3.83-.34,5.74-.54,1.14-.12,2.13-.8,2.13-1.92,0-.95-.98-2.04-2.13-1.92-5.42.57-10.85.98-16.3,1.22-.26.01-.5.06-.73.14-.05-2.23,0-4.47.17-6.7.08-1.04-1.03-1.92-2.13-1.92-1.22,0-2.05.88-2.13,1.92-.31,4.26-.24,8.54.2,12.79-.25-.8-1.09-1.52-2.05-1.44-1.07.09-2.13.23-3.18.42-.01-4.64.38-9.31.78-13.9.09-1.04-1.04-1.92-2.13-1.92-1.23,0-2.04.88-2.13,1.92-.43,4.95-.84,10.01-.76,15.03-1.7.64-3.43,1.51-5.29,1.51-2.46,0-2.71,3.1-.75,3.73-.27,2.31-.65,4.64-1.68,6.77-.52,1.09-1.22,2.14-2.13,3-.26.25-.54.46-.82.67-.04-.06-.07-.13-.1-.19-2.48-5.35-2.62-11.32-1.98-17.01.19-1.71.47-3.4.78-5.09.86,1.41,1.72,2.82,2.59,4.22.36.59.9.88,1.47.93.12.47.26.94.44,1.4.37.98,1.46,1.63,2.62,1.34,1.06-.26,1.86-1.38,1.49-2.37-1.15-3-.81-6.47-.65-9.59.18-3.38.61-6.73,1.28-10.05.21-1.02-.31-2.07-1.49-2.37-1.03-.26-2.41.32-2.62,1.34-.74,3.66-1.24,7.36-1.43,11.08-.03.65-.07,1.31-.1,1.98-.93-1.51-1.85-3.03-2.78-4.54-.84-1.37-3.55-1.19-3.89.46-1.44,6.99-2.94,14.17-1.98,21.3.24,1.78.58,3.55,1.13,5.28.48,1.53,1.06,3.24,1.98,4.61.61.91,1.66,1.52,2.85,1.51,1.15,0,2.12-.57,2.99-1.19,1.32-.94,2.41-2.13,3.26-3.43,2.11-3.21,2.68-6.93,3.1-10.58.64-.2,1.27-.44,1.9-.67.36,4.74,1.27,9.42,3.15,13.93.41.97,1.44,1.64,2.62,1.34,1.03-.26,1.9-1.39,1.49-2.37-1.92-4.6-2.79-9.37-3.08-14.2,1.01-.22,2.03-.38,3.06-.47,1.09-.09,2.03-.75,2.12-1.76.68,6.09,2.12,12.12,4.3,17.91.37.98,1.46,1.63,2.62,1.34,1.06-.26,1.86-1.38,1.49-2.37-1.09-2.89-1.98-5.82-2.69-8.79.14.03.3.05.46.06,1.71.06,3.2-.76,4.77-1.26,1.42-.46,2.88-.82,4.37-1.09,1.13-.21,2.49-.47,3.43,0,1.13.58,2.03,1.43,3.18,2.03-1.16,3.4-2.4,6.77-3.73,10.12-.81,2.06,2.76,3.39,3.89,1.48.67-1.13,1.34-2.26,2.01-3.39.35-.59.69-1.18,1.05-1.76.19-.31.4-.81.7-.97-.04.02-.06,0-.07,0,.19-.07.65,0,.85.01.65.04,1.29.12,1.94.15,1.44.07,2.88.03,4.31-.12,1.36-.14,2.9-.24,4.12-.86.57-.29,1.04-.68,1.4-1.14-.22.65-.08,1.37.51,1.9.77.7,2.25.79,3.01,0,1.93-2,4.85-2.85,7.68-3.04,2.05-.14,4.11-.03,6.16.08,1.78.09,3.87.42,5.63,0,.96-.22,1.78-.73,2.27-1.51.57-.9.46-1.93.37-2.92ZM571.01,429.57c-.82.24-1.63.51-2.43.81-.68.25-1.37.62-2.12.59-.49-.02-.89.09-1.2.28-.47-2.54-.8-5.1-.99-7.67.18.04.37.07.56.06,2.07-.09,4.14-.21,6.21-.35.66,1.92,1.33,3.84,1.99,5.76-.68.15-1.35.33-2.02.52ZM608.93,433.12c-1.35.15-2.71.4-4.01.79.43-5.21-.28-10.5-2.05-15.48,0,0,0,0,0,0,3.15-2.62,6.49-5.05,10-7.28,2.93,4.83,5.04,10.03,6.24,15.44.34,1.51.61,3.02.79,4.55.08.71.16,1.42.21,2.13-.04,0-.08,0-.12,0-3.68-.01-7.37-.54-11.05-.15ZM620.12,433.76c0,.08,0,.14,0,.14-.05-.03-.04-.08,0-.14ZM620.74,433.22s.02-.01.02-.01c0,0-.01,0-.02.01Z"/><path class="cls-19" d="M656.53,416.28c-3.88-.08-7.77-.16-11.66-.08.2-.16.41-.31.63-.45.92-.62,1.39-1.66.76-2.63-.53-.82-1.99-1.32-2.91-.69-1.75,1.18-3.21,2.57-4.56,4.07-1.57.13-3.13.29-4.69.5-1.24.16-2.47.36-3.7.59-1.15.22-2.41.67-2.91,1.72-.46.95-.31,2.06.76,2.63.85.45,2.27.29,2.82-.52.16-.03.32-.09.46-.11.56-.11,1.12-.2,1.68-.3.72-.12,1.44-.22,2.17-.31-1.61,2.06-3.31,4.15-5.54,5.62-.93.61-1.39,1.67-.76,2.63.54.83,1.98,1.31,2.91.69,2.96-1.95,5.13-4.52,7.23-7.21.14-.18.28-.36.42-.55.1.09.21.18.33.26,3.81,2.62,7.35,5.57,10.6,8.74,1.87,1.82,4.87-.91,3.01-2.72-3-2.92-6.24-5.6-9.68-8.08,4.2-.12,8.41-.04,12.61.05,2.74.06,2.74-3.79,0-3.85Z"/><path class="cls-19" d="M530.98,442.92s-.08-.03-.12-.05c-.01-.04-.03-.08-.05-.13-.11-.29-.23-.58-.41-.84-.55-.78-1.45-1.29-2.49-1.3-1.63-.01-3.28.95-4.37,1.97-1.9,1.78,1.1,4.5,3.01,2.72.08-.08.16-.15.24-.21.17.25.41.45.71.58.16.07.33.14.49.21.53.4,1.19.61,1.91.63,2.02.03,3.02-2.74,1.07-3.58Z"/><path class="cls-19" d="M519.02,483.05c-.41-.12-.8-.46-1.08-.86-.46-.66-.65-1.17-.88-1.94-.53-1.83-.85-3.72-2.07-5.3-.66-.85-1.87-1.24-2.91-.69-.93.49-1.42,1.77-.76,2.63,1.25,1.62,1.26,3.67,2.02,5.47.85,2.01,2.22,3.69,4.55,4.41,1.09.33,2.33-.38,2.62-1.34.32-1.05-.39-2.03-1.49-2.37Z"/><path class="cls-19" d="M525.89,479.89c-.13-.02-.25-.04-.37-.06-.02,0-.06-.02-.09-.04.01-.02-.38-.35-.26-.21-.4-.46-.66-1.03-.84-1.43-.71-1.61-1.42-3.22-2.13-4.84-.42-.96-1.42-1.64-2.62-1.34-1.02.25-1.91,1.39-1.49,2.37.87,1.98,1.67,3.99,2.64,5.94.75,1.51,2.08,3.08,4.03,3.32,1.14.14,2.29-.25,2.62-1.34.27-.9-.34-2.22-1.49-2.37Z"/><path class="cls-19" d="M576.81,453.44s0-.01,0-.02c-.1-.27-.27-.53-.38-.8,0,0-.01,0-.02,0,.17.59.41,1.7.4.8Z"/><path class="cls-19" d="M581.3,453.82c-.42-2.23-1.76-5.36-4.79-5.21-1.48.07-2.89.81-4.05,1.79-.9.04-1.67.61-1.97,1.41-1.43,3.79-2.19,7.8-2.24,11.81-.21.1-.46.17-.82.26-.88.22-1.78.32-2.67.46-1.87.3-3.61.95-5.14,1.98-1.07.72-2.04,1.59-2.98,2.48,1.06-3.51,2.16-7.01,3.28-10.5,1.49-.39,2.96-.81,4.39-1.32,1.07-.39,1.82-1.28,1.49-2.37-.28-.92-1.55-1.73-2.62-1.34-.6.22-1.2.42-1.81.6.18-.56.37-1.12.56-1.68.79-2.37-3.32-3.39-4.11-1.02-.45,1.34-.89,2.68-1.32,4.02-2.49.62-5,1.22-7.39,2.05-.68-2.55-1.65-5.05-2.65-7.47-.4-.97-1.44-1.64-2.62-1.34-1.04.26-1.89,1.39-1.49,2.37,1.05,2.54,2.11,5.31,2.78,8.13-.56.29-1.11.61-1.65.96-.94.6-1.38,1.68-.76,2.63.54.84,1.97,1.29,2.91.69.05-.03.1-.06.15-.09.22,3.51-.51,6.94-2.98,9.92-1.01,1.21-2.47,2.41-4.1,2.98-1.53.54-3.41.54-4.5-.56-1.2-1.21-1.11-3.21-1.15-4.73-.05-2.06.06-4.12.33-6.17.6-4.55,2.1-9.05,4.31-13.17,1.02-1.91-1.53-3.92-3.34-2.33-2.98,2.61-5.79,5.36-8.44,8.25-.73.8-.87,1.94,0,2.72.76.68,2.27.8,3.01,0,.47-.51.95-1.02,1.43-1.52-.44,1.59-.8,3.2-1.05,4.84-.37,2.45-.57,4.92-.5,7.4.06,2.27.19,4.78,1.72,6.69,1.54,1.92,4.16,2.95,6.77,2.78,2.62-.17,4.98-1.32,6.91-2.88,3.6-2.89,5.35-7.21,5.78-11.46.16-1.59.11-3.18-.09-4.76,1.69-.64,3.45-1.14,5.22-1.6-1.55,4.88-3.04,9.78-4.47,14.69-.45,1.55,1.53,3.11,3.13,2.17,3.14-1.85,5.39-4.97,8.21-6.85,1.5-1,2.8-1.3,4.67-1.58.6-.09,1.21-.2,1.8-.34.12,1.12.29,2.23.51,3.34.18.89.34,1.81.68,2.66.55,1.37,2.01,2.1,3.6,1.78,2.08-.43,3.77-2.05,4.81-3.65,1.02-1.57,1.61-3.36,2.09-5.12,1.12-4.06,1.97-8.61,1.17-12.78ZM576.17,464.99c-.34,1.32-.75,2.8-1.34,3.96-.28.54-.66,1.17-1.03,1.58-.15.17-.33.31-.52.44,0-.02,0-.04-.01-.06-.18-.78-.34-1.57-.46-2.36-.17-1.19-.27-2.4-.3-3.61.16-.43.17-.89,0-1.31,0,0,0-.01,0-.02.04-2.9.5-5.76,1.33-8.55.07-.09.15-.18.21-.29.34-.56.68-1,1.2-1.44.1-.09.75-.46,1.16-.69-.01-.04-.03-.09-.04-.12,0,.01.02.03.02.03.01.03.02.06.04.09.2-.11.34-.19.34-.19.03.47.05.79.05,1,.23.63.39,1.29.45,1.95.31,3.18-.29,6.51-1.09,9.6Z"/><path class="cls-19" d="M661.65,461.96c-3.72-7.56-6.57-15.45-8.58-23.52-.25-1.01-1.55-1.61-2.62-1.34-1.15.29-1.74,1.35-1.49,2.37,1.71,6.87,4.06,13.58,6.97,20.1-1.49-.35-3.01-.6-4.52-.82-2.53-.37-5.09-.64-7.65-.77-.91-3.52-2.05-7-3.6-10.33-1.48-3.18-3.35-6.13-5.8-8.8-.86-.94-2.74-.63-3.34.39-3.28,5.54-5.3,11.67-7.59,17.58-.38.98-.76,1.97-1.15,2.95-.31.07-.62.14-.93.21-2,.47-1.85,2.7-.51,3.49-.76,1.96-1.52,3.92-2.29,5.89-.34-.12-.68-.23-1.03-.33.03-4.11-.22-8.21-.74-12.29.8-.08,1.6-.16,2.41-.23,1.14-.1,2.13-.81,2.13-1.92,0-.96-.98-2.03-2.13-1.92-3.27.29-6.53.65-9.78,1.06-1.16.15-2.32.29-3.46.47-.51-1.46-1.14-2.89-1.86-4.28-1.17-2.27-2.5-4.62-4.06-6.7-1.07-1.41-2.72-2.08-4.54-1.32-1.38.58-2.68,1.42-3.98,2.13-3.03,1.65-6.05,3.3-9.07,4.97-2.34,1.29-.2,4.61,2.15,3.32,2.97-1.63,5.94-3.26,8.92-4.88.79-.43,1.59-.87,2.38-1.3.26-.14.51-.28.77-.42.26.4.67.94.79,1.12.41.63.81,1.27,1.2,1.91,1.24,2.04,2.4,4.21,3.21,6.46-.41.14-.81.3-1.2.47-1.03.46-1.32,1.78-.76,2.63.62.95,1.88,1.15,2.91.69.01,0,.02,0,.03-.01.14.92.2,1.85.16,2.79-2.43-1.1-5.33-1.38-8.03-1.27-.82.04-1.67.08-2.51.13-.34-2.42-.59-4.85-.74-7.29-.06-1.04-.93-1.92-2.13-1.92-1.1,0-2.19.88-2.13,1.92.16,2.59.42,5.18.78,7.76-1.87.32-3.68.82-5.32,1.65-2.39,1.21-.25,4.53,2.15,3.32,1.15-.58,2.44-.94,3.77-1.18.92,5.15,2.23,10.24,3.95,15.22.81,2.36,4.92,1.35,4.11-1.02-.13-.39-.26-.78-.39-1.18.67.41,1.6.53,2.28.1,3.35-2.14,7.02-3.83,10.96-4.91,1.8-.49,3.7-1.04,5.58-.64.62.14,1.23.32,1.83.52-.27.69-.54,1.38-.81,2.07-.38.98.43,2.1,1.49,2.37,1.18.29,2.24-.36,2.62-1.34.24-.61.47-1.21.71-1.82.01,0,.02,0,.04,0,2.58.57,3.73-2.89,1.38-3.64.98-2.52,1.96-5.05,2.94-7.57,4.86-.93,9.82-1.38,14.8-1.34.97,4.12,1.71,8.28,2.29,12.45.48,3.39.88,6.89.32,10.29-.17,1.03.29,2.07,1.49,2.37,1.01.25,2.45-.31,2.62-1.34.56-3.37.43-6.7,0-10.08-.42-3.31-.96-6.61-1.6-9.9-.23-1.21-.48-2.42-.74-3.62,1.82.12,3.63.3,5.43.56,2.91.42,6.01.87,8.62,2.17.83.41,1.9.31,2.58-.3.72-.65.72-1.54.33-2.33ZM608.9,469.3c-4.38,1.17-8.55,2.99-12.27,5.37-.38.25-.68.57-.86.94-1.12-3.68-2.03-7.41-2.71-11.18.53-.03,1.06-.06,1.57-.08,3.05-.16,6.36.04,8.43,2.31,1.03,1.13,3.19.46,3.56-.85.75-2.65.78-5.32.31-7.94,1.21-.19,2.44-.31,3.61-.45.68-.08,1.36-.17,2.04-.24.46,3.76.69,7.54.69,11.33-1.47.08-2.92.4-4.37.79ZM627.14,458.84c.09-.23.18-.47.27-.7,1.85-4.75,3.48-9.67,5.81-14.27,2.68,3.7,4.33,7.98,5.59,12.23.17.58.34,1.17.5,1.76-4.08.02-8.16.35-12.18.98Z"/><path class="cls-19" d="M616.54,437.5c-1.21,0-2.07.88-2.13,1.92-.1,1.67-.2,3.34-.31,5.01-.09,1.47-.11,2.92-.69,4.32-.4.97.45,2.11,1.49,2.37,1.19.3,2.21-.37,2.62-1.34.67-1.6.72-3.34.83-5.03.11-1.78.22-3.55.33-5.33.06-1.04-1.02-1.92-2.13-1.92Z"/><path class="cls-19" d="M597.06,506.68c-2.12-2.46-3.24-5.58-3.3-8.68-.05-2.47-4.31-2.48-4.26,0,.08,4.2,1.71,8.1,4.55,11.4.71.82,2.27.67,3.01,0,.9-.81.71-1.9,0-2.72Z"/><path class="cls-19" d="M649.69,494.44c-5.49-2.35-11.01-4.71-16.79-6.45-5.9-1.77-12.02-2.65-18.23-2.95-6.21-.3-12.42-.1-18.63-.1-3.86,0-7.7-.14-11.55-.3.18-2.19.67-4.48,2.28-6.17,1.78-1.87-.97-4.4-3.01-2.72-3,2.47-4.76,5.86-7.4,8.59-11.36-.32-23.62.23-33.63,5.6-2.26,1.21-4.38,2.77-5.77,4.81-.73,1.06-1.41,2.39-1.25,3.66.21,1.67,1.65,2.43,3.32,2.77,5.99,1.23,12.09-.37,17.6-2.46,5.63-2.14,11.22-4.58,16.54-7.3,1.77-.9,3.46-1.94,4.94-3.19.67.02,1.34.05,2.01.08-.02.91-.03,1.82-.06,2.72-.12,3.13-.64,6.25-.45,9.39.19,3.08,1.14,5.97,2.75,8.68,1.73,2.9,4.08,5.47,6.39,8.01.73.8,2.25.68,3.01,0,.88-.79.73-1.91,0-2.72-3.46-3.8-7.26-7.99-7.82-13.07-.32-2.92.08-5.86.29-8.77.09-1.35.11-2.71.12-4.06,3.16.13,6.31.26,9.47.28,5.82.05,11.63-.15,17.45-.01,5.69.13,11.36.6,16.87,1.94,5.37,1.31,10.48,3.28,15.51,5.39,1.3.55,2.6,1.1,3.89,1.66,1.04.44,2.3.26,2.91-.69.54-.84.28-2.18-.76-2.63ZM560.4,493c-4.86,2.11-10.12,4.39-15.58,4.74-1.23.08-2.5.08-3.72-.09-.32-.04-.63-.1-.94-.17.03-.05.06-.1.09-.17.96-1.7,2.6-2.93,4.4-3.92,7.82-4.3,17.29-5.25,26.39-5.28-.96.48-1.93.93-2.89,1.37-2.57,1.19-5.14,2.38-7.74,3.51Z"/></g><path class="cls-10" d="M330.12,708.4c-2.14-6-3.3-12.74-3.55-20.44-.02-.67-.01-1.34,0-2,0-.67-.02-1.34,0-2,.02-.66-.02-1.33-.03-2v-.08c0-.31.01-.62.03-.92,0,0,2.85-27.79,30.68-33.96,15.42-.68,19.99-2.25,30.31,3.8.02.01.03.02.05.03.65.33,1.3.7,1.96,1.13,1.37.88,3.74,3.72,5,5,0,0,6.53-9.48,20.52-12.05h.01c.4-.18,10.33-4.46,33.24-1.05.18-.03.42,0,.71.11,0,0,5.86,1.16,11.47,4.68.98-.79,2-1.73,3.01-2.23,7.69-3.76,17.65-6.06,26.76-4.91h0s.02-.01.05,0c.02,0,.05.01.08.02,2.63.33,5.18.96,7.59,1.92,3.4,1.05,7.1,2.49,9.29,4.24,0,0,.02-.02.07-.05,1.02-.88,13.16-10.72,32.27-6.08.03,0,.05.01.08.02.68.14,1.33.28,1.85.38.78.15,1.84.57,2.99,1.07.76.31,1.55.66,2.34.97,0,0,9.93,4.46,13.97,12.69,0,0,4.49,7.48,4.45,15.05,1.74-.29,3.41-.77,5.25-.78,15.39-.08,23.4,9.95,23,25-.1,3.83-.96,8.13-2.35,12.44h8.54c.68-5.59,1.03-11.27,1.03-17.04,0-77.32-62.68-140-140-140s-140,62.68-140,140c0,5.77.35,11.45,1.03,17.04h8.3ZM460.79,561.35c62.73,0,115.23,44.67,127.36,103.86-4.21-2.39-9.12-3.8-14.56-4.17-1.39-4.48-3.22-7.9-3.92-9.12-5.54-10.91-17.33-16.45-18.67-17.05l-.22-.1-.22-.08c-.39-.16-.79-.33-1.18-.49-.31-.14-.62-.27-.93-.39-1.56-.68-3.24-1.34-4.99-1.68-.28-.05-.6-.12-.95-.19l-.98-.37h-.71c-3.76-.84-7.54-1.26-11.25-1.26-10.06,0-17.79,2.99-22.74,5.7-1.64-.7-3.47-1.37-5.5-2.01-2.73-1.05-5.63-1.81-8.65-2.26l-.66-.22h-1.08c-1.79-.21-3.64-.32-5.51-.32-8.47,0-17.5,2.08-25.52,5.86-3.75-1.63-6.92-2.46-8.28-2.77-.83-.24-1.66-.38-2.5-.43-6.1-.88-11.88-1.32-17.21-1.32-10.52,0-16.79,1.7-19.6,2.71-7.74,1.59-13.64,4.81-17.86,7.96-.56-.35-1.14-.68-1.74-1l-.13-.09-.3-.15c-7.06-4.08-12.84-5.68-20.51-5.68-2.58,0-5.28.17-8.41.35-1.95.12-4.12.25-6.56.36l-.87.04-.85.19c-5.78,1.28-10.77,3.37-15.06,5.97,19.18-47.91,66.08-81.85,120.76-81.85Z"/></svg>