<?xml version="1.0" encoding="UTF-8"?>
<svg id="Capa_1" xmlns="http://www.w3.org/2000/svg" viewBox="0 0 387.62 392.7">
  <defs>
    <style>
      .cls-1{letter-spacing:-.07em;}
      .cls-2{letter-spacing:0em;}
      .cls-3{letter-spacing:-.01em;}
      .cls-4{fill:#f2f2f2;}
      .cls-5{letter-spacing:-.02em;}
      .cls-6{letter-spacing:-.02em;}
      .cls-7{letter-spacing:-.01em;}
      .cls-8{letter-spacing:0em;}
      .cls-9{font-family:Calibri, Calibri;font-size:61.65px;}
    </style>
  </defs>

  <!-- Ellipses de fondo -->
  <ellipse class="cls-4" cx="193.18" cy="196.39" rx="196.35" ry="193.81" transform="translate(-82.24 201.97) rotate(-46.63)"/>
  <ellipse class="cls-4" cx="193.18" cy="196.39" rx="166.9" ry="164.74" transform="translate(-82.24 201.97) rotate(-46.63)"/>

  <!-- Meses (uno por uno con comentarios) -->

<!-- JAN -->
<text fill="#000" stroke="none" class="cls-9" transform="translate(274.95 65.39) rotate(43.37) scale(0.50 0.80)">
  <tspan x="0" y="0">JAN</tspan>
</text>

  <!-- FEB -->
  <text fill="#000" stroke="none" class="cls-9" transform="translate(329.3 123.97) rotate(73.91) scale(.50 0.80)">
    <tspan x="0" y="0">FEB</tspan>
  </text>

  <!-- MAR -->
  <text fill="#000" stroke="none" class="cls-9" transform="translate(348.47 192.04) rotate(103.79) scale(.50 0.80)">
    <tspan x="0" y="0">MAR</tspan>
  </text>

  <!-- APR -->
  <text fill="#000" stroke="none" class="cls-9" transform="translate(324.16 275.05) rotate(133.37) scale(.50 0.80)">
    <tspan x="0" y="0">APR</tspan>
  </text>

<!-- MAY -->
<text fill="#000" stroke="none" class="cls-9" transform="translate(270.79 329.26) rotate(162.95) scale(0.50 0.80)">
  <tspan x="0" y="0">MAY</tspan>
</text>


  <!-- JUN -->
  <text fill="#000" stroke="none" class="cls-9" transform="translate(189.02 350.16) rotate(-167.17) scale(.50 0.80)">
    <tspan x="0" y="0">JUN</tspan>
  </text>

  <!-- JUL -->
  <text fill="#000" stroke="none" class="cls-9" transform="translate(109.3 325.4) rotate(-136.63) scale(.50 0.80)">
    <tspan x="0" y="0">JUL</tspan>
  </text>

<!-- AUG -->
<text fill="#000" stroke="none" class="cls-9" transform="translate(58.97 275.42) rotate(-106.09) scale(0.50 0.80)">
  <tspan x="0" y="0">AUG</tspan>
</text>


  <!-- SEP -->
  <text fill="#000" stroke="none" class="cls-9" transform="translate(40.33 190.8) rotate(-76.21) scale(.50 0.80)">
    <tspan x="0" y="0">SEP</tspan>
  </text>

<!-- OCT -->
<text fill="#000" stroke="none" class="cls-9" transform="translate(61.53 118.46) rotate(-46.63) scale(0.50 0.80)">
  <tspan x="0" y="0">OCT</tspan>
</text>


<!-- NOV -->
<text fill="#000" stroke="none" class="cls-9" transform="translate(115.29 63.62) rotate(-17.05) scale(0.50 0.80)">
  <tspan x="0" y="0">NOV</tspan>
</text>


  <!-- DEC -->
  <text fill="#000" stroke="none" class="cls-9" transform="translate(196.97 42.54) rotate(12.83) scale(.50 0.80)">
    <tspan x="0" y="0">D</tspan>
    <tspan class="cls-7" x="37.93" y="0">E</tspan>
    <tspan x="67.31" y="0">C</tspan>
  </text>
</svg>


