<?xml version="1.0" encoding="UTF-8"?>
<svg id="Capa_1" xmlns="http://www.w3.org/2000/svg" viewBox="0 0 1280 1177.01">
  <defs>
    <style>
      .cls-1 { font-size:51.89px; }
      .cls-1, .cls-2, .cls-3, .cls-4, .cls-5, .cls-6 { font-family: Calibri, Calibri; }
      .cls-7 { fill:#f2f2f2; stroke:#1d1d1b; stroke-miterlimit:10; }
      .cls-2 { font-size:51.59px; }
      .cls-3 { font-size:51.9px; }
      .cls-4 { font-size:52.05px; }
      .cls-5 { font-size:51.42px; }
      .cls-6 { font-size:51.58px; }
    </style>
  </defs>

  <!-- ROTATABLE GROUP with transform-origin centered -->
  <g id="rotatable" style="transform-box: fill-box; transform-origin: 50% 50%;">
    <ellipse class="cls-7" cx="639.97" cy="590.06" rx="550.47" ry="556.6"/>
    <text class="cls-4" transform="translate(570.04 103.91) rotate(-.61) scale(.99 1) skewX(-.01)">Fund I</text>
    <text class="cls-3" transform="translate(813.64 130.12) rotate(29.56) skewX(.6)">Fund II</text>
    <text class="cls-2" transform="translate(1014.17 273.29) rotate(59.46) skewX(.61)">Fund III</text>
    <text class="cls-5" transform="translate(1120.33 502.77) rotate(89.41) scale(1.01 1) skewX(.01)">Fund IV</text>
    <text class="cls-6" transform="translate(1094.95 762.55) rotate(119.35) skewX(-.59)">Fund V</text>
    <text class="cls-4" transform="translate(723.9 1072.02) rotate(179.39) scale(.99 1) skewX(-.01)">Fund VII</text>
    <text class="cls-3" transform="translate(478.45 1053.19) rotate(-150.44) skewX(.6)">Fund VIII</text>
    <text class="cls-2" transform="translate(272.67 915.47) rotate(-120.54) skewX(.61)">Fund IX</text>
    <text class="cls-5" transform="translate(159.01 672.06) rotate(-90.59) scale(1.01 1) skewX(.01)">Fund X</text>
    <text class="cls-6" transform="translate(185.01 412.43) rotate(-60.65) skewX(-.59)">Fund XI</text>
    <text class="cls-1" transform="translate(327.79 210.4) rotate(-30.77) skewX(-.61)">Fund XII</text>
    <text class="cls-1" transform="translate(957.15 962.36) rotate(149.23) skewX(-.61)">Fund VI</text>
  </g>
</svg>


