<?xml version="1.0" encoding="UTF-8"?>
<svg id="Capa_1" xmlns="http://www.w3.org/2000/svg" version="1.1" xmlns:xlink="http://www.w3.org/1999/xlink" viewBox="0 0 47.3 270.1">
  <!-- Generator: Adobe Illustrator 29.6.0, SVG Export Plug-In . SVG Version: 2.1.1 Build 207)  -->
  <defs>
    <style>
      .st0 {
        fill: #ccd4da;
        stroke-width: .9px;
      }

      .st0, .st1 {
        stroke: #1d1d1b;
        stroke-miterlimit: 10;
      }

      .st1 {
        fill: url(#Degradado_sin_nombre);
        stroke-width: .9px;
      }
    </style>
    <linearGradient id="Degradado_sin_nombre" data-name="Degradado sin nombre" x1="2.4" y1="134.1" x2="41.2" y2="134.1" gradientUnits="userSpaceOnUse">
      <stop offset="0" stop-color="#dedede"/>
      <stop offset=".2" stop-color="#c4ccce"/>
      <stop offset=".5" stop-color="#c4ccce"/>
      <stop offset=".6" stop-color="#b9c4c6"/>
      <stop offset=".8" stop-color="#dedede"/>
      <stop offset="1" stop-color="#dfe4e8"/>
    </linearGradient>
  </defs>
  <path class="st1" d="M37.2,232.1c-3.2,4.3-7.6,15.3-8.2,18.3,0,.3-.1.6-.2.9l-6.6,15.5-8.3-15.5c-1.3-4.8-3.4-10.7-6.9-16.2-1.3-2.3-5.2-7.2-4.5-11.7.7-4.5,1.5-13.1,1.5-13.1L18.5,6.6s.2-2.8,2.1-4.2c.4-.4,3.4-3.3,5.9,3,1.2,6.5,14.4,217,14.4,217,0,0,1.7,5.8-3.8,9.7Z"/>
  <g>
    <path class="st0" d="M22.6,266.5l-.6,1-.5-.9c.2-.1.4-.2.7-.2s.3,0,.4,0Z"/>
    <path class="st0" d="M23.7,267.8c0,.8-.6,1.4-1.4,1.4s-1.4-.6-1.4-1.4.3-1,.8-1.2c.2-.1.4-.2.7-.2s.3,0,.4,0c.6.2,1,.7,1,1.4Z"/>
  </g>
</svg>