<?xml version="1.0" encoding="UTF-8"?><svg id="Capa_1" xmlns="http://www.w3.org/2000/svg" viewBox="0 0 626.04 253.56"><defs><style>.cls-1{opacity:.85;}.cls-1,.cls-2{fill:#263740;}.cls-2{opacity:.9;}</style></defs><path class="cls-1" d="M95.46,13.83c39.48-3.72,39.89,65.39,7.62,69.64-41.72,5.5-43.15-66.29-7.62-69.64ZM95.41,24.8c-19.63,3.22-19.52,52.14,6.71,47.7,18.09-3.06,18.48-51.83-6.71-47.7Z"/><path class="cls-1" d="M388.17,13.56c14.96,2.48,18.48,23.01,9.52,33.52-1.5,1.76-5.07,2.95-4.92,4.81l20.9,28.66-14.01-.48c-4.45-4.12-15.84-24.56-20.52-25.48-1.7-.34-3.71.1-5.47-.03v26h-11V13.56c7.75.9,18.11-1.23,25.5,0ZM373.67,44.56c8.85,1.04,17.79-.89,17.81-11.5.02-9.88-10.3-9.63-17.81-9.5v21Z"/><path class="cls-1" d="M278.55,18.67l.11,12.89c-7.33-1.15-13.28-7.1-21.5-7.08-11.93.03-17.39,12.74-4.71,16.79,12.55,4.01,29.1,2.59,28.28,21.8s-20,22.68-35.27,19.19c-12.49-2.86-12.68-4.86-11.79-17.7,5.1.05,8.83,4.8,14.02,6.48s13.66,2.79,18.36-.59c3.31-2.39,4.48-7.69,2.42-11.19-4.56-7.75-31.5-1.47-33.8-21.19-3.05-26.11,26.11-27.78,43.88-19.39Z"/><path class="cls-1" d="M514.66,29.56c-4.86.36-7.87-3.42-12.46-5.04-8.76-3.09-24.1-2.43-20.32,10.33,2.41,8.14,28.06,2.59,33.52,18.47,7.53,21.92-15.44,31.17-33.94,26.94-12.49-2.86-12.68-4.86-11.79-17.7,4.33-.65,6.64,3.36,10.32,5.18,7.47,3.71,24.72,5.59,25.35-5.82.58-10.48-17-9.25-24.2-12.34-9.98-4.3-13.43-14.92-9.7-24.74,6.05-15.92,30.44-14.98,42.73-7.29l.49,12.01Z"/><path class="cls-1" d="M425.67,13.56v44.5c0,1.55,2.37,7.99,3.55,9.45,3.87,4.84,15.5,4.46,18.89-1.02.38-.62,2.57-6.09,2.57-6.43V13.56h11v45.5c0,2.07-2.29,9.4-3.45,11.55-7.55,14.05-30.49,15.16-39.01,1.9-1.78-2.77-4.55-12.38-4.55-15.45V13.56h11Z"/><path class="cls-1" d="M189.67,15.56v42.5c0,.42,1.21,6.75,1.45,7.55,2.59,8.61,17.13,9.8,21.42,2.32.39-.68,2.13-5.51,2.13-5.87V15.56h11v46.5c0,3.29-4.14,12.84-6.6,15.4-8.79,9.16-28.04,8.34-35.24-2.57-1.02-1.54-4.17-8.46-4.17-9.83V15.56h10Z"/><polygon class="cls-1" points="358.67 13.56 358.67 24.56 338.67 24.56 338.67 80.56 327.67 80.56 327.67 24.56 307.67 24.56 307.67 13.56 358.67 13.56"/><polygon class="cls-1" points="568.67 13.56 568.67 24.56 548.67 24.56 548.67 80.56 537.67 80.56 537.67 24.56 517.67 24.56 517.67 13.56 568.67 13.56"/><polygon class="cls-1" points="175.67 15.56 175.67 26.56 155.67 26.56 155.67 82.56 144.67 82.56 144.67 26.56 124.67 26.56 124.67 15.56 175.67 15.56"/><polygon class="cls-1" points="339.67 115.56 351.18 116.54 366.67 146.56 366.67 115.56 374.67 115.56 374.67 163.56 364.83 163.39 347.67 129.56 347.67 163.56 339.67 163.56 339.67 115.56"/><polygon class="cls-1" points="225.67 115.56 237.18 116.54 252.67 146.56 252.67 115.56 260.67 115.56 260.67 163.56 250.83 163.39 233.67 129.56 233.67 163.56 225.67 163.56 225.67 115.56"/><path class="cls-1" d="M307.67,160.56c-24.04,12.1-47.35-2.54-39.52-30.02,5.14-18.05,24.72-19.22,39.35-11.82l.16,9.83c-4.85-.17-7.96-4.51-12.94-5.55-24.05-5.05-24.45,31.6-6.58,33.58,8.43.93,13.26-.63,11.53-10.03h-12.01s0-9,0-9h20v23Z"/><polygon class="cls-1" points="42.67 15.56 42.67 71.56 70.67 71.56 70.67 82.56 31.67 82.56 31.67 15.56 42.67 15.56"/><polygon class="cls-1" points="219.67 115.56 219.67 123.56 197.67 123.56 197.67 133.56 219.67 133.56 219.67 141.56 197.67 141.56 197.67 155.56 219.67 155.56 219.67 163.56 188.67 163.56 188.67 115.56 219.67 115.56"/><polygon class="cls-1" points="414.67 115.56 414.67 123.56 391.67 123.56 391.67 133.56 414.67 133.56 414.67 141.56 391.67 141.56 391.67 155.56 414.67 155.56 414.67 163.56 383.67 163.56 383.67 115.56 414.67 115.56"/><path class="cls-1" d="M332.67,115.56v7s-5.07.43-5.07.43c-1.64,1.11-1.37,29.11,0,33.13l5.07.43v7h-20v-7.01s6,0,6,0v-32.5l-6-1.5v-7h20Z"/><path class="cls-2" d="M20.63,208.6l4.05,20.95,6.56-21.05,5.96,1.03,4.97,20.04,4.98-20.03,5.52-.97-7.09,27.9-6.86.05-4.05-19.95c-1.83.31-1.68,2.05-2.13,3.36-1.72,5.09-3.08,11.26-3.91,16.59l-6.82-.08c-1.21-7.67-6.79-19.06-7.15-26.37-.15-2.89,4.04-1.13,5.98-1.46Z"/><path class="cls-2" d="M365.67,236.56v-28c11.12-.33,24.79-1.32,24.79,13.5,0,14.16-13.66,15.4-24.79,14.5ZM371.67,232.56c17.18,2.56,17.54-22.65,0-20v20Z"/><path class="cls-2" d="M497.67,206.56v30c-4.76,1.85-6.14-2.05-6.53-2.06-1.41-.04-3.14,1.85-5.05,2.06-14.2,1.6-9.5-27.88,5.57-18v-12s6.01,0,6.01,0ZM486.39,220.71c-5.42,1.48-5.29,12.89,1.72,11.87,5.74-.83,5.03-13.71-1.72-11.87Z"/><path class="cls-2" d="M584.66,236.55l-5.9-.09-2.73-6.76-9.75-.2-1.66,7.01-5.95.05,9.1-27.89,7.4.89,9.49,27ZM575.67,225.55l-4.99-12.98-3.01,12.99h8Z"/><path class="cls-2" d="M431.67,216.56l4.95.09.06,2.92c19.78-12.64,20.4,24.69,0,15v11s-5.01,0-5.01,0v-29ZM437.91,221.8c-2.29,2.3-1.74,10.18,2.29,10.81,10.1,1.56,5.21-18.35-2.29-10.81Z"/><path class="cls-2" d="M56.67,206.56h5.01s0,13,0,13c2.27-3.79,12.99-3.25,12.99.5v16.5h-5.01c-.59-4.37,2.45-16.71-4.47-16.07-5.26.49-3.14,12.38-3.52,16.07h-5.01v-30.01Z"/><polygon class="cls-2" points="166.67 208.56 166.67 212.55 156.66 212.55 156.66 220.56 165.67 220.56 165.67 224.55 156.66 224.55 156.67 236.56 150.67 236.56 150.67 208.56 166.67 208.56"/><path class="cls-2" d="M272.42,216.77c15.65-2.53,17.23,17.5,4.49,19.57-14.82,2.41-16.57-17.62-4.49-19.57ZM273.39,220.74c-5.87,1.71-5.31,14.29,3.57,11.62,4.54-1.36,4.41-13.95-3.57-11.62Z"/><path class="cls-2" d="M134.67,228.56h-13c.72,5.97,7.84,4.05,11.99,3,.08,7.76-15.21,5.85-16.72-.75-4.02-17.62,20.08-19.56,17.73-2.25ZM129.66,224.55c1.19-5.51-6.65-4.98-7.99-1.48-1.07,2.8,6.85,1.02,7.99,1.48Z"/><path class="cls-2" d="M473.67,228.56h-13c.72,5.97,7.84,4.05,11.99,3,.08,7.76-15.21,5.85-16.72-.75-4.02-17.62,20.08-19.56,17.73-2.25ZM468.66,224.55c1.19-5.51-6.65-4.98-7.99-1.48-1.07,2.8,6.85,1.02,7.99,1.48Z"/><path class="cls-2" d="M97.67,228.56h-13c.72,5.97,7.84,4.05,11.99,3,.08,7.76-15.21,5.85-16.72-.75-4.02-17.62,20.08-19.56,17.73-2.25ZM92.66,224.55c1.19-5.51-6.65-4.98-7.99-1.48-1.07,2.8,6.85,1.02,7.99,1.48Z"/><path class="cls-2" d="M426.67,236.56l-4.95-.09-.06-2.92c-5.8,7.04-17.59.15-11.03-6.54,3.27-3.33,7.9-1.14,11.02-3.96-2.93-4.29-6.85-1.94-10.97-1.5-1.18-3.89,4.48-5.02,7.51-5,11.13.07,8.16,12.42,8.49,20ZM414.76,232.47c6.58,3.92,10.39-10.84.33-3.95-1.56,1.07-.94,3.58-.33,3.95Z"/><path class="cls-2" d="M195.67,216.56l4.95.09.06,2.92c2.27-3.8,12.99-3.26,12.99.49v16.5h-5.01c-.59-4.37,2.45-16.71-4.47-16.07-5.26.49-3.14,12.38-3.52,16.07h-5.01v-20.01Z"/><path class="cls-2" d="M289.67,216.56l4.95.09.06,2.92c2.27-3.8,12.99-3.26,12.99.49v16.5h-5.01c-.59-4.37,2.45-16.71-4.47-16.07-5.26.49-3.14,12.38-3.52,16.07h-5.01v-20.01Z"/><path class="cls-2" d="M525.67,216.56l4.95.09.06,2.92c2.27-3.8,12.99-3.26,12.99.49v16.5h-5.01c-.59-4.37,2.45-16.71-4.47-16.07-5.26.49-3.14,12.38-3.52,16.07h-5.01v-20.01Z"/><path class="cls-2" d="M171.67,216.56h5.01c.52,3.22-1.65,15.82,2.49,16.1,8.08.55,4.94-10.74,5.5-16.1h5.01v20.01l-4.95-.09-.06-2.92c-2.27,3.8-12.99,3.26-12.99-.49v-16.5Z"/><path class="cls-2" d="M245.66,216.56h4.02s0,3.99,0,3.99h-4.02s.13,10.38.13,10.38c.77,2.2,6.25.8,3.43,4.67-1.12,1.54-3.94,1.07-5.61.52-5.7-1.88-3.66-10.36-3.87-15.01l-3.09-1.05.19-3.39,2.67-.23c-.21-5.27,2.11-4.49,6.16-5.89v6.01Z"/><path class="cls-2" d="M612.66,216.56h4.02s0,3.99,0,3.99h-4.02s.13,10.38.13,10.38c.77,2.2,6.25.8,3.43,4.67-1.12,1.54-3.94,1.07-5.61.52-5.7-1.88-3.66-10.36-3.87-15.01l-3.09-1.05.19-3.39,2.67-.23c-.21-5.27,2.11-4.49,6.16-5.89v6.01Z"/><path class="cls-2" d="M348.52,217.7l.14,3.85-8-.49c-.74,5.84,13.83,3.47,7.76,13.26-4.53,2.42-8.77,2.81-13.63,1.12l-.12-3.88c3.25.59,7.36,2.53,9.97-.5-2.22-3.08-6.13-2.47-8.45-5.54-5.03-6.66,7.03-11.29,12.33-7.82Z"/><path class="cls-2" d="M233.66,220.55c-13.26-2.27-13.71,14.38,0,12.01l-.08,2.91c-14.77,6.52-22.04-15.33-6.99-18.47,3.73-.78,7.66-1.42,7.05,3.55Z"/><path class="cls-2" d="M102.67,216.56l4.94.11.57,2.9c2.18.49,1.02-1.53,2.69-2.33,1.18-.56,2.49-.78,3.79-.67l.03,4.43c-9.66.08-6.62,8.6-7.02,15.57h-5.01v-20.01Z"/><path class="cls-2" d="M394.67,216.56l4.94.11.57,2.9c2.18.49,1.02-1.53,2.69-2.33,1.18-.56,2.49-.78,3.79-.67l.03,4.43c-9.66.08-6.62,8.6-7.02,15.57h-5.01v-20.01Z"/><path class="cls-2" d="M588.67,216.56l4.94.11.57,2.9c2.18.49,1.02-1.53,2.69-2.33,1.18-.56,2.49-.78,3.79-.67l.03,4.43c-9.66.08-6.62,8.6-7.02,15.57h-5.01v-20.01Z"/><rect class="cls-2" x="324.67" y="216.56" width="5" height="20"/><rect class="cls-2" x="514.67" y="216.56" width="5" height="20"/><rect class="cls-2" x="254.67" y="216.56" width="5" height="20"/><path class="cls-2" d="M256.37,206.67c3.71-.96,6.05,4.63,1.6,5.78-3.71.96-6.05-4.63-1.6-5.78Z"/><path class="cls-2" d="M516.37,206.67c3.71-.96,6.05,4.63,1.6,5.78-3.71.96-6.05-4.63-1.6-5.78Z"/><path class="cls-2" d="M326.37,206.67c3.71-.96,6.05,4.63,1.6,5.78-3.71.96-6.05-4.63-1.6-5.78Z"/></svg>