<?xml version="1.0" encoding="UTF-8"?>
<svg id="Capa_1" xmlns="http://www.w3.org/2000/svg" version="1.1" xmlns:xlink="http://www.w3.org/1999/xlink" viewBox="0 0 45.3 383.6">
  <!-- Generator: Adobe Illustrator 29.6.0, SVG Export Plug-In . SVG Version: 2.1.1 Build 207)  -->
  <defs>
    <style>
      .st0 {
        fill: #ccd4da;
      }

      .st0, .st1 {
        stroke: #1d1d1b;
        stroke-miterlimit: 10;
        stroke-width: .9px;
      }

      .st1 {
        fill: url(#Degradado_sin_nombre);
      }
    </style>
    <linearGradient id="Degradado_sin_nombre" data-name="Degradado sin nombre" x1="4.8" y1="191.3" x2="38.8" y2="191.3" gradientUnits="userSpaceOnUse">
      <stop offset="0" stop-color="#dedede"/>
      <stop offset=".2" stop-color="#c4ccce"/>
      <stop offset=".5" stop-color="#c4ccce"/>
      <stop offset=".6" stop-color="#b9c4c6"/>
      <stop offset=".8" stop-color="#dedede"/>
      <stop offset="1" stop-color="#dfe4e8"/>
    </linearGradient>
  </defs>
  <path class="st1" d="M36.2,344.8c-2.4,3.8-6.5,9.5-8.1,16.7-.3,1.3-1.4,4.3-1.8,7.2l-5.2,12.2-5.2-12.2c-.6-4.8-2.4-11.8-7.6-20.5-.8-1.6-3.6-3.5-3.4-8.6.1-4.1,1.9-20.5,1.9-20.5L14.9,111.4,20.6,2.9s2.4-2.8,3.7.2c.8,5.1,7.5,145.1,7.5,145.1l6,175,.6,8s1.8,6.9-2.2,13.6Z"/>
  <g>
    <path class="st0" d="M21.5,380.2l-.6,1-.5-.9c.2-.1.4-.2.7-.2s.3,0,.4,0Z"/>
    <path class="st0" d="M22.5,381.5c0,.8-.6,1.4-1.4,1.4s-1.4-.6-1.4-1.4.3-1,.8-1.2c.2-.1.4-.2.7-.2s.3,0,.4,0c.6.2,1,.7,1,1.4Z"/>
  </g>
</svg>