<?xml version="1.0" encoding="UTF-8"?><svg id="Capa_1" xmlns="http://www.w3.org/2000/svg" viewBox="0 0 269.33 270.67"><g id="rotatableObjeto5"><defs><style>.cls-1{opacity:.9;}.cls-2{fill:#f3ac28;}.cls-3{fill:#ccd4da;}.cls-4{fill:#fff;}.cls-5{fill:#72889a;}.cls-6{fill:#9faebb;}.cls-7{fill:#283740;}.cls-8{fill:#94a4b2;}</style></defs><g class="cls-1"><circle class="cls-7" cx="134.67" cy="135.33" r="129"/><path class="cls-7" d="M109.16,234.98c-22.11-20.24-13.41-59.96,14.69-70.27,36.08-13.23,69.85,20.12,56.11,55.76-11.22,29.12-48.23,35.18-70.81,14.51Z"/><path class="cls-7" d="M128.3,24.08c57.31-6.54,65.55,78.45,12.75,84.65-60.1,7.06-67.21-78.43-12.75-84.65Z"/><path class="cls-3" d="M46.34,147.84c.82.75-4.73,7.76-4.84,9.69-.12,2.08,5.82,7.99,4.84,11.35-3.02-.97-8.36-3.9-11.39-2.88-1.88.64-5.27,7.78-7.71,8.89-.46-2.23.65-12.05-.11-12.93-.33-.38-7.61-2.03-9.54-3.01-.78-.39-3.14-.34-1.43-2.08.81-.82,10.59-2.69,10.96-3.12.74-.85-.33-9.79.11-11.92,4.18-.08,5.46,6.9,8.77,7.84,3.68,1.05,6.78-2.06,10.33-1.83Z"/><path class="cls-3" d="M61.44,78.71c1.59,1.41-6.48,6.93-6.81,8.63-.42,2.13,3.42,9.76,2.79,10.39-3.7.29-7.11-4.34-10.5-4.01-2.32.22-7.67,6.09-8.61,5.01,3.47-13.42-1.17-9.98-6.37-15.98-4.51-5.21,7.41-2.02,9.24-3.19.72-.46,2.75-9.57,3.17-9.88,2.8-2.08,4.41,7.58,6.01,8.53,2.35,1.41,8.17,0,11.08.49Z"/><path class="cls-7" d="M231.87,106.51c.26.41,7.78,2.57,9.27,3.32.83.42,3.53.44,1.56,2.27-.42.39-10.23,2.53-10.83,3.43-.55.81-.4,9.7-1.25,11.85-7.24-7.07-9.25-9.58-19.74-5.46.66-3.77,4.44-6.1,4.44-10.36,0-4.56-4.56-7.03-4.44-11.45.77-.81,9.94,3.49,11.41,3.13,1.57-.38,5.92-8.69,8.33-9.68.3,2.23.56,11.84,1.26,12.93Z"/><path class="cls-3" d="M223.39,171.3c2.69,11.02,7.13,10.06,17.06,8.95-.29,4.06-5.98,5.72-6.62,9.73-.6,3.79,3.59,7.6,3.2,11.5-.42.54-9-4.5-10.58-4.24-2.93.49-7.04,6.21-9.85,7.59-.66-3.05,1-11.07-.25-13.19-.86-1.47-9.45-3.46-8.85-6.36,2.53-3.08,7.58-.66,10.23-3.36,2.69-2.75.41-10.57,5.66-10.63Z"/><path class="cls-3" d="M51.67,182.6c2.8,2.33,5.59.11,8.76.31,1.12,1-3.57,5.27-3.81,6.68-.36,2.12,3.63,5.5,2.8,8.34-2.46.15-4.88-2.43-7.33-1.85-3.12.74-3.53,6-6.74,5.85.71-9.58.51-7.82-5.76-11.77-4.95-3.13,4.98-2.3,6.31-4.19,1.17-1.65.12-5.92.45-8.07,3.07-.51,3.92,3.53,5.32,4.7Z"/><path class="cls-7" d="M187.8,143.75c1.79,1.74-.12,11.05,9.89,8.73.62,3.67-5.85,4.63-6.34,7.2-.33,1.7,1.74,5.66.85,8.06-3.09.07-4.34-3.73-7.38-4.19s-4.99,2.62-7.98,2.01c1.31-6.05,2.44-9.62-3.29-13.64-1.18-2.79,6.52-1.08,8.77-2.16s3.37-8.03,5.47-6Z"/><path class="cls-7" d="M185.61,99.04c-.59,8.86,2.14,9.24,9.88,10.91-.59,2.04-6.7,3.28-7.46,4.56-1.29,2.18,1.17,6.05.87,8.51-3.42-.19-4.55-4.13-8.31-4.36-2.96-.18-5.09,2.67-8.14,2.17.29-3.13,2.56-4.44,2.19-8.07-.4-3.86-4.07-4.82-4.38-8.28,2.96-.08,6.1,1.86,9.1,1.12,1.66-.41,2.79-7.37,6.26-6.57Z"/><path class="cls-3" d="M39.3,111.77c.68,2.35-1.98,4.44-1.81,6.35.21,2.38,6.07,6.45,4.82,7.67-2.52-.34-4.63-1.65-7.33-.82-3.37,1.03-2.87,7-6.74,6.83,1.24-7.85-1.78-9.16-9.06-9.02-.49-3.54,5.04-3.16,5.87-5.66.77-2.31-.18-5.83.17-8.36,5.36,5.52,7.01,5.02,14.07,3.01Z"/><path class="cls-7" d="M237.2,144.84c.2,3.24-3.47,4.72-3.3,8.08.16,3.01,3.4,5.15,3.3,8.27-3.15-.28-5.53-3.08-9.1-2.22-1.23.3-3.01,6.42-6.25,5.49-.15-2.45.56-5.35-.55-7.64-1.35-2.78-7.48-2.59-7.14-6.53,6.87-.04,8.93-3.31,8.78-9.82,3.44-.66,3.94,4.5,6.22,5.29,2.8.97,5.39-.64,8.04-.93Z"/><path class="cls-3" d="M74.51,146.84c-1.18,8.9,7.46,6.32,9.06,8.03,1.92,2.04-5.38,3.55-5.86,5.59-.32,1.33,1.68,5.31.83,7.42-2.82.5-3.54-3.39-5.66-3.8s-7.61,3.63-8.41,2.8c-.65-2.36,2.17-5.53,1.81-7.37-.58-2.96-6.08-3.51-5.83-6.65,2.53-.34,6.07.6,8.39-.16,2.52-.83,2.12-6.34,5.69-5.85Z"/><path class="cls-3" d="M71.49,104.76c2.26,2.17-.41,9.56,10.08,8.02-6.43,5.3-6.19,5.66-5.04,14.02-6.18-5.63-7.2-3.26-14.07-1.01-.18-2.48,2.45-4.82,1.85-7.31-.75-3.11-6.03-3.51-5.88-6.71,2.34-.3,6.05.71,8.05-.5,1.54-.93,2.93-8.51,5.01-6.52Z"/><path class="cls-3" d="M217.71,58.39c.31.3,2.62,7.04,3.59,7.73.52.37,7-1.97,8.93-1.02.27,3.37-4.24,4.11-4.58,7.3-.31,2.94,2.45,4.48,2.3,7.22-2.62.77-6.14-1.42-8.29-.94-2.28.52-3.4,4.8-6.47,4.29,2.37-9.06-4.41-8.42-6.82-14.52,1.72-.15,6.7-.41,7.69-1.38,1.13-1.1.8-11.46,3.65-8.68Z"/><path class="cls-4" d="M245.57,118.13c-.04.13.1-.11.15-.16.02,0,.26-.2.22-.17.27-.19.55-.36.84-.5.64-.32,1.33-.51,2.01-.62.58-.1.9-.97.76-1.57-.17-.74-.74-1-1.32-.9-.96.16-1.88.51-2.76,1.01-.88.49-1.62,1.13-1.98,2.24-.2.65.22,1.4.75,1.58.6.2,1.12-.24,1.33-.89Z"/><path class="cls-4" d="M234.03,147.99c.94-.09,1.89-.23,2.82-.41,1.84-.36,3.65-.91,5.4-1.64,2.04-.86,4.02-1.95,5.88-3.27.48-.34.72-1.17.39-1.75-1.94-3.46-4.16-6.7-6.64-9.63-.96-1.14-2.45.57-1.59,1.73-2.54.79-5.16,1-7.79.65-.13-.02-.25,0-.36.06-.2-.3-.43-.58-.68-.85.16.08.34.15.52.2,1.41.38,2.91.27,4.29-.22,1.33-.47.77-2.95-.57-2.47-.6.21-1.2.34-1.82.35-.3,0-.61,0-.9-.05-.19-.03-.53-.04-.69-.17-.02-.02-.07-.12-.1-.23-.08-.31-.11-.63-.14-.95-.08-.79-.1-1.59-.08-2.39.02-.65.13-1.31.1-1.97,4.23,1.58,8.52,2.91,12.87,3.99.57.14,1.17-.19,1.33-.89.15-.63-.18-1.44-.75-1.58-3.49-.87-6.95-1.9-10.36-3.09.31-.5.66-.96.91-1.52.32-.72.4-1.45.37-2.21,1.02-.37,2.03-.75,3.05-1.12.09,1.15.19,2.31.3,3.46.07.69.44,1.28,1.07,1.28.53,0,1.15-.59,1.08-1.28-.31-3.26-.53-6.53-.66-9.81,0-.15-.03-.3-.08-.44,1.25-.03,2.5.01,3.76.11.58.05,1.08-.62,1.08-1.28,0-.73-.49-1.24-1.07-1.28-2.39-.19-4.79-.16-7.17.1.45-.15.86-.65.81-1.23-.05-.64-.12-1.28-.23-1.91,2.6,0,5.22.24,7.79.49.58.06,1.08-.62,1.08-1.28,0-.74-.49-1.23-1.07-1.28-2.78-.26-5.61-.52-8.42-.48-.35-1.03-.84-2.07-.84-3.18,0-1.48-1.74-1.64-2.09-.46-1.29-.17-2.6-.4-3.79-1.02-.61-.32-1.2-.74-1.68-1.29-.14-.16-.26-.32-.37-.49.04-.02.07-.04.11-.06,3-1.48,6.35-1.56,9.54-1.17.96.12,1.91.29,2.85.48-.79.52-1.58,1.03-2.37,1.55-.33.22-.49.54-.53.88-.27.07-.53.16-.78.26-.55.22-.92.88-.76,1.57.15.64.77,1.12,1.32.9,1.68-.69,3.63-.48,5.38-.38,1.89.11,3.77.37,5.63.78.57.13,1.16-.18,1.33-.89.15-.62-.17-1.45-.75-1.58-2.05-.45-4.12-.75-6.21-.88-.36-.02-.74-.05-1.11-.06.85-.56,1.7-1.11,2.55-1.67.77-.5.67-2.13-.25-2.34-3.92-.88-7.94-1.79-11.94-1.22-1,.14-1.99.34-2.96.67-.86.29-1.82.63-2.59,1.18-.51.37-.85,1-.85,1.71,0,.69.31,1.27.66,1.8.52.79,1.19,1.45,1.92,1.97,1.8,1.27,3.88,1.62,5.93,1.88.11.38.24.76.38,1.15-2.66.21-5.28.75-7.81,1.88-.54.24-.92.86-.76,1.57.14.62.78,1.14,1.32.9,2.58-1.15,5.25-1.66,7.96-1.83.12.61.21,1.22.26,1.84.05.66.42,1.22.99,1.28-3.42.4-6.79,1.26-10.05,2.57-.55.22-.92.88-.76,1.57.15.64.77,1.12,1.32.9,1.62-.65,3.27-1.18,4.93-1.6-.02.09-.03.18-.03.28-.03,1.03.42,1.93.7,2.87.25.86.46,1.74.61,2.63.11.68.26,1.5-.01,2.06-.33.68-.8,1.22-1.14,1.91-1.9-.7-3.79-1.46-5.67-2.26-1.15-.49-1.9,1.66-.84,2.34.63.4,1.26.81,1.89,1.21.33.21.66.42.99.63.17.11.45.24.54.42-.01-.02,0-.03,0-.04.04.11,0,.39,0,.51-.03.39-.07.78-.09,1.17-.04.86-.02,1.73.06,2.59.08.82.13,1.74.48,2.48.16.35.38.63.63.85-.36-.13-.77-.05-1.06.3-.39.46-.44,1.35,0,1.81,1.12,1.17,1.59,2.92,1.69,4.62.07,1.24,0,2.47-.05,3.71-.06,1.07-.24,2.33-.01,3.38.12.57.41,1.07.84,1.37.5.34,1.08.28,1.63.22ZM235.78,115.94c-.13-.5-.28-.98-.45-1.46-.14-.41-.34-.83-.33-1.28,0-.29-.05-.53-.16-.72,1.43-.28,2.86-.47,4.3-.59-.02.11-.04.22-.03.34.05,1.25.11,2.49.19,3.74-1.08.4-2.15.79-3.23,1.19-.09-.41-.18-.81-.29-1.21ZM233.73,138.75c-.08-.81-.22-1.63-.43-2.41,2.92.26,5.89-.15,8.68-1.21,0,0,0,0,0,0,1.47,1.9,2.82,3.91,4.07,6.02-2.71,1.76-5.63,3.02-8.66,3.74-.84.2-1.69.36-2.55.47-.4.05-.8.1-1.2.12,0-.02,0-.05,0-.07.01-2.22.31-4.43.1-6.65ZM233.36,145.48s-.08,0-.08,0c.02-.03.05-.02.08,0ZM233.66,145.85s0,.01,0,.01c0,0,0,0,0-.01Z"/><path class="cls-4" d="M243.1,167.4c.05-2.34.1-4.68.06-7.01.09.12.17.25.25.38.35.55.93.84,1.47.46.46-.32.74-1.19.39-1.75-.66-1.05-1.44-1.94-2.27-2.75-.07-.94-.16-1.88-.27-2.82-.09-.74-.2-1.49-.33-2.22-.12-.69-.37-1.45-.96-1.75-.53-.28-1.16-.19-1.48.46-.25.51-.17,1.36.29,1.7.02.09.05.19.06.28.06.33.11.67.16,1.01.06.43.12.87.17,1.3-1.16-.97-2.32-2-3.14-3.34-.34-.56-.93-.84-1.47-.46-.46.32-.73,1.19-.39,1.75,1.09,1.78,2.53,3.09,4.03,4.36.1.08.2.17.31.26-.05.06-.1.13-.15.2-1.48,2.29-3.13,4.41-4.92,6.37-1.02,1.12.5,2.93,1.52,1.82,1.64-1.8,3.15-3.75,4.54-5.81.06,2.53,0,5.06-.05,7.59-.04,1.65,2.12,1.65,2.16,0Z"/><path class="cls-4" d="M228.35,91.85s.02-.05.03-.07c.02,0,.04-.02.07-.03.16-.07.33-.14.47-.25.44-.33.73-.87.73-1.5,0-.98-.53-1.97-1.1-2.63-1-1.15-2.53.66-1.53,1.81.04.05.08.1.12.15-.14.1-.25.24-.33.42-.04.1-.08.2-.12.3-.22.32-.35.71-.35,1.15-.02,1.22,1.53,1.82,2.01.65Z"/><path class="cls-4" d="M205.88,84.6c.07-.24.26-.48.49-.65.37-.27.65-.39,1.09-.53,1.02-.32,2.09-.51,2.98-1.24.48-.39.7-1.12.39-1.75-.27-.56-.99-.86-1.47-.46-.91.75-2.06.76-3.07,1.21-1.13.51-2.07,1.33-2.48,2.73-.19.66.21,1.4.75,1.58.59.19,1.14-.23,1.33-.89Z"/><path class="cls-4" d="M207.64,88.73c0-.08.02-.15.04-.22,0-.01.01-.03.02-.06,0,0,.2-.23.12-.15.26-.24.58-.4.8-.5.9-.43,1.81-.85,2.71-1.27.54-.25.92-.85.76-1.57-.14-.61-.78-1.15-1.32-.9-1.11.52-2.24,1-3.33,1.58-.85.45-1.73,1.25-1.87,2.42-.08.68.14,1.38.75,1.58.5.17,1.25-.2,1.33-.89Z"/><path class="cls-4" d="M222.39,119.4s0,0,0,0c.15-.06.3-.16.45-.23,0,0,0,0,0,0-.33.1-.95.24-.45.24Z"/><path class="cls-4" d="M222.17,122.1c1.25-.25,3.01-1.05,2.93-2.88-.04-.89-.45-1.74-1-2.44-.02-.54-.34-1-.79-1.19-2.12-.86-4.37-1.33-6.62-1.36-.06-.13-.09-.28-.14-.49-.12-.53-.18-1.07-.25-1.61-.17-1.13-.53-2.17-1.1-3.09-.4-.65-.89-1.23-1.38-1.8,1.97.64,3.93,1.31,5.88,1.99.21.9.45,1.78.74,2.64.21.64.72,1.09,1.32.9.51-.17.97-.93.76-1.57-.12-.36-.23-.72-.34-1.09.31.11.63.22.94.34,1.33.48,1.9-1.99.58-2.47-.75-.27-1.5-.54-2.25-.8-.34-1.5-.68-3.01-1.14-4.45,1.43-.41,2.83-.99,4.19-1.58.55-.24.92-.86.76-1.57-.14-.62-.77-1.14-1.32-.9-1.42.63-2.98,1.26-4.56,1.66-.16-.34-.34-.67-.53-.99-.34-.56-.94-.83-1.47-.46-.47.32-.73,1.18-.39,1.75.02.03.03.06.05.09-1.97.12-3.89-.31-5.56-1.8-.68-.61-1.35-1.49-1.66-2.47-.3-.92-.3-2.05.32-2.71.68-.72,1.8-.67,2.65-.69,1.16-.03,2.31.04,3.46.21,2.55.37,5.07,1.27,7.38,2.61,1.07.62,2.2-.92,1.31-2.01-1.46-1.79-3-3.49-4.61-5.09-.45-.44-1.08-.52-1.52,0-.38.45-.45,1.37,0,1.81.29.28.57.57.85.86-.89-.27-1.79-.48-2.71-.64-1.37-.23-2.76-.35-4.14-.31-1.27.03-2.68.11-3.75,1.02-1.08.92-1.66,2.5-1.57,4.07.09,1.58.73,3,1.6,4.16,1.62,2.17,4.04,3.23,6.41,3.49.89.1,1.79.07,2.67-.05.36,1.02.64,2.07.89,3.14-2.73-.94-5.48-1.84-8.23-2.71-.87-.27-1.75.92-1.22,1.88,1.03,1.89,2.78,3.25,3.83,4.95.56.9.72,1.69.88,2.81.05.36.11.73.19,1.09-.63.07-1.25.17-1.87.3-.5.11-1.02.2-1.49.4-.77.33-1.18,1.21-1,2.16.24,1.25,1.14,2.27,2.04,2.9.88.61,1.88.97,2.87,1.27,2.28.68,4.82,1.2,7.16.72ZM215.92,119c-.74-.21-1.57-.45-2.22-.81-.3-.17-.65-.4-.89-.62-.1-.09-.17-.2-.25-.31.01,0,.02,0,.03,0,.44-.11.88-.2,1.32-.27.67-.1,1.35-.16,2.02-.18.24.1.5.11.74,0,0,0,0,0,.01,0,1.63.03,3.23.31,4.79.81.05.05.1.09.16.13.32.2.56.41.8.72.05.06.26.45.39.7.03,0,.05-.02.07-.02,0,0-.01,0-.02.01-.02,0-.03.01-.05.02.06.12.11.2.1.2-.26.02-.44.03-.56.03-.36.14-.72.23-1.09.27-1.78.18-3.65-.18-5.38-.67Z"/><path class="cls-4" d="M217.49,170.42c4.24-2.23,8.67-3.93,13.2-5.13.57-.15.9-.93.76-1.57-.16-.69-.75-1.05-1.32-.9-3.85,1.02-7.62,2.42-11.27,4.17.2-.89.34-1.81.47-2.72.21-1.52.36-3.06.44-4.6,1.98-.55,3.93-1.23,5.79-2.15,1.79-.89,3.44-2.01,4.94-3.48.53-.52.36-1.65-.21-2.01-3.1-1.98-6.54-3.2-9.85-4.59-.55-.23-1.1-.46-1.65-.69-.04-.19-.08-.37-.12-.56-.26-1.2-1.51-1.12-1.96-.31-1.1-.46-2.2-.92-3.3-1.38.07-.2.13-.41.19-.62,2.3.02,4.6-.12,6.89-.43.04.48.08.96.12,1.45.06.69.45,1.28,1.07,1.28.54,0,1.14-.59,1.08-1.28-.16-1.97-.36-3.93-.58-5.89-.08-.7-.16-1.39-.26-2.08.82-.3,1.62-.68,2.4-1.11,1.28-.7,2.6-1.49,3.76-2.44.79-.64,1.17-1.63.74-2.73-.32-.83-.79-1.61-1.19-2.4-.92-1.82-1.84-3.64-2.77-5.46-.72-1.41-2.59-.13-1.86,1.29.91,1.79,1.82,3.58,2.72,5.37.24.48.48.96.72,1.43.08.15.16.31.23.46-.22.15-.53.4-.63.47-.36.24-.71.48-1.07.72-1.14.74-2.36,1.44-3.62,1.92-.08-.24-.17-.49-.26-.72-.26-.62-1-.79-1.47-.46-.53.37-.65,1.13-.39,1.75,0,0,0,.01,0,.02-.52.08-1.04.12-1.56.09.62-1.46.78-3.21.72-4.83-.02-.5-.04-1-.07-1.51,1.36-.2,2.72-.35,4.09-.43.58-.04,1.08-.56,1.08-1.28,0-.66-.49-1.32-1.07-1.28-1.45.09-2.91.25-4.35.46-.18-1.12-.45-2.21-.91-3.2-.67-1.44-2.54-.16-1.86,1.29.32.69.52,1.47.66,2.27-2.89.54-5.74,1.33-8.54,2.35-1.32.49-.76,2.96.57,2.47.22-.08.44-.16.66-.23-.23.4-.3.96-.06,1.37,1.2,2.02,2.13,4.23,2.73,6.6.27,1.08.58,2.23.35,3.36-.08.38-.18.74-.29,1.1-.39-.16-.77-.32-1.16-.49-.55-.23-1.18.26-1.33.89-.17.71.2,1.35.75,1.58.34.14.68.29,1.02.43,0,0,0,.01,0,.02-.32,1.55,1.62,2.24,2.04.83,1.41.59,2.83,1.19,4.24,1.78.51,2.93.76,5.91.73,8.9-2.31.58-4.64,1.01-6.98,1.36-1.9.28-3.86.52-5.77.18-.57-.1-1.16.17-1.33.89-.14.6.17,1.47.75,1.58,1.89.34,3.76.27,5.65.02,1.86-.25,3.71-.57,5.55-.95.68-.14,1.35-.29,2.03-.44-.07,1.09-.17,2.18-.32,3.26-.24,1.75-.49,3.61-1.23,5.18-.23.5-.18,1.14.16,1.55.36.43.86.44,1.31.2ZM213.46,138.68c-.65-2.63-1.66-5.15-2.99-7.39-.14-.23-.32-.41-.52-.52,2.07-.67,4.16-1.21,6.27-1.61.02.32.03.64.04.94.09,1.83-.03,3.82-1.31,5.07-.64.62-.26,1.92.47,2.14,1.48.46,2.98.47,4.45.2.1.73.17,1.47.25,2.17.05.41.09.82.13,1.23-2.11.27-4.23.41-6.35.4-.05-.89-.22-1.76-.43-2.63ZM219.29,149.67c.13.06.26.11.39.17,2.66,1.12,5.41,2.11,7.99,3.51-2.08,1.61-4.48,2.6-6.86,3.35-.33.1-.66.2-.99.3,0-2.45-.18-4.91-.53-7.33Z"/><path class="cls-4" d="M231.27,143.32c0-.73-.49-1.24-1.07-1.28-.94-.06-1.87-.13-2.81-.19-.83-.06-1.64-.07-2.42-.42-.54-.24-1.18.27-1.33.89-.17.72.2,1.33.75,1.58.9.4,1.87.44,2.82.5.99.07,1.99.14,2.98.2.58.04,1.08-.61,1.08-1.28Z"/><path class="cls-4" d="M192.52,131.51c1.38-1.27,3.13-1.94,4.87-1.97,1.39-.03,1.4-2.59,0-2.56-2.35.04-4.54,1.02-6.4,2.72-.46.42-.38,1.36,0,1.81.45.54,1.06.43,1.52,0Z"/><path class="cls-4" d="M199.3,163.18c1.33-3.3,2.66-6.62,3.64-10.09,1-3.55,1.5-7.23,1.68-10.96.18-3.73.07-7.47.08-11.21,0-2.32.09-4.63.18-6.95,1.23.11,2.51.41,3.46,1.38,1.04,1.07,2.47-.58,1.53-1.81-1.38-1.81-3.28-2.87-4.8-4.46.19-6.83-.1-14.21-3.09-20.24-.68-1.36-1.55-2.64-2.69-3.48-.59-.44-1.34-.85-2.05-.76-.94.12-1.36.99-1.56,1.99-.7,3.6.19,7.27,1.35,10.59,1.19,3.39,2.55,6.75,4.07,9.96.5,1.06,1.08,2.08,1.78,2.98-.01.4-.03.81-.05,1.21-.51-.01-1.02-.02-1.53-.04-1.75-.08-3.5-.39-5.26-.28-1.73.11-3.35.68-4.87,1.65-1.63,1.04-3.07,2.45-4.5,3.83-.45.44-.39,1.36,0,1.81.44.53,1.07.44,1.52,0,2.14-2.08,4.49-4.35,7.34-4.68,1.64-.19,3.28.06,4.92.18.76.06,1.52.07,2.28.08-.08,1.9-.15,3.8-.17,5.7-.04,3.5.07,7-.02,10.49-.08,3.42-.35,6.83-1.11,10.14-.74,3.23-1.85,6.3-3.04,9.32-.31.78-.62,1.56-.93,2.34-.25.62-.15,1.38.38,1.75.47.33,1.22.17,1.48-.46ZM200.24,109.48c-1.18-2.93-2.45-6.09-2.63-9.38-.04-.74-.04-1.5.05-2.24.03-.19.06-.38.09-.57.03.02.06.03.09.05.95.58,1.64,1.57,2.19,2.65,2.4,4.71,2.92,10.41,2.92,15.88-.27-.58-.52-1.16-.76-1.74-.66-1.55-1.33-3.09-1.96-4.66Z"/><path class="cls-3" d="M119.67,64c-.32.02-.68.03-.88-.28-.25-.46-.76-2.7-1.04-2.92-.27-.21-.43.02-.69,0-.14-.01-.92-.11-.96-.14-.13-.1-.14-.83-.38-1.08-.12-.13-.31-.11-.37-.18s-.05-.27-.17-.4-.43-.18-.5-.31c-.12-.22-.13-1.27-.27-1.47-.11-.16-.68-.03-.82-.34-.13-.28,0-.76-.07-1.1s-.5-.78-.6-1.16c-.08-.29-.02-.56-.06-.76-.03-.1-.52-.31-.58-.58-.04-.2.14-.59.08-.93-.05-.27-.28-.33-.37-.56-.1-.26-.24-1.24-.3-1.6-.44-2.83-.45-7.05-.02-9.87.04-.28.25-.41.29-.65.06-.32-.06-.74.02-1.04.07-.26.44-.3.52-.5.13-.28.07-.89.17-1.2.06-.19.27-.3.38-.55.17-.4.12-.97.26-1.31.06-.16.3-.51.46-.9.29-.69.64-.85.81-1.16.13-.24.17-1.04.3-1.28.11-.21.76-.27.91-.45.13-.16.11-.56.22-.75.09-.16.43-.25.58-.58.14-.31.08-1.22.46-1.21.19,0,.28.35.5.12.19-.19.16-.63.34-.92.32-.53.85-.33.89-.37.02-.03-.05-.36.05-.53.04-.07.96-1.04,1.04-1.12.35-.3.95-.31,1.14-.47s.12-.6.46-.78c.28-.15.84-.1,1.06-.24.18-.12.21-.57.32-.66.18-.16.96-.18,1.24-.31.18-.09.33-.57.64-.7s.65-.01.94-.16c.21-.1.26-.41.48-.55.35-.23.94-.16,1.25-.33.13-.07.14-.3.37-.38.36-.13.83.05,1.13-.06.17-.06.19-.33.3-.42.4-.33,1.51.07,1.97,0s1.12-.57,1.42-.62.56.16.94.07c.29-.07.35-.36.71-.41.39-.06,2.12-.07,2.47,0,.22.05.28.27.5.32.29.06.67-.04.98,0,1.34.22,2.58.71,3.96.94.83.14.7.14,1.4.41.28.11.76.05,1.04.16.21.08.52.5.89.64.25.09.53.05.74.16.19.1.21.36.39.43.27.12,1.11.26,1.31.4.17.11.23.6.32.67.12.09.78.15,1.04.32.37.24.31.76.92.93.17.05.3-.08.53.06.3.19.39.7.66.89.37.26,1.16.06,1.33.38.14.26-.05.66.14,1.02.16.3.77.39,1.1.73.37.39.46,1.05.69,1.28s.88.37,1.09.67c.17.25.17.65.31.92.29.57,1.12,1.34,1.39,1.91.24.49.14,1.15.33,1.56.1.21.34.26.43.38,1.07,1.45.92,3.11,1.44,4.74.1.32.4.75.51,1.15.47,1.65.19,3.75.43,5.39.11.73.51.58.27,1.8-.07.34-.31.3-.36.46-.1.33.03.93-.04,1.35-.2,1.12-.88,2.13-1.05,3.34-.07.49.01,1.52-.26,1.96-.11.17-.35.15-.42.24-.15.19-.14,1.02-.37,1.36-.16.24-.5.28-.59.43-.16.28-.08,1.04-.3,1.38-.15.22-.65.36-.78.65-.08.18-.05.41-.13.61-.11.27-.41.77-.59,1.17-.09.21-.33.23-.4.42-.05.12-.07.64-.12.67-.03.02-.52-.19-.69,0-.22.25.37.19.45.31.45.66-.63.53-.95.33-.01-.6.06-.79-.64-.86-2.31-.22-2.28,3.15-2.43,4.8-.47.04-.29.63-.77.73-.4.08-.41-.27-.64-.28-.41,0-1.73.22-2.09.41-.32.18-1.05,1.08-1.13,1.45-.08.39.32.93-.41,1.2-.15-.03-.64.04-.69,0-.02-.02.13-.33-.32-.21-.08.02-.26.37-.29.39-.39.19-.21-.15-.32-.39-.17-.37-.82-.02-1.18-.22-.5.23-1.3,0-1.76.22-.15.07-.14.39-.32.54s-.55.1-.66.28-.15.96-.19,1c-.05.05-.34-.2-.39,0-.02-.06-.07-.16-.1-.21.35-.55.23-.95-.2-.32-.09-.09-.43-.18-.59-.43-.31-.45-.2-.59-.8-1-1.48-.98-2.55-.01-3.05,1.53-.2-.02-.44.05-.63-.02-.13-.05-.14-.23-.23-.31-.28-.21-.37.08-.58.11-.44.07-1.16,0-1.65.13-.27.06-.37.35-.61.4-1.03.21-1.49-.2-2.31-.38-.43-.09-1.36-.06-1.71-.26-.13-.08-.13-.29-.27-.37-.52-.29-1.64-.53-2.2-.72-.25-.08-.5-.67-.96-.51-.07-.49-.03-1.16-.11-1.64-.18-1.19-.94-3.38-2-3.92-.91-.47-1.51-.03-2.34.02ZM121.85,31.08c-.68.09-.11.95-.2,1.06l-.39-.32c.15.89-.34.33-.74.65-.21.17-.11.45-.25.58-.17.16-.99.22-.99.85,0,.3.65.41-.03.93-.2.15-.64.24-.74.32-.05.04-.6,1-.61,1.09,0,.25.22.6.17.84-.07.33-.58.28-.69.46-.14.23-.04.58-.11.81-.03.11-.74.79-.22.92.46.11.28-.56.38-.74.19-.33.38.04.3.43-.26,1.27-.33.72-1.1,1.05-.34.15-.3,1.1-.36,1.53-.06.47-.24.72-.18,1.31.06.52.46,1.4.5,1.82.03.37-.21.82-.2,1.27s.16,1.2.23,1.68c.03.19.18.4.17.57,0,.34-.46.28-.5.44-.04.16-.02.95,0,1.16.04.34.21.5.27.77.08.35.07.85.15,1.12.07.25.39.26.46.46.1.31.02,1,.16,1.31.08.18.4.24.49.43.17.35.19,1.24.34,1.52.03.05.76.73.8.76.16.09.46.08.56.19.12.13.06.5.22.67.18.2.88.23.79.9h-.4c-.05.32.15.59.33.81.73.88,1.56,1.83,2.38,2.6.15.14.93.64,1.08.64s.33-.13.5-.11c.21.02.63.46.94.43.18.31-.61.54-.14.74.37.16.1-.54.64-.32.07.31-.34.22-.3.47.11.77.66.61,1.1.75.21.07.56.54.79.33.13-.12-.03-.6.62-.36.15.06.16.29.26.35.13.09.56.02.59.22s-.52.38.23.82c.52.3.9.21,1.4.3.15.03.26.18.4.2.31.05.68-.06.96.03.23.07.31.45.62.51.18.04,1.95.08,2.02,0,.06-.07-.17-.54.29-.7.25-.09,1.88-.09,1.98.06.37.58-1.79-.01-1.48.74h2.22c.21,0,0-.69.44-.81.57-.16.38.63.74.71.77.17.38-.69.89-.75.44-.05.45.35.6.41.6.21.82-.23,1.18-.3.46-.09,1.14-.05,1.6-.35.07-.05.09-.24.25-.32.22-.11.6-.02.72-.29s-.07-.53.21-.73c.4-.28.51.03.78.09.11.02,1.23-.21,1.33-.26.05-.03.8-.85.84-.91.18-.34-.05-.83.61-.96.31-.06.17.21.38.22.92.08,1.34-.9,1.88-1.51.37-.41,1.08-1.32,1.38-1.6.18-.17.44-.22.56-.36.16-.19.13-.56.21-.67s.43-.08.53-.23c.1-.17.08-.9.3-1.28.2-.35.79-.83,1.08-1.07.45-.37.16-.99.27-1.52.07-.32.34-.43.45-.69.15-.36.42-1.75.31-2.09-.05-.15-.26-.14-.28-.25-.05-.19-.01-1.31.09-1.46s.85.02.9-.24c.12-.58-.04-1.82.09-2.49-.85.4-.85-1.04,0-.64.13-.15-.1-1.85-.11-2.18s.18-.77.1-1.05-.61-.19-.73-.39c-.09-.14-.04-.43-.11-.62-.06-.16-.27-.16-.32-.3-.18-.57.35-.62.38-.75.04-.17-.04-1.45-.11-1.52s-.84.12-1.09-.16c-.05-.05-.28-1.07-.42-1.36-.15-.33-.53-.43-.36-.97.08-.24.41-.08.38-.65-.02-.42-.36-.43-.56-.78-.25-.45-.08-.9-.23-1.13s-.47-.18-.63-.38-.11-.67-.35-.8-.88.18-.99.06c-.02-.03.02-.54-.04-.75-.13-.46-1.59-2.08-1.98-2.45-.35-.33-.91-.98-1.37-.85-.11.03-.31.86-.8.08-.3-.49.04-.93-.56-1.19-.49-.21-.35.11-.49.21-.17.12-1.19-.06-.94-.38.07-.08.56-.38.15-.69-.09-.07-1.1-.32-1.31-.39-.64-.24-1.23-.33-1.79-.52-.13-.05-.14-.25-.23-.31-.32-.19-.78-.22-1.11-.37-.14-.06-.21-.29-.37-.34-.33-.11-.81.07-1.15-.04-.17-.06-.24-.29-.37-.35-.3-.15-5.16-.09-5.88-.06-.53.03-1.1.18-1.66.13-.34.11-.3.66-.46.78-.28.21-.26,0-.65.47-.06.08-.21.1-.22.13-.05.1.15.41.09.51-.03.04-.41.07-.51.12-.13.06,0,.2-.37.2-.55,0-.65-.3-1.09-.48-2.98-1.21-5.5,1.47-5.83,4.53Z"/><path class="cls-6" d="M107.52,47.81c.02-.18.27-.52.2-.8-.53-.04-.14-.35-.19-.86-.02-.2-.2-.16-.21-.21-.08-.34.19-.26.25-.37.14-.23-.13-.41-.16-.69-.09-.87.16-3.32.33-4.24.04-.22.23-.4.27-.67.05-.36-.05-.78.03-1.14.06-.27.44-.52.47-.78.04-.35-.13-.84,0-1.35.02-.07.25-.17.33-.41.96-2.71,1.92-5.18,3.54-7.59,7.75-11.53,22.08-15.58,34.26-10.24,2.7,1.18,4.82,2.44,7.06,4.42.38.33.77.53,1.16.77.59.37,1.57,1.8,2.1,2.42.46.54.95.85,1.34,1.54.09.16.06.4.11.47.03.04.51.3.67.53.25.36.16.85.19.88.04.04.43-.06.57.02.21.13.2,1.08.61,1.23l.7,1.52c0,.14,0,.29,0,.43,0,.05-.29.26.1.21.72,4.21,1.41,7.6,1.18,11.98-.2,4.02-1.53,7.57-2.34,11.43-.64,3.04-1,5.54-1.12,8.76-.4.06-.5.8-.65,1.06-.33.56-1.51,2.24-2.09,2.34-.22.03-.34-.09-.46-.09-.04,0-.32.4-.65.32.07-1.36.33-2.77-.01-4.09-.13-.52-.29-1-.88-1.02.03-.1,0-.58,0-.75.32.2,1.4.33.95-.33-.08-.12-.67-.06-.45-.31.17-.19.66.02.69,0,.05-.04.07-.55.12-.67.07-.19.31-.21.4-.42.18-.41.48-.91.59-1.17.08-.2.05-.43.13-.61.13-.29.63-.43.78-.65.22-.34.14-1.1.3-1.38.09-.15.43-.19.59-.43.23-.34.22-1.17.37-1.36.07-.09.31-.07.42-.24.27-.43.19-1.47.26-1.96.17-1.21.86-2.22,1.05-3.34.07-.42-.06-1.02.04-1.35.05-.16.29-.12.36-.46.24-1.22-.16-1.07-.27-1.8-.24-1.64.04-3.74-.43-5.39-.12-.41-.41-.83-.51-1.15-.52-1.62-.36-3.29-1.44-4.74-.1-.13-.33-.17-.43-.38-.19-.41-.1-1.07-.33-1.56-.27-.57-1.1-1.34-1.39-1.91-.14-.27-.14-.67-.31-.92-.21-.3-.86-.44-1.09-.67s-.33-.89-.69-1.28c-.33-.35-.93-.44-1.1-.73-.2-.36,0-.76-.14-1.02-.17-.32-.96-.12-1.33-.38-.27-.19-.36-.7-.66-.89-.23-.14-.35-.01-.53-.06-.61-.17-.55-.7-.92-.93-.26-.17-.92-.23-1.04-.32-.09-.07-.15-.56-.32-.67-.21-.13-1.04-.28-1.31-.4-.17-.08-.2-.34-.39-.43-.21-.11-.49-.07-.74-.16-.37-.14-.68-.56-.89-.64-.28-.1-.76-.05-1.04-.16-.7-.27-.57-.27-1.4-.41-1.38-.24-2.63-.73-3.96-.94-.31-.05-.69.05-.98,0-.22-.05-.28-.27-.5-.32-.35-.07-2.09-.06-2.47,0-.36.05-.42.34-.71.41-.38.09-.65-.12-.94-.07s-.95.56-1.42.62-1.57-.33-1.97,0c-.11.09-.14.35-.3.42-.29.11-.77-.07-1.13.06-.23.08-.24.31-.37.38-.31.17-.9.11-1.25.33-.22.14-.27.44-.48.55-.29.14-.62.02-.94.16s-.46.61-.64.7c-.27.13-1.05.15-1.24.31-.11.1-.15.55-.32.66-.22.14-.78.09-1.06.24-.34.18-.26.62-.46.78s-.79.17-1.14.47c-.09.08-1,1.05-1.04,1.12-.1.17-.02.51-.05.53-.04.04-.57-.16-.89.37-.18.29-.15.73-.34.92-.22.23-.31-.11-.5-.12-.38-.02-.33.89-.46,1.21-.15.33-.49.42-.58.58-.11.2-.08.59-.22.75-.15.18-.8.25-.91.45-.13.23-.17,1.03-.3,1.28-.16.3-.52.46-.81,1.16-.16.38-.4.74-.46.9-.13.34-.09.91-.26,1.31-.11.25-.32.36-.38.55-.1.31-.04.92-.17,1.2-.09.2-.45.24-.52.5-.09.3.03.72-.02,1.04-.04.24-.24.37-.29.65-.43,2.82-.41,7.04.02,9.87.05.36.2,1.33.3,1.6.09.24.32.29.37.56.06.35-.12.73-.08.93.06.27.55.47.58.58.05.19-.01.47.06.76.1.38.54.83.6,1.16s-.06.82.07,1.1c.14.31.71.18.82.34.13.2.15,1.25.27,1.47.08.14.38.18.5.31s.11.34.17.4.25.05.37.18c.24.25.25.98.38,1.08.04.03.81.13.96.14.25.02.42-.21.69,0,.29.23.79,2.46,1.04,2.92.2.32.56.3.88.28l-.84.85c-.8.97-.65,2.89-.64,4.16-.95-.37-1.85.4-2.43-.74-.42-.83-.82-1.8-1.22-2.64-.12-.24,0-.81-.5-.98,0-.03,0-.07,0-.11-.02-.2.07-.24-.2-.21.03-.01.49-.5.52-.56.63-1.2.42-2.89.56-4.23-.21-.03-.26-.01-.38.17-.45.68-.57,2.01-1.29,2.73-.17.17-.36.15-.4.19.02-.22-.3-.4-.45-.53-1.71-1.44-1.44-1.5-2.07-3.63-.1-.34-.35-.61-.42-.82-.09-.29.07-1-.42-.88,0-.28.01-.57,0-.85,0-.18.07-.47-.1-.53h-.1c0-.11,0-.21,0-.32-.05-.6-.2-1.17-.3-1.76-.05-.29.1-.29-.29-.26-.01-.06,0-.14,0-.21-.02-.15.14-.5-.2-.43-.02-.06.02-.15,0-.21.18-.17.12-.25-.1-.21-.21-.83-.98-3.48-.89-4.15Z"/><path class="cls-5" d="M107.52,47.81c-.12-.12-.15-.34-.17-.51-2.7-19.86,13.63-35.83,31.71-33.02,7.58,1.18,15.33,6.15,19.82,13.04.88,1.35,1.92,3.14,2.29,4.51l-.08.07c-.02.12.08.26.08.36l-.7-1.52c-.41-.15-.4-1.1-.61-1.23-.15-.09-.53.02-.57-.02-.03-.03.06-.52-.19-.88-.16-.22-.64-.49-.67-.53-.05-.07-.02-.31-.11-.47-.39-.69-.88-1-1.34-1.54-.53-.62-1.51-2.05-2.1-2.42-.39-.24-.78-.44-1.16-.77-2.24-1.98-4.37-3.24-7.06-4.42-12.19-5.34-26.51-1.29-34.26,10.24-1.62,2.41-2.57,4.88-3.54,7.59-.08.23-.31.33-.33.41-.14.52.04,1,0,1.35-.03.25-.41.5-.47.78-.08.36.02.77-.03,1.14-.04.27-.23.45-.27.67-.17.92-.42,3.37-.33,4.24.03.29.3.47.16.69-.07.1-.34.03-.25.37.01.05.19,0,.21.21.05.5-.34.82.19.86.07.27-.18.62-.2.8Z"/><path class="cls-5" d="M159.19,73.91s-.07.07-.1.11c-.37.38-.68.49-1.19.53-.01-.16-.28-.16-.3,0-.08,0-.56,0-.59,0-.06-.36.25-.15.47-.25.06-.03.38-.54.44-.64,1.18-2.26.97-6.01,1.07-8.59.12-3.21.48-5.72,1.12-8.76.81-3.86,2.14-7.41,2.34-11.43.22-4.39-.46-7.78-1.18-11.98-.01-.09,0-.18-.1-.21,0-.14,0-.29,0-.43,0-.1-.1-.24-.08-.36l.08-.07c.16.58.71,1.42.96,2.1.99,2.65,1.68,6.17,1.81,9.02.33,7.52-2.95,13.92-3.27,21.31-.1,2.24.45,8.45-1.48,9.65Z"/><path class="cls-5" d="M151.19,66.77c.15-1.66.12-5.02,2.43-4.8.69.07.62.26.64.86,0,.17.03.65,0,.75,0,.02-.24.16-.33.33-1.33,2.53-.55,5.3-2.06,7.69-.93,1.48-3.06,2.41-4.56,1.33-.32-.23-.82-1.09-1.15-.89-.24.14-.46,1.47-.49,1.82-.17,2.09.84,7.76-1.98,8.04-.14-.2-.48-.08-.69-.11-.09-.02-.15-.09-.2-.11.4-.3.66-.54.89-1.01.81-1.6.34-3.58.29-5.28s-.07-4.18,1.48-5.11c.06.04.54-.03.69,0,.6.13,1.34,1.13,1.99,1.31.83.23,1.51.05,2.05-.65,1.03-1.34.85-2.56.99-4.18Z"/><path class="cls-5" d="M124.12,69.54c.21,1.45.96,3.92,2.53,4.15s1.85-.5,2.98-.71c1.26-.23,1.78.51,1.11,1.68-.15,0-.37.17-.49.21-1.51.47-2.86,1.09-4.44.48s-2.45-2.55-2.84-4.18c-.37-1.54-.18-5-2-5.35l-.14-.1-.06.1c-.09,0-.21-.02-.3,0-.14-.2-.24-.12-.2.11-.24.11-.24.06-.4.32-.45.74-.3,2.68-.3,3.62,0,.14,0,.28,0,.43-.15.04-.15.39,0,.43,0,.14,0,.29,0,.43-.42-.06-.11.32-.1.43,0,.07,0,.14,0,.21-.23-.04-.28.04-.1.21-.02.13.03.32,0,.43-.31-.04-.4.58-.4.85-.03.06-.04.13-.1.21-.1.14-.32.23-.3.53-.03.03-.07.07-.1.11l-.1.11c-.07.07-.13.14-.2.21-.25-.09-.16-.21-.14-.4.2-1.93.16-3.14.14-5.03-.01-1.26-.16-3.19.64-4.16l.84-.85c.83-.05,1.43-.49,2.34-.02,1.06.54,1.81,2.73,2,3.92.07.49.04,1.15.11,1.64Z"/><path class="cls-5" d="M139.14,70.93c-1.41-.5-2.45.23-2.74,1.78-.68,3.59,2.26,11.08-1.85,13.13-.76.38-1.55.62-2.32.21l-.2-.11c-.07-.05-.34-.35-.4-.43l-.1-.11c-.1-.2-.13-.57-.2-.75.36-1.35,1.82-1.19,2.52-1.81,1.27-1.12,1.25-3.64,1.23-5.22,0-.25.02-.5,0-.75,0-.09,0-.18-.1-.21.04-.36-.09-.67-.1-1.01-.04-1.47-.05-2.81.4-4.21.5-1.54,1.57-2.51,3.05-1.53.61.4.49.54.8,1Z"/><path class="cls-8" d="M114.04,64.64c.5.18.39.74.5.98.4.84.8,1.81,1.22,2.64.58,1.14,1.47.37,2.43.74.02,1.89.06,3.1-.14,5.03-.02.19-.11.32.14.4-.01.01.03.14-.06.22-1.04.86-2.61.14-3.11-1.11-.78-1.95-1.15-6.81-.97-8.91Z"/><path class="cls-8" d="M158.99,65.07c-.1,2.58.11,6.34-1.07,8.59-.05.1-.38.62-.44.64-.22.09-.53-.12-.47.25-2.3-.37-1.97-4.1-1.88-5.86.33.08.61-.32.65-.32.12,0,.24.13.46.09.58-.09,1.77-1.77,2.09-2.34.15-.26.25-.99.65-1.06Z"/><path class="cls-6" d="M140.03,71.88c.05-.2.35.05.39,0,.04-.03.09-.82.19-1s.47-.13.66-.28.17-.46.32-.54c.46-.23,1.25,0,1.76-.22.36.21,1.01-.15,1.18.22.11.24-.07.58.32.39.03-.02.22-.37.29-.39.45-.12.3.19.32.21-1.55.93-1.53,3.43-1.48,5.11-.34.01-.27.37-.5.58-.18.17-.68.38-.92.37-.11,0-.98-.22-1.05-.26-.17-.1-.21-.39-.34-.49-.27-.21-.93-.09-1.04-.63.01-.25-.02-.5,0-.75.4.05.1-.23.1-.32-.03-.41.04-.87,0-1.28l.1-.06-.1-.16s-.17-.46-.2-.53Z"/><path class="cls-8" d="M140.12,74.97c.11.54.77.42,1.04.63.13.1.17.39.34.49.07.04.94.26,1.05.26.24.01.74-.2.92-.37.23-.21.16-.57.5-.58.05,1.7.51,3.68-.29,5.28-.24.47-.49.71-.89,1.01-3.14-1.11-2.82-3.72-2.67-6.71Z"/><path class="cls-8" d="M130.74,74.65c.43-.03.31.23.41.31.07.05.24-.11.32-.09.28.06.1.69.15.89.03.12.23,0,.31.12.19.28.04,1.12.08,1.49.05.41.15,1.03.23,1.46.06.38.55,1.43.87,1.61,1,.57.87-.23,1.19-.72.11-.17.32-.21.41-.41.13-.29.14-.96.17-1.31.02-.2-.12-.43.19-.37.01,1.59.03,4.1-1.23,5.22-.7.62-2.16.46-2.52,1.81,0-.01-.13.07-.22-.14-.49-1.24-.32-5.6-.28-7.16,0-.42.28-2.25.01-2.45-.13-.1-.43-.03-.6-.05.13-.04.35-.2.49-.21Z"/><path class="cls-8" d="M109.5,56.76c.49-.13.33.59.42.88.07.22.32.48.42.82.63,2.13.36,2.19,2.07,3.63.15.13.47.3.45.53-.01,0,.02.15-.03.18-.81.65-1.73.68-2.74.57-.19.21.5.74.66.84.86.52,1.78.4,2.68.15.15-.04.34,0,.42-.02.27-.03.18,0,.2.21-2.09.4-3.77.57-4.65-1.86-.61-1.68-.12-2.63,0-4.21.12-.07.17-.3,0-.32.03-.34-.02-.72,0-1.07,0-.02.09-.14.1-.32Z"/><path class="cls-5" d="M119.57,69.86c0-.94-.15-2.89.3-3.62-.2,1.2.04,2.44-.3,3.62Z"/><path class="cls-8" d="M108.71,53.03c.4-.03.25-.02.29.26.1.59.24,1.16.3,1.76-.32.06-.16-.18-.2-.37-.11-.55-.3-1.12-.4-1.66Z"/><path class="cls-6" d="M109.5,55.9c.01.28,0,.57,0,.85,0,.18-.1.3-.1.32-.06-.39-.08-.78-.1-1.17h.2Z"/><path class="cls-3" d="M139.73,71.35c.43-.63.55-.23.2.32-.02-.03-.18-.31-.2-.32Z"/><path class="cls-5" d="M119.38,72.42c-.1.39-.24.56-.4.85,0-.28.08-.89.4-.85Z"/><path class="cls-5" d="M118.88,73.48c.07.49-.22.46-.3.53-.02-.3.2-.39.3-.53Z"/><path class="cls-5" d="M119.57,71.14c0,.16.03.3-.1.43,0-.11-.32-.49.1-.43Z"/><path class="cls-6" d="M109.5,55.9h-.2c0-.11,0-.21,0-.32l.1-.21c.17.06.09.36.1.53Z"/><path class="cls-6" d="M108.51,52.39c.34-.08.18.28.2.43-.17-.1-.15-.26-.2-.43Z"/><path class="cls-5" d="M143.68,81.9c-.34.03-.43-.04-.69-.11.22.03.55-.1.69.11Z"/><path class="cls-5" d="M119.57,70.71c-.15-.03-.15-.38,0-.43,0,.12,0,.27,0,.43Z"/><path class="cls-6" d="M140.22,73.91c0,.09.3.37-.1.32,0-.11.05-.22.1-.32Z"/><path class="cls-5" d="M120.46,65.81s-.12.07-.2.11c-.04-.23.06-.31.2-.11Z"/><path class="cls-6" d="M109.4,55.37l-.1.21c0-.08,0-.2,0-.21h.1Z"/><path class="cls-6" d="M108.41,51.96c.22-.04.28.05.1.21,0-.01-.07-.08-.1-.21Z"/><path class="cls-5" d="M119.48,71.78c0,.19-.1.2-.1.21-.18-.17-.13-.25.1-.21Z"/><path class="cls-6" d="M109.4,58.46c0-.11,0-.21,0-.32.17.02.12.25,0,.32Z"/><path class="cls-5" d="M157.91,74.55c-.1,0-.2,0-.3,0,.01-.16.28-.16.3,0Z"/><path class="cls-5" d="M120.96,65.81c-.06-.01-.13,0-.2,0l.06-.1.14.1Z"/><path class="cls-6" d="M140.22,72.63c0-.07.01-.15,0-.21l.1.16-.1.06Z"/><path class="cls-2" d="M132.22,86.05c-.07-.04-.11-.04-.2-.11l.2.11Z"/><path class="cls-5" d="M118.39,74.23l.1-.11s-.07.07-.1.11Z"/><path class="cls-5" d="M159.09,74.01s.06-.08.1-.11c-.03.04-.07.07-.1.11Z"/><path class="cls-2" d="M131.63,85.52s-.08-.06-.1-.11l.1.11Z"/><path class="cls-3" d="M128.76,27.04c.38,0,.24-.14.37-.2.1-.05.49-.08.51-.12.07-.1-.14-.41-.09-.51.01-.03.16-.06.22-.13.39-.48.37-.26.65-.47.16-.12.13-.67.46-.78.56.05,1.13-.11,1.66-.13.72-.03,5.58-.09,5.88.06.13.06.2.29.37.35.33.11.81-.07,1.15.04.16.05.24.28.37.34.32.16.79.19,1.11.37.09.05.1.26.23.31.56.2,1.15.29,1.79.52.21.08,1.23.33,1.31.39.41.31-.09.61-.15.69-.25.32.77.5.94.38.14-.1,0-.42.49-.21.61.26.26.71.56,1.19.48.78.69-.05.8-.08.46-.12,1.02.52,1.37.85.38.37,1.84,1.99,1.98,2.45.06.21.02.73.04.75.11.12.75-.19.99-.06s.18.59.35.8.48.15.63.38-.02.68.23,1.13c.2.36.54.37.56.78.03.56-.3.41-.38.65-.18.53.2.64.36.97.14.3.37,1.31.42,1.36.25.28,1.02.09,1.09.16s.14,1.35.11,1.52c-.03.13-.56.19-.38.75.05.14.25.14.32.3.07.18.03.48.11.62.12.19.64.12.73.39s-.1.72-.1,1.05.24,2.04.11,2.18c-.85-.4-.85,1.04,0,.64-.13.67.03,1.91-.09,2.49-.06.26-.81.09-.9.24s-.14,1.27-.09,1.46c.03.11.24.1.28.25.11.34-.16,1.73-.31,2.09-.1.26-.38.37-.45.69-.11.53.18,1.15-.27,1.52-.29.24-.88.73-1.08,1.07-.22.37-.2,1.11-.3,1.28-.09.15-.44.12-.53.23s-.06.48-.21.67c-.11.14-.37.19-.56.36-.3.29-1.01,1.19-1.38,1.6-.54.6-.96,1.59-1.88,1.51-.21-.02-.07-.28-.38-.22-.66.13-.42.62-.61.96-.03.06-.78.88-.84.91-.1.05-1.22.28-1.33.26-.27-.05-.38-.36-.78-.09-.28.2-.09.46-.21.73s-.5.18-.72.29c-.16.08-.18.27-.25.32-.46.31-1.14.26-1.6.35-.36.07-.58.51-1.18.3-.15-.06-.17-.46-.6-.41-.52.06-.12.92-.89.75-.36-.08-.17-.87-.74-.71-.43.12-.23.81-.44.81h-2.22c-.31-.76,1.86-.17,1.48-.74-.1-.15-1.73-.15-1.98-.06-.46.16-.23.63-.29.7-.07.08-1.84.03-2.02,0-.3-.06-.39-.44-.62-.51-.28-.09-.66.02-.96-.03-.15-.02-.25-.17-.4-.2-.5-.09-.88,0-1.4-.3-.75-.44-.19-.62-.23-.82s-.46-.13-.59-.22c-.1-.07-.11-.3-.26-.35-.65-.24-.48.24-.62.36-.23.21-.58-.27-.79-.33-.43-.14-.98.02-1.1-.75-.04-.26.37-.16.3-.47-.55-.22-.27.48-.64.32-.47-.2.33-.43.14-.74-.31.03-.73-.41-.94-.43-.16-.01-.33.11-.5.11s-.94-.51-1.08-.64c-.82-.77-1.66-1.72-2.38-2.6-.19-.22-.39-.49-.33-.81h.4c.08-.67-.61-.71-.79-.9-.15-.17-.09-.54-.22-.67-.1-.11-.4-.1-.56-.19-.05-.03-.78-.71-.8-.76-.15-.28-.17-1.17-.34-1.52-.09-.19-.41-.25-.49-.43-.14-.32-.07-1.01-.16-1.31-.07-.21-.39-.21-.46-.46-.08-.27-.07-.77-.15-1.12-.06-.27-.23-.43-.27-.77-.02-.2-.04-.99,0-1.16.03-.15.49-.1.5-.44,0-.17-.14-.38-.17-.57-.07-.47-.22-1.25-.23-1.68s.24-.9.2-1.27c-.04-.41-.44-1.3-.5-1.82-.07-.59.11-.84.18-1.31.06-.43.02-1.38.36-1.53.77-.34.84.21,1.1-1.05.08-.39-.11-.76-.3-.43-.11.18.08.86-.38.74-.52-.13.19-.81.22-.92.07-.23-.03-.59.11-.81.11-.18.61-.13.69-.46.05-.23-.18-.59-.17-.84,0-.09.56-1.05.61-1.09.1-.09.54-.17.74-.32.67-.52.03-.62.03-.93,0-.63.82-.7.99-.85.14-.13.04-.42.25-.58.4-.31.89.24.74-.65l.39.32c.09-.12-.48-.98.2-1.06-.16,1.52.28,2.42.79,3.73.06.16.43,1.02.4,1.06-.6-.11-.2.8.05.11l.25.53-.59-.11c-.06.2.22.31.19.47-.03.18-.46.32-.54.49-.11.25,0,.55-.06.78-.05.16-.31.23-.43.39-.41.57-.52,2.16-.77,2.9-.07.21-.29.31-.35.58-.21,1-.21,2.55-.32,3.59-.03.25-.21.41-.2.75s.26.57.36.9c.19.66.05,1.29.17,1.85.06.27.28.37.35.58.13.4.05,1.03.17,1.42.07.25.77,1.08.89,1.38.14.34.17.56.37.99,1.46,3.16,4.63,5.67,7.61,7.02.51.23,1.85.83,2.32.91.35.06.72-.03,1.04.05.22.05.31.26.61.3,2.24.31,6.33-.21,8.32-1.37.24-.14.35-.37.62-.5.31-.15.65-.1.89-.21.62-.29,3.3-2.6,3.76-3.19.25-.32.35-.9.59-1.18.16-.18.43-.22.54-.37.38-.55,1.69-3.25,1.88-3.93.97-3.34.83-8.42-.6-11.61-.1-.21-.34-.25-.41-.35-.04-.05-.51-1.07-.55-1.17-.09-.24-.04-.63-.09-.71-.04-.07-.28-.05-.36-.14-.07-.09-.08-.42-.18-.61-.11-.2-.41-.37-.48-.54-.18-.43.2-1.14-.38-.95-.07.02-.06.18-.14.21-.77.23-.4-.78-.53-.95-.03-.04-.33-.04-.45-.1-.03-.02-.33-.21-.34-.23-.04-.09.17-.07.19-.18.01-.06-.06-1.17-.09-1.21-.19-.2-.32.22-.35.22-.13,0-.25-.15-.34-.17-.17-.03-.38.06-.53-.04-.17-.12-.2-.68-.28-.74-.13-.1-.54.11-.79.05-.15-.03-.76-.7-.88-.76-.23-.11-.56,0-.7-.1s-.05-.37-.11-.47-.43-.09-.57-.19c-.11-.08-.16-.3-.3-.42-.88-.71-1.81-.19-2.72-.37-.32-.07-.19-.59-.98-.42-.5.1-.75.3-1.39.21-.38-.05-.29-.3-.41-.33-.14-.04-.99-.03-1.17,0-.22.03-.16.26-.3.31-.17.06-.38-.02-.56.04-.14.04-.2.25-.42.3-.43.09-1.12-.18-1.68-.11-.35.05-.47.28-.69.32s-.92-.18-1.03,0c-.23.39.27.29.29.32.18.19-.18.21-.2.28-.05.21.04.54-.02.82-.03.16-.17.25-.18.28.19-1.77-.54-3.01-1.28-4.47ZM147.83,34.6c.07-.07-.18-.63-.39-.53-.07.2.16.76.39.53Z"/><path class="cls-7" d="M128.76,27.04c.74,1.46,1.48,2.7,1.28,4.47-.52,2.26-1.32,4.69-3.9,4.9-1.59.13-2.38-.57-3.51-1.6-.51-1.31-.95-2.21-.79-3.73.33-3.06,2.85-5.73,5.83-4.53.44.18.54.48,1.09.48Z"/><path class="cls-6" d="M124.12,69.54c.46-.16.71.43.96.51.56.18,1.69.43,2.2.72.14.08.14.29.27.37.35.2,1.27.17,1.71.26.82.18,1.28.59,2.31.38.24-.05.35-.34.61-.4.49-.12,1.21-.06,1.65-.13.21-.03.3-.32.58-.11.1.07.1.26.23.31.18.07.43,0,.63.02-.45,1.4-.44,2.74-.4,4.21,0,.34.15.64.1,1.01,0,.06-.29.25.1.21.02.24,0,.5,0,.75-.31-.06-.18.17-.19.37-.03.35-.05,1.02-.17,1.31-.09.2-.31.24-.41.41-.32.5-.19,1.3-1.19.72-.32-.19-.81-1.23-.87-1.61-.07-.43-.17-1.05-.23-1.46-.05-.37.11-1.21-.08-1.49-.08-.12-.28,0-.31-.12-.05-.2.13-.82-.15-.89-.09-.02-.26.14-.32.09-.1-.08.02-.34-.41-.31.67-1.17.15-1.91-1.11-1.68-1.13.21-1.48.92-2.98.71s-2.32-2.7-2.53-4.15Z"/><path class="cls-6" d="M151.19,66.77c-.15,1.62.04,2.84-.99,4.18-.54.7-1.22.88-2.05.65-.65-.18-1.39-1.18-1.99-1.31.73-.26.33-.81.41-1.2s.81-1.28,1.13-1.45c.36-.2,1.68-.42,2.09-.41.23,0,.24.36.64.28.47-.09.29-.69.77-.73Z"/><path class="cls-5" d="M112.86,62.62s.23-.02.4-.19c.72-.72.85-2.05,1.29-2.73.12-.18.17-.2.38-.17-.14,1.34.06,3.03-.56,4.23-.03.06-.49.55-.52.56-.08.03-.27-.02-.42.02-.9.25-1.82.37-2.68-.15-.15-.09-.85-.63-.66-.84,1.01.11,1.93.08,2.74-.57.05-.04.02-.17.03-.18Z"/><path class="cls-6" d="M161.27,32.89c-.39.04-.1-.17-.1-.21.1.03.08.13.1.21Z"/><path class="cls-6" d="M135.09,76.89c-.39.04-.11-.15-.1-.21.1.03.09.12.1.21Z"/><path class="cls-3" d="M130.05,31.51s.15-.13.18-.28c.05-.28-.03-.61.02-.82.02-.07.38-.09.2-.28-.02-.02-.53.07-.29-.32.11-.19.79.04,1.03,0s.35-.27.69-.32c.56-.07,1.25.2,1.68.11.21-.05.28-.25.42-.3.18-.06.4.02.56-.04.15-.05.08-.28.3-.31.18-.02,1.03-.03,1.17,0,.12.03.03.28.41.33.64.09.9-.11,1.39-.21.79-.17.66.36.98.42.9.19,1.84-.33,2.72.37.15.12.19.34.3.42.14.1.51.09.57.19s-.02.37.11.47c.14.1.47,0,.7.1.12.06.73.72.88.76.25.06.66-.15.79-.05.08.06.11.63.28.74.15.1.35.01.53.04.1.02.21.17.34.17.02,0,.16-.42.35-.22.04.04.11,1.15.09,1.21-.02.1-.23.09-.19.18-1.13-1.73-3.39-2.41-5.11-1.3-3.6,2.31-2.47,10.05,2.29,9.61,3.48-.32,4.57-5.63,2.82-8.31,0,.02.3.21.34.23.11.06.42.06.45.1.13.17-.24,1.17.53.95.08-.02.07-.19.14-.21.58-.18.2.52.38.95.07.17.37.34.48.54.1.19.11.52.18.61.08.1.32.08.36.14.05.07,0,.46.09.71.04.1.51,1.11.55,1.17.07.11.32.14.41.35,1.43,3.19,1.57,8.27.6,11.61-.2.68-1.5,3.38-1.88,3.93-.11.16-.38.19-.54.37-.24.28-.34.86-.59,1.18-.46.59-3.14,2.9-3.76,3.19-.24.11-.57.06-.89.21-.27.13-.38.36-.62.5-2,1.16-6.08,1.68-8.32,1.37-.3-.04-.39-.25-.61-.3-.32-.08-.69.02-1.04-.05-.47-.08-1.81-.68-2.32-.91-2.99-1.35-6.15-3.86-7.61-7.02-.2-.43-.23-.65-.37-.99-.12-.3-.82-1.12-.89-1.38-.11-.39-.04-1.02-.17-1.42-.07-.21-.29-.31-.35-.58-.12-.56.02-1.19-.17-1.85-.1-.33-.34-.57-.36-.9s.17-.5.2-.75c.11-1.05.11-2.6.32-3.59.06-.27.28-.37.35-.58.25-.74.36-2.33.77-2.9.12-.17.38-.23.43-.39.07-.23-.05-.53.06-.78.08-.17.51-.31.54-.49.03-.16-.25-.26-.19-.47l.59.11-.25-.53c-.25.7-.65-.22-.05-.11.03-.05-.33-.91-.4-1.06,1.13,1.03,1.92,1.73,3.51,1.6,2.58-.21,3.37-2.64,3.9-4.9ZM124.29,45.27c-.7.14-1.18,1.06-1.02,1.8.18.84,2,3.21,2.62,3.89,5.07,5.46,13.71,7.1,19.61,2.18.86-.72,3.22-2.76,1.92-3.98-.87-.82-3,.62-3.99,1.01-6.2,2.41-11.41.71-16.58-3.22-.68-.52-1.77-1.83-2.56-1.66Z"/><path class="cls-3" d="M147.83,34.6c-.23.23-.47-.33-.39-.53.21-.1.47.46.39.53Z"/><path class="cls-7" d="M124.29,45.27c.79-.16,1.88,1.15,2.56,1.66,5.17,3.93,10.38,5.62,16.58,3.22.99-.39,3.12-1.82,3.99-1.01,1.3,1.22-1.06,3.26-1.92,3.98-5.9,4.92-14.55,3.28-19.61-2.18-.62-.67-2.44-3.05-2.62-3.89-.16-.73.32-1.65,1.02-1.8Z"/><path class="cls-7" d="M146.25,33.85c1.75,2.68.66,7.99-2.82,8.31-4.77.44-5.9-7.31-2.29-9.61,1.72-1.1,3.98-.42,5.11,1.3Z"/><ellipse class="cls-3" cx="124.53" cy="29.92" rx="1.43" ry="1.54"/><ellipse class="cls-3" cx="141.46" cy="34.65" rx="1.43" ry="1.54"/><path class="cls-3" d="M150.26,207.91c.32-.02.68-.04.88.27.26.46.79,2.69,1.08,2.91.27.21.43-.02.69,0,.14,0,.92.1.96.13.13.1.15.83.4,1.08.13.13.31.11.38.18s.05.27.17.4.43.17.51.31c.12.21.15,1.27.28,1.47.11.16.68.02.83.33.13.28,0,.76.08,1.1s.51.77.62,1.15c.08.29.02.56.07.76.03.1.52.3.59.57.05.2-.14.59-.07.94.05.27.28.32.38.56.1.26.25,1.24.31,1.6.47,2.83.54,7.05.14,9.87-.04.28-.24.42-.28.65-.05.32.07.74-.01,1.04-.07.26-.43.31-.52.51-.12.28-.06.89-.16,1.2-.06.19-.27.3-.37.56-.16.4-.11.97-.24,1.32-.06.16-.29.52-.45.9-.28.7-.63.86-.79,1.17-.13.24-.16,1.05-.28,1.28-.11.21-.76.28-.91.46-.13.16-.1.56-.21.76-.09.16-.43.25-.57.59-.13.31-.07,1.22-.45,1.21-.19,0-.28-.34-.5-.11-.18.19-.16.63-.33.92-.32.54-.85.34-.89.38-.02.03.05.36-.04.53-.04.07-.94,1.05-1.03,1.13-.34.31-.95.33-1.14.49s-.11.6-.45.79c-.28.15-.84.11-1.06.26-.18.12-.2.57-.32.67-.18.16-.96.2-1.23.33-.18.09-.32.57-.63.71s-.65.02-.94.17c-.21.11-.26.41-.47.56-.35.23-.94.18-1.24.35-.13.07-.13.3-.36.38-.36.13-.83-.04-1.13.08-.17.07-.19.33-.3.42-.4.33-1.51-.05-1.97.02s-1.11.58-1.41.64-.57-.15-.94-.05c-.29.07-.35.36-.7.42-.39.06-2.12.1-2.47.03-.22-.04-.28-.27-.5-.31-.29-.06-.67.05-.98,0-1.34-.2-2.59-.67-3.98-.89-.83-.13-.7-.13-1.4-.39-.28-.1-.76-.04-1.04-.14-.21-.08-.52-.49-.9-.63-.25-.09-.53-.05-.74-.15-.19-.1-.22-.35-.39-.43-.27-.12-1.11-.25-1.32-.38-.17-.11-.23-.59-.33-.66-.12-.09-.78-.14-1.04-.3-.37-.23-.31-.76-.93-.92-.18-.05-.3.08-.53-.05-.31-.18-.4-.7-.67-.88-.37-.25-1.16-.04-1.33-.36-.15-.26.05-.66-.15-1.02-.17-.29-.77-.38-1.11-.72-.37-.38-.48-1.04-.71-1.27s-.88-.36-1.09-.65c-.17-.24-.18-.65-.32-.92-.3-.56-1.13-1.32-1.41-1.89-.24-.49-.16-1.15-.35-1.56-.1-.21-.34-.25-.44-.38-1.09-1.43-.96-3.1-1.49-4.72-.11-.32-.4-.74-.53-1.15-.49-1.65-.23-3.75-.5-5.39-.12-.73-.51-.57-.29-1.79.06-.35.3-.3.35-.46.1-.33-.04-.93.02-1.35.18-1.12.85-2.14,1.01-3.35.06-.49-.03-1.52.24-1.96.1-.17.34-.15.42-.25.15-.19.13-1.02.35-1.36.16-.24.5-.28.59-.44.16-.28.07-1.04.29-1.38.15-.23.65-.37.77-.66.08-.18.04-.41.12-.61.1-.27.4-.77.58-1.18.09-.21.32-.23.4-.43.05-.12.06-.64.11-.67.03-.02.52.18.69-.01.22-.25-.37-.19-.46-.3-.46-.65.62-.54.94-.34.02.6-.05.79.65.85,2.31.19,2.24-3.18,2.37-4.83.47-.05.29-.64.76-.74.4-.09.41.27.65.27.41,0,1.73-.24,2.08-.44.32-.18,1.04-1.1,1.11-1.47.08-.39-.33-.93.4-1.2.15.03.64-.05.69,0,.02.02-.12.33.33.2.07-.02.25-.38.29-.39.39-.2.22.15.33.38.18.37.82,0,1.18.21.5-.23,1.3,0,1.75-.24.15-.08.13-.4.31-.54s.55-.11.65-.29.14-.96.18-1c.05-.05.34.2.39,0,.02.06.07.16.1.21-.34.56-.22.95.2.32.09.09.43.18.6.42.32.45.2.59.82.99,1.49.96,2.55-.02,3.03-1.57.2.02.44-.05.63,0,.13.04.14.23.24.3.28.21.37-.09.58-.12.44-.07,1.16-.02,1.65-.15.26-.07.37-.36.61-.41,1.03-.23,1.49.18,2.32.34.44.09,1.36.04,1.71.24.14.08.14.29.28.37.52.28,1.65.51,2.21.69.25.08.51.67.96.5.08.49.05,1.15.13,1.64.2,1.19.98,3.36,2.04,3.89.92.46,1.51,0,2.34-.05ZM148.47,240.86c.68-.1.1-.95.19-1.07l.4.31c-.16-.89.34-.34.73-.66.21-.17.1-.45.24-.58.16-.16.99-.24.98-.87,0-.3-.65-.4.02-.93.2-.15.64-.25.73-.33.04-.04.59-1.01.59-1.1,0-.25-.23-.6-.18-.83.07-.33.57-.29.68-.47.13-.23.04-.58.1-.82.03-.11.73-.8.21-.92-.47-.11-.27.56-.37.75-.19.33-.38-.03-.31-.43.25-1.27.32-.72,1.09-1.07.34-.15.29-1.11.34-1.53.06-.47.23-.72.16-1.31-.06-.52-.47-1.4-.52-1.81-.04-.37.2-.82.19-1.27s-.18-1.2-.25-1.67c-.03-.19-.18-.4-.18-.56,0-.34.46-.29.49-.44.03-.16.01-.95-.02-1.16-.04-.34-.22-.5-.28-.77-.08-.35-.08-.85-.16-1.12-.08-.25-.4-.25-.46-.46-.1-.31-.03-1-.18-1.31-.09-.18-.41-.23-.5-.42-.17-.35-.2-1.24-.36-1.52-.03-.05-.76-.72-.81-.75-.16-.09-.46-.08-.57-.18-.12-.13-.07-.5-.22-.67-.18-.2-.88-.22-.8-.89h.4c.05-.33-.15-.59-.34-.82-.74-.87-1.58-1.81-2.41-2.56-.15-.13-.94-.63-1.09-.63s-.33.13-.49.12c-.21-.02-.63-.45-.94-.42-.19-.3.61-.55.13-.74-.38-.15-.09.54-.64.33-.08-.31.33-.22.29-.48-.12-.77-.67-.6-1.1-.73-.21-.07-.57-.54-.8-.32-.13.12.04.6-.62.37-.15-.05-.17-.29-.27-.35-.13-.08-.56-.02-.59-.21s.52-.39-.24-.81c-.52-.3-.91-.2-1.4-.28-.15-.03-.26-.18-.41-.2-.31-.05-.68.07-.96-.01-.23-.07-.32-.44-.62-.5-.18-.03-1.96-.06-2.02.02-.06.07.17.53-.28.7-.25.09-1.88.11-1.98-.03-.38-.57,1.79,0,1.47-.76l-2.22.03c-.21,0,0,.69-.43.81-.57.17-.39-.62-.75-.69-.77-.16-.37.69-.88.76-.44.06-.45-.35-.61-.4-.6-.21-.81.24-1.17.31-.45.1-1.14.06-1.59.38-.07.05-.08.24-.24.32-.22.11-.6.02-.72.3s.08.53-.2.73c-.39.28-.51-.02-.78-.07-.11-.02-1.23.23-1.33.28-.05.03-.79.87-.82.92-.18.34.06.83-.6.96-.31.06-.18-.2-.38-.22-.92-.07-1.33.92-1.86,1.53-.36.42-1.06,1.33-1.36,1.62-.18.17-.44.23-.55.37-.15.19-.12.57-.21.68s-.43.09-.52.24c-.1.17-.07.91-.28,1.28-.2.35-.78.84-1.07,1.09-.44.38-.14.99-.25,1.53-.06.32-.34.44-.44.7-.14.36-.4,1.76-.28,2.09.05.14.26.13.29.24.05.19.03,1.31-.07,1.46s-.85,0-.9.25c-.12.58.06,1.82-.07,2.49.85-.41.86,1.03,0,.64-.13.15.12,1.85.13,2.18s-.17.78-.08,1.05.61.18.74.38c.09.14.04.43.12.62.07.16.27.16.32.3.19.56-.35.63-.37.76-.04.17.06,1.45.12,1.52s.83-.13,1.09.15c.05.05.29,1.06.43,1.36.16.33.54.43.37.96-.08.24-.4.09-.37.65.03.42.37.42.57.77.26.45.09.9.24,1.13s.47.17.64.38.11.67.36.8.87-.19.99-.07c.02.03-.01.54.05.75.14.45,1.62,2.06,2.01,2.42.35.33.92.96,1.38.83.11-.03.3-.86.79-.09.31.48-.03.93.58,1.18.5.2.34-.11.48-.21.17-.13,1.19.04.95.37-.06.09-.56.39-.15.69.09.07,1.11.3,1.32.38.65.23,1.23.31,1.8.5.13.05.14.25.23.3.32.18.79.21,1.11.36.14.06.21.29.38.34.33.1.81-.08,1.15.03.17.05.24.28.37.35.3.15,5.16.02,5.88-.02.53-.03,1.1-.2,1.65-.15.34-.11.29-.66.46-.78.28-.21.26,0,.65-.48.06-.08.21-.11.22-.14.05-.1-.16-.41-.09-.51.02-.04.41-.08.51-.13.13-.06-.01-.2.37-.21.55,0,.65.29,1.09.46,3,1.17,5.48-1.55,5.78-4.61Z"/><path class="cls-6" d="M162.6,223.94c-.02.18-.27.53-.19.8.53.03.14.35.2.86.02.2.2.15.21.21.09.34-.18.26-.25.37-.14.23.13.41.17.69.1.87-.12,3.33-.28,4.24-.04.22-.23.41-.26.67-.05.37.06.78-.02,1.14-.06.27-.44.53-.46.78-.04.35.14.84.01,1.35-.02.07-.25.18-.33.41-.93,2.73-1.86,5.21-3.45,7.64-7.62,11.64-21.89,15.88-34.14,10.71-2.71-1.14-4.85-2.38-7.11-4.33-.38-.33-.78-.52-1.17-.76-.6-.36-1.59-1.78-2.13-2.39-.47-.53-.96-.83-1.36-1.52-.09-.16-.07-.4-.12-.47-.03-.04-.52-.3-.68-.52-.26-.35-.17-.84-.21-.88-.04-.04-.43.07-.57-.01-.22-.13-.21-1.08-.62-1.22l-.71-1.51c0-.14-.01-.29,0-.43,0-.05.29-.26-.1-.21-.77-4.2-1.5-7.58-1.33-11.97.16-4.02,1.44-7.59,2.21-11.46.6-3.05.93-5.56,1.01-8.77.4-.07.49-.81.64-1.07.32-.57,1.48-2.26,2.06-2.36.22-.04.34.09.46.08.04,0,.31-.41.65-.33-.05,1.36-.3,2.77.06,4.09.14.52.3.99.89,1.01-.03.1,0,.58,0,.75-.32-.19-1.4-.31-.94.34.08.11.67.05.46.3-.17.19-.66-.01-.69.01-.05.04-.07.55-.11.67-.07.19-.3.21-.4.43-.18.41-.47.92-.58,1.18-.08.2-.04.43-.12.61-.13.3-.63.44-.77.66-.22.34-.13,1.1-.29,1.38-.09.15-.43.19-.59.44-.22.34-.21,1.17-.35,1.36-.07.1-.31.08-.42.25-.27.44-.17,1.47-.24,1.96-.16,1.21-.83,2.23-1.01,3.35-.07.42.07,1.02-.02,1.35-.05.16-.29.12-.35.46-.23,1.22.17,1.07.29,1.79.26,1.64,0,3.74.5,5.39.12.41.42.83.53,1.15.53,1.62.4,3.28,1.49,4.72.1.13.34.17.44.38.19.4.11,1.07.35,1.56.28.57,1.11,1.33,1.41,1.89.14.27.14.67.32.92.21.3.86.43,1.09.65s.34.89.71,1.27c.33.34.94.43,1.11.72.2.35,0,.76.15,1.02.18.32.96.11,1.33.36.27.18.37.7.67.88.23.14.35,0,.53.05.61.16.56.69.93.92.26.16.92.22,1.04.3.09.07.15.55.33.66.21.13,1.04.26,1.32.38.18.07.2.33.39.43.21.1.49.06.74.15.37.13.69.55.9.63.28.1.76.04,1.04.14.71.26.57.26,1.4.39,1.38.22,2.64.69,3.98.89.31.05.69-.06.98,0,.22.04.28.27.5.31.35.07,2.09.03,2.47-.03.36-.06.42-.35.7-.42.38-.1.65.11.94.05s.94-.57,1.41-.64,1.58.31,1.97-.02c.11-.09.13-.36.3-.42.29-.11.77.06,1.13-.08.23-.09.24-.31.36-.38.3-.18.9-.12,1.24-.35.21-.14.26-.45.47-.56.29-.15.62-.03.94-.17s.45-.62.63-.71c.27-.13,1.05-.17,1.23-.33.11-.1.14-.55.32-.67.22-.15.78-.1,1.06-.26.34-.18.25-.62.45-.79s.79-.18,1.14-.49c.08-.08.99-1.06,1.03-1.13.09-.17.02-.51.04-.53.04-.04.57.15.89-.38.17-.29.14-.73.33-.92.22-.23.31.11.5.11.38,0,.32-.9.45-1.21.14-.33.48-.43.57-.59.11-.2.08-.6.21-.76.15-.18.8-.26.91-.46.12-.23.16-1.04.28-1.28.16-.3.51-.47.79-1.17.15-.39.39-.74.45-.9.13-.34.08-.91.24-1.32.1-.25.31-.37.37-.56.1-.31.03-.92.16-1.2.09-.2.45-.25.52-.51.08-.3-.04-.72.01-1.04.04-.24.24-.37.28-.65.4-2.83.33-7.04-.14-9.87-.06-.36-.21-1.33-.31-1.6-.09-.23-.32-.28-.38-.56-.07-.35.12-.74.07-.94-.06-.27-.56-.46-.59-.57-.05-.19,0-.47-.07-.76-.11-.38-.55-.82-.62-1.15s.05-.82-.08-1.1c-.15-.31-.72-.17-.83-.33-.14-.2-.16-1.25-.28-1.47-.08-.14-.38-.17-.51-.31s-.11-.33-.17-.4-.25-.05-.38-.18c-.24-.25-.26-.98-.4-1.08-.04-.03-.81-.12-.96-.13-.25-.01-.41.22-.69,0-.29-.22-.82-2.45-1.08-2.91-.2-.31-.56-.29-.88-.27l.83-.86c.79-.98.62-2.9.59-4.16.96.36,1.84-.43,2.43.71.43.83.84,1.79,1.25,2.63.12.24.01.81.51.98,0,.03,0,.07,0,.11.02.2-.07.24.2.21-.03.01-.48.51-.51.57-.61,1.21-.39,2.9-.52,4.24.21.02.26,0,.38-.18.44-.69.55-2.02,1.26-2.75.17-.17.35-.15.4-.19-.01.22.3.4.46.52,1.72,1.41,1.46,1.48,2.11,3.6.1.34.36.6.43.82.1.28-.06,1.01.43.87,0,.28,0,.57.01.85,0,.18-.06.47.11.53h.1c0,.1,0,.21,0,.32.06.6.21,1.17.32,1.76.05.29-.1.29.3.26.01.06,0,.14,0,.21.02.15-.14.5.2.42.02.06-.01.15,0,.21-.18.17-.12.25.1.21.22.83,1.02,3.47.94,4.14Z"/><path class="cls-5" d="M162.6,223.94c.12.12.15.34.18.51,2.93,19.82-13.2,36.01-31.32,33.45-7.6-1.07-15.4-5.94-19.97-12.77-.89-1.34-1.96-3.11-2.34-4.48l.08-.07c.02-.12-.08-.26-.08-.36l.71,1.51c.41.14.41,1.1.62,1.22.15.09.53-.03.57.01.03.03-.05.52.21.88.16.22.65.48.68.52.05.07.03.31.12.47.4.69.89.99,1.36,1.52.54.61,1.53,2.03,2.13,2.39.39.24.79.43,1.17.76,2.26,1.95,4.4,3.18,7.11,4.33,12.25,5.17,26.52.92,34.14-10.71,1.59-2.43,2.52-4.91,3.45-7.64.08-.23.31-.34.33-.41.13-.52-.05-1-.01-1.35.03-.25.4-.51.46-.78.08-.36-.03-.77.02-1.14.04-.27.22-.45.26-.67.16-.92.38-3.38.28-4.24-.03-.28-.31-.46-.17-.69.06-.11.34-.03.25-.37-.01-.05-.19,0-.21-.21-.06-.5.33-.83-.2-.86-.07-.27.17-.62.19-.8Z"/><path class="cls-5" d="M110.63,198.54s.07-.07.1-.11c.36-.39.68-.5,1.18-.55.02.16.28.16.3,0,.08,0,.56-.01.59,0,.06.36-.25.16-.47.25-.06.03-.38.55-.43.65-1.15,2.27-.9,6.03-.97,8.61-.08,3.21-.41,5.73-1.01,8.77-.76,3.87-2.05,7.44-2.21,11.46-.17,4.39.56,7.77,1.33,11.97.02.09,0,.18.1.21,0,.14,0,.29,0,.43,0,.1.1.24.08.36l-.08.07c-.17-.58-.73-1.41-.99-2.09-1.02-2.64-1.75-6.14-1.91-9-.42-7.52,2.79-13.96,3.02-21.35.07-2.24-.55-8.44,1.36-9.66Z"/><path class="cls-5" d="M118.71,205.57c-.13,1.66-.06,5.02-2.37,4.83-.69-.06-.63-.25-.65-.85,0-.17-.04-.65,0-.75,0-.02.24-.16.33-.34,1.3-2.55.48-5.3,1.96-7.72.91-1.49,3.03-2.45,4.54-1.4.32.22.84,1.07,1.16.88.24-.14.45-1.48.47-1.83.14-2.09-.93-7.74,1.88-8.07.14.2.48.07.69.1.09.02.15.09.2.1-.39.3-.65.55-.88,1.02-.79,1.61-.3,3.58-.23,5.28s.12,4.18-1.42,5.13c-.06-.04-.54.04-.69,0-.6-.12-1.35-1.11-2.01-1.29-.84-.22-1.51-.03-2.04.68-1.02,1.35-.82,2.57-.95,4.19Z"/><path class="cls-5" d="M145.75,202.43c-.23-1.45-1.01-3.91-2.58-4.11s-1.84.53-2.97.75c-1.26.25-1.79-.49-1.13-1.66.15-.01.36-.18.49-.22,1.5-.49,2.84-1.13,4.44-.54s2.48,2.52,2.89,4.14c.39,1.53.24,5,2.07,5.32l.14.1.06-.1c.09,0,.21.01.3,0,.14.2.24.12.2-.11.24-.11.24-.06.39-.32.44-.74.27-2.69.25-3.63,0-.14,0-.28,0-.43.15-.05.14-.39,0-.43,0-.14-.01-.29,0-.43.42.06.1-.32.09-.43,0-.07,0-.14,0-.21.23.03.28-.05.1-.21.01-.13-.03-.32,0-.43.31.04.39-.58.39-.86.03-.06.04-.13.1-.21.09-.14.32-.24.29-.54.03-.03.07-.07.1-.11l.1-.11c.07-.07.13-.14.2-.22.25.09.16.21.14.4-.18,1.93-.12,3.14-.08,5.03.03,1.26.2,3.19-.59,4.16l-.83.86c-.83.06-1.42.51-2.34.05-1.07-.53-1.84-2.7-2.04-3.89-.08-.48-.05-1.15-.13-1.64Z"/><path class="cls-5" d="M130.72,201.25c1.42.48,2.44-.26,2.72-1.82.64-3.6-2.39-11.05,1.7-13.16.75-.39,1.54-.64,2.32-.24l.2.1c.07.05.35.34.4.42l.1.11c.11.2.14.57.21.74-.34,1.35-1.8,1.21-2.5,1.84-1.25,1.14-1.2,3.65-1.17,5.24,0,.25-.01.5,0,.75,0,.09,0,.18.1.21-.04.36.1.67.11,1.01.06,1.47.09,2.81-.35,4.22-.48,1.55-1.54,2.53-3.03,1.57-.61-.4-.5-.54-.82-.99Z"/><path class="cls-8" d="M155.88,207.2c-.5-.17-.4-.73-.51-.98-.41-.84-.82-1.8-1.25-2.63-.59-1.13-1.48-.35-2.43-.71-.04-1.89-.1-3.1.08-5.03.02-.19.11-.32-.14-.4.01-.01-.04-.14.06-.22,1.03-.88,2.61-.18,3.13,1.06.8,1.94,1.23,6.8,1.08,8.9Z"/><path class="cls-8" d="M110.93,207.38c.07-2.58-.18-6.33.97-8.61.05-.1.37-.62.43-.65.22-.1.53.11.47-.25,2.3.34,2.02,4.07,1.95,5.83-.34-.08-.61.33-.65.33-.12,0-.25-.12-.46-.08-.58.1-1.75,1.8-2.06,2.36-.15.26-.24,1-.64,1.07Z"/><path class="cls-6" d="M129.82,200.31c-.05.2-.35-.04-.39,0-.04.04-.08.82-.18,1s-.47.13-.65.29-.16.47-.31.54c-.46.23-1.25.01-1.75.24-.36-.2-1.01.16-1.18-.21-.11-.24.06-.58-.33-.38-.03.02-.21.37-.29.39-.45.13-.3-.19-.33-.2,1.54-.95,1.49-3.45,1.42-5.13.34-.01.26-.37.49-.59.18-.17.67-.39.92-.38.11,0,.98.21,1.05.25.17.09.22.38.35.48.28.21.93.08,1.05.62,0,.25.03.5,0,.75-.4-.05-.1.23-.1.32.03.41-.03.87.02,1.28l-.1.06.1.16s.17.45.2.53Z"/><path class="cls-8" d="M129.68,197.22c-.12-.54-.78-.41-1.05-.62-.13-.1-.17-.39-.35-.48-.07-.04-.94-.24-1.05-.25-.24-.01-.74.21-.92.38-.23.22-.15.58-.49.59-.07-1.7-.56-3.67.23-5.28.23-.47.49-.72.88-1.02,3.15,1.07,2.86,3.68,2.75,6.67Z"/><path class="cls-8" d="M139.07,197.41c-.43.03-.31-.23-.41-.3-.07-.05-.24.11-.32.09-.28-.06-.11-.69-.16-.89-.03-.12-.23,0-.31-.12-.19-.27-.05-1.12-.1-1.49-.06-.41-.17-1.03-.24-1.46-.07-.38-.57-1.42-.89-1.6-1-.56-.87.24-1.18.74-.1.17-.32.22-.41.42-.12.29-.13.96-.16,1.31-.02.2.12.43-.19.37-.03-1.59-.08-4.1,1.17-5.24.69-.63,2.16-.49,2.5-1.84,0,.01.13-.07.22.14.5,1.23.38,5.6.37,7.15,0,.42-.25,2.25.02,2.45.14.1.43.03.6.04-.13.04-.34.21-.49.22Z"/><path class="cls-8" d="M160.52,215.02c-.49.13-.33-.59-.43-.87-.07-.22-.33-.48-.43-.82-.66-2.12-.39-2.18-2.11-3.6-.15-.12-.47-.3-.46-.52.01-.01-.02-.15.02-.18.81-.66,1.72-.7,2.73-.6.19-.21-.51-.74-.67-.83-.86-.5-1.78-.38-2.68-.11-.14.04-.34,0-.42.03-.27.03-.18,0-.2-.21,2.09-.43,3.76-.62,4.67,1.8.63,1.67.15,2.63.05,4.21-.12.07-.17.3,0,.32-.03.34.03.72.01,1.07,0,.02-.09.14-.1.32Z"/><path class="cls-5" d="M150.29,202.05c.01.94.19,2.88-.25,3.63.18-1.2-.07-2.44.25-3.63Z"/><path class="cls-8" d="M161.36,218.73c-.4.03-.25.03-.3-.26-.11-.59-.26-1.16-.32-1.76.32-.07.16.17.2.37.12.55.31,1.11.41,1.65Z"/><path class="cls-6" d="M160.53,215.87c-.02-.28-.02-.57-.01-.85,0-.18.09-.3.1-.32.07.39.09.77.11,1.17h-.2Z"/><path class="cls-3" d="M130.12,200.84c-.42.64-.54.24-.2-.32.02.03.19.3.2.32Z"/><path class="cls-5" d="M150.46,199.49c.09-.39.23-.56.39-.86,0,.28-.07.89-.39.86Z"/><path class="cls-5" d="M150.94,198.42c-.08-.49.22-.46.29-.54.03.3-.2.39-.29.54Z"/><path class="cls-5" d="M150.28,200.77c0-.16-.03-.3.09-.43,0,.11.33.48-.09.43Z"/><path class="cls-6" d="M160.53,215.87h.2c0,.1,0,.21,0,.32l-.1.21c-.17-.06-.1-.35-.11-.53Z"/><path class="cls-6" d="M161.56,219.37c-.34.08-.18-.27-.2-.42.17.1.16.26.2.42Z"/><path class="cls-5" d="M126.05,190.34c.34-.04.43.04.69.1-.22-.02-.55.1-.69-.1Z"/><path class="cls-5" d="M150.28,201.2c.15.03.16.38,0,.43,0-.12,0-.27,0-.43Z"/><path class="cls-6" d="M129.6,198.29c0-.09-.31-.37.1-.32,0,.11-.04.22-.1.32Z"/><path class="cls-5" d="M149.45,206.11s.11-.07.2-.11c.04.23-.06.31-.2.11Z"/><path class="cls-6" d="M160.64,216.4l.1-.21c0,.08,0,.2,0,.21h-.1Z"/><path class="cls-6" d="M161.66,219.8c-.22.04-.28-.04-.1-.21,0,.01.07.08.1.21Z"/><path class="cls-5" d="M150.37,200.13c0-.19.1-.2.1-.21.18.17.13.25-.1.21Z"/><path class="cls-6" d="M160.6,213.31c0,.11.01.21,0,.32-.17-.02-.12-.25,0-.32Z"/><path class="cls-5" d="M111.91,197.89c.1,0,.2,0,.3,0-.01.16-.28.16-.3,0Z"/><path class="cls-5" d="M148.96,206.12c.06.01.13,0,.2,0l-.06.1-.14-.1Z"/><path class="cls-6" d="M129.61,199.56c0,.07,0,.15,0,.21l-.1-.16.1-.06Z"/><path class="cls-2" d="M137.46,186.03c.07.04.11.04.2.1l-.2-.1Z"/><path class="cls-5" d="M151.43,197.67l-.1.11s.06-.07.1-.11Z"/><path class="cls-5" d="M110.73,198.44s-.06.08-.1.11c.03-.04.06-.07.1-.11Z"/><path class="cls-2" d="M138.05,186.56s.08.06.1.11l-.1-.11Z"/><path class="cls-3" d="M141.61,245c-.38,0-.24.14-.37.21-.1.05-.49.09-.51.13-.06.1.14.41.09.51-.01.03-.16.06-.22.14-.38.49-.37.27-.65.48-.16.12-.12.67-.46.78-.56-.04-1.13.12-1.65.15-.72.04-5.58.17-5.88.02-.13-.06-.2-.29-.37-.35-.33-.1-.81.08-1.15-.03-.16-.05-.24-.28-.38-.34-.33-.15-.79-.18-1.11-.36-.09-.05-.1-.26-.23-.3-.57-.19-1.15-.27-1.8-.5-.21-.08-1.23-.31-1.32-.38-.41-.31.08-.61.15-.69.24-.32-.78-.49-.95-.37-.14.1.01.42-.48.21-.61-.25-.27-.7-.58-1.18-.49-.77-.69.06-.79.09-.45.13-1.03-.5-1.38-.83-.39-.37-1.87-1.97-2.01-2.42-.07-.21-.03-.73-.05-.75-.11-.12-.75.2-.99.07s-.18-.59-.36-.8-.48-.14-.64-.38.01-.68-.24-1.13c-.2-.35-.55-.36-.57-.77-.03-.56.29-.41.37-.65.17-.54-.21-.63-.37-.96-.14-.29-.39-1.3-.43-1.36-.25-.28-1.02-.08-1.09-.15s-.16-1.34-.12-1.52c.03-.13.56-.19.37-.76-.05-.14-.26-.14-.32-.3-.07-.18-.03-.48-.12-.62-.12-.19-.65-.11-.74-.38s.09-.72.08-1.05-.26-2.03-.13-2.18c.86.39.84-1.05,0-.64.12-.67-.05-1.91.07-2.49.05-.26.81-.11.9-.25s.12-1.27.07-1.46c-.03-.11-.24-.1-.29-.24-.11-.34.14-1.73.28-2.09.1-.26.38-.37.44-.7.11-.53-.2-1.15.25-1.53.29-.25.87-.74,1.07-1.09.21-.37.18-1.11.28-1.28.09-.15.44-.13.52-.24s.05-.48.21-.68c.11-.14.37-.19.55-.37.3-.29,1-1.2,1.36-1.62.53-.61.94-1.6,1.86-1.53.21.02.08.28.38.22.66-.14.42-.63.6-.96.03-.06.77-.89.82-.92.1-.05,1.21-.3,1.33-.28.27.05.39.36.78.07.28-.2.09-.46.2-.73s.5-.19.72-.3c.16-.08.17-.27.24-.32.45-.32,1.14-.28,1.59-.38.36-.08.57-.52,1.17-.31.16.05.17.46.61.4.51-.07.11-.92.88-.76.36.07.18.86.75.69.43-.13.22-.81.43-.81l2.22-.03c.32.76-1.85.19-1.47.76.1.15,1.73.12,1.98.03.46-.17.23-.63.28-.7.07-.08,1.84-.06,2.02-.02.3.06.39.43.62.5.28.09.66-.03.96.01.15.02.26.17.41.2.5.09.88-.01,1.4.28.76.43.2.61.24.81s.47.13.59.21c.1.07.11.3.27.35.65.23.48-.25.62-.37.23-.21.59.26.8.32.43.13.98-.03,1.1.73.04.26-.37.16-.29.48.55.21.26-.48.64-.33.47.19-.32.44-.13.74.31-.03.74.4.94.42.16.01.33-.12.49-.12s.94.49,1.09.63c.83.76,1.68,1.7,2.41,2.56.19.22.39.49.34.81h-.4c-.07.68.62.7.8.9.16.17.1.54.22.67.1.11.4.09.57.18.05.03.78.7.81.75.16.28.19,1.17.36,1.52.09.19.41.24.5.42.15.32.08,1.01.18,1.31.07.2.39.21.46.46.08.27.08.77.16,1.12.06.27.24.43.28.77.03.2.05.99.02,1.16-.03.15-.49.11-.49.44,0,.17.15.38.18.56.07.47.24,1.24.25,1.67s-.23.9-.19,1.27c.04.41.45,1.29.52,1.81.07.59-.1.84-.16,1.31-.05.43,0,1.38-.34,1.53-.77.35-.84-.2-1.09,1.07-.08.39.12.76.31.43.1-.18-.09-.86.37-.75.52.12-.18.82-.21.92-.06.24.03.59-.1.82-.11.18-.61.14-.68.47-.05.23.18.58.18.83,0,.09-.55,1.05-.59,1.1-.1.09-.54.18-.73.33-.67.52-.02.62-.02.93,0,.63-.82.71-.98.87-.14.14-.04.42-.24.58-.39.32-.89-.23-.73.66l-.4-.31c-.08.12.49.97-.19,1.07.15-1.52-.3-2.41-.83-3.72-.06-.16-.44-1.01-.41-1.06.6.1.19-.81-.05-.11l-.25-.53.59.1c.06-.2-.22-.31-.2-.47.03-.18.46-.32.54-.5.11-.25-.01-.55.05-.78.05-.16.31-.23.42-.4.4-.58.49-2.17.73-2.91.07-.21.29-.32.34-.59.2-1,.18-2.55.28-3.6.02-.25.21-.41.19-.75s-.27-.57-.37-.9c-.2-.66-.06-1.29-.19-1.84-.06-.27-.29-.37-.36-.58-.13-.39-.07-1.03-.18-1.42-.08-.25-.78-1.07-.91-1.37-.15-.34-.17-.55-.38-.98-1.5-3.14-4.69-5.61-7.7-6.92-.51-.22-1.86-.8-2.33-.88-.35-.06-.72.04-1.04-.03-.22-.05-.31-.26-.61-.29-2.25-.28-6.33.29-8.31,1.48-.24.14-.35.38-.61.51-.31.16-.64.11-.88.23-.62.3-3.27,2.64-3.72,3.24-.24.32-.34.91-.57,1.18-.16.18-.43.22-.54.38-.38.56-1.65,3.27-1.84,3.96-.93,3.36-.73,8.43.73,11.6.1.21.34.24.42.35.04.05.52,1.06.56,1.16.1.24.05.63.1.7.04.07.29.04.36.14.07.09.08.42.18.6.11.2.42.37.49.54.19.43-.19,1.14.39.95.07-.02.06-.19.13-.21.77-.24.41.77.54.94.03.04.34.04.45.09.03.02.33.21.34.23.04.09-.17.08-.19.18-.01.06.07,1.16.11,1.21.19.2.32-.22.34-.22.13,0,.25.15.35.16.17.03.38-.07.53.03.17.12.21.68.29.74.13.1.53-.12.79-.06.15.03.77.69.89.74.23.1.56-.01.7.09s.05.37.11.47.43.08.57.18c.11.08.16.3.31.41.89.69,1.81.16,2.72.34.32.06.19.58.99.41.5-.11.75-.31,1.39-.23.38.05.29.29.41.32.14.04.99.02,1.17,0,.22-.03.15-.26.3-.32.17-.06.38.01.56-.04.14-.05.2-.25.41-.3.43-.1,1.13.17,1.68.09.35-.05.46-.29.69-.33s.92.17,1.03-.02c.23-.39-.28-.29-.3-.31-.19-.19.18-.21.2-.28.05-.21-.04-.54,0-.82.03-.16.17-.26.17-.28-.17,1.77.58,3,1.34,4.46ZM122.45,237.7c-.07.07.19.63.4.53.07-.2-.17-.75-.4-.53Z"/><path class="cls-7" d="M141.61,245c-.76-1.45-1.51-2.68-1.34-4.46.5-2.27,1.26-4.71,3.84-4.96,1.59-.15,2.38.54,3.53,1.55.53,1.3.98,2.2.83,3.72-.3,3.06-2.78,5.77-5.78,4.61-.44-.17-.54-.47-1.09-.46Z"/><path class="cls-6" d="M145.75,202.43c-.46.17-.72-.42-.96-.5-.57-.18-1.69-.41-2.21-.69-.14-.08-.14-.29-.28-.37-.35-.2-1.28-.15-1.71-.24-.83-.17-1.29-.57-2.32-.34-.24.05-.35.34-.61.41-.49.13-1.21.08-1.65.15-.21.03-.3.33-.58.12-.1-.07-.11-.26-.24-.3-.19-.06-.43,0-.63,0,.44-1.41.41-2.74.35-4.22-.01-.34-.15-.64-.11-1.01,0-.06.29-.26-.1-.21-.02-.24,0-.5,0-.75.31.05.17-.17.19-.37.03-.35.04-1.02.16-1.31.08-.2.3-.25.41-.42.31-.5.18-1.3,1.18-.74.33.18.82,1.22.89,1.6.08.43.19,1.05.24,1.46.05.37-.09,1.21.1,1.49.08.12.28,0,.31.12.05.2-.12.83.16.89.09.02.26-.14.32-.09.1.08-.02.34.41.3-.66,1.17-.12,1.92,1.13,1.66,1.13-.23,1.46-.94,2.97-.75s2.35,2.66,2.58,4.11Z"/><path class="cls-6" d="M118.71,205.57c.13-1.62-.07-2.84.95-4.19.53-.71,1.21-.9,2.04-.68.66.17,1.41,1.16,2.01,1.29-.73.27-.32.81-.4,1.2s-.8,1.29-1.11,1.47c-.35.2-1.67.44-2.08.44-.23,0-.25-.36-.65-.27-.47.1-.28.69-.76.74Z"/><path class="cls-5" d="M157.09,209.2s-.23.02-.4.19c-.71.73-.82,2.06-1.26,2.75-.12.19-.17.2-.38.18.13-1.34-.1-3.03.52-4.24.03-.06.48-.56.51-.57.08-.03.27.01.42-.03.9-.27,1.82-.39,2.68.11.15.09.86.62.67.83-1.01-.1-1.93-.05-2.73.6-.04.04-.01.17-.02.18Z"/><path class="cls-6" d="M109.04,239.58c.39-.05.1.16.1.21-.1-.03-.09-.12-.1-.21Z"/><path class="cls-6" d="M134.7,195.23c.39-.04.11.15.1.21-.1-.03-.09-.12-.1-.21Z"/><path class="cls-3" d="M140.27,240.54s-.15.13-.17.28c-.05.28.04.61,0,.82-.02.07-.38.1-.2.28.02.02.53-.08.3.31-.11.19-.79-.02-1.03.02s-.34.28-.69.33c-.55.08-1.25-.18-1.68-.09-.21.05-.27.26-.41.3-.18.06-.4-.02-.56.04-.15.05-.08.28-.3.32-.18.03-1.03.05-1.17,0-.12-.03-.03-.28-.41-.32-.64-.08-.89.12-1.39.23-.79.18-.66-.35-.99-.41-.91-.17-1.83.36-2.72-.34-.15-.12-.19-.33-.31-.41-.15-.1-.51-.08-.57-.18s.02-.37-.11-.47c-.14-.1-.47.01-.7-.09-.13-.06-.74-.71-.89-.74-.25-.05-.65.16-.79.06-.08-.06-.11-.62-.29-.74-.15-.1-.35,0-.53-.03-.1-.02-.21-.16-.35-.16-.02,0-.15.42-.34.22-.04-.04-.12-1.15-.11-1.21.02-.1.23-.09.19-.18,1.15,1.71,3.42,2.36,5.13,1.23,3.58-2.35,2.35-10.08-2.41-9.58-3.47.37-4.5,5.69-2.72,8.35,0-.02-.3-.21-.34-.23-.11-.05-.42-.06-.45-.09-.13-.16.23-1.18-.54-.94-.08.02-.06.19-.13.21-.58.19-.21-.52-.39-.95-.07-.17-.38-.33-.49-.54-.1-.19-.12-.52-.18-.6-.08-.1-.32-.07-.36-.14-.05-.07,0-.46-.1-.7-.04-.1-.53-1.11-.56-1.16-.07-.11-.32-.14-.42-.35-1.47-3.17-1.67-8.24-.73-11.6.19-.69,1.46-3.4,1.84-3.96.11-.16.38-.2.54-.38.24-.28.33-.87.57-1.18.45-.6,3.1-2.94,3.72-3.24.24-.12.57-.07.88-.23.27-.13.38-.37.61-.51,1.98-1.19,6.06-1.76,8.31-1.48.3.04.4.24.61.29.32.07.69-.02,1.04.03.47.08,1.82.66,2.33.88,3,1.31,6.19,3.78,7.7,6.92.21.43.23.64.38.98.13.3.83,1.11.91,1.37.12.39.05,1.02.18,1.42.07.21.3.3.36.58.12.55,0,1.19.19,1.84.1.33.35.57.37.9s-.17.5-.19.75c-.1,1.05-.08,2.6-.28,3.6-.05.27-.27.38-.34.59-.24.74-.34,2.33-.73,2.91-.11.17-.38.24-.42.4-.07.23.05.53-.05.78-.07.17-.51.32-.54.5-.02.16.25.26.2.47l-.59-.1.25.53c.24-.7.65.21.05.11-.03.05.34.9.41,1.06-1.15-1.02-1.94-1.7-3.53-1.55-2.58.25-3.34,2.69-3.84,4.96ZM145.86,226.7c.69-.15,1.17-1.08,1-1.81-.19-.83-2.04-3.19-2.67-3.85-5.13-5.39-13.79-6.91-19.64-1.91-.86.73-3.19,2.81-1.87,4.01.88.81,2.99-.66,3.98-1.06,6.18-2.49,11.4-.86,16.62,2.99.69.51,1.79,1.8,2.58,1.63Z"/><path class="cls-3" d="M122.45,237.7c.23-.23.47.33.4.53-.21.1-.47-.46-.4-.53Z"/><path class="cls-7" d="M145.86,226.7c-.79.17-1.9-1.12-2.58-1.63-5.22-3.85-10.44-5.48-16.62-2.99-.99.4-3.1,1.87-3.98,1.06-1.31-1.2,1.02-3.28,1.87-4.01,5.84-5,14.51-3.48,19.64,1.91.63.66,2.47,3.02,2.67,3.85.17.73-.3,1.66-1,1.81Z"/><path class="cls-7" d="M124.04,238.42c-1.78-2.66-.75-7.98,2.72-8.35,4.76-.5,5.98,7.23,2.41,9.58-1.71,1.13-3.98.48-5.13-1.23Z"/><ellipse class="cls-3" cx="145.81" cy="242.05" rx="1.43" ry="1.54"/><ellipse class="cls-3" cx="128.82" cy="237.56" rx="1.43" ry="1.54"/></g></g></svg>