<?xml version="1.0" encoding="UTF-8"?>
<svg id="Capa_2" xmlns="http://www.w3.org/2000/svg" version="1.1" viewBox="0 0 280 139">
  <!-- Generator: Adobe Illustrator 29.6.0, SVG Export Plug-In . SVG Version: 2.1.1 Build 207)  -->
  <defs>
    <style>
      .st0 {
        fill: #b9b9b9;
      }

      .st1 {
        opacity: .9;
      }

      .st2 {
        fill: #0c98af;
      }

      .st3 {
        fill: #8cbbcd;
      }

      .st4 {
        fill: #283740;
        font-family: MSReferenceSansSerif, 'MS Reference Sans Serif';
        font-size: 14px;
        opacity: .8;
        stroke: #283740;
        stroke-miterlimit: 10;
        stroke-width: .5px;
      }

      .st5 {
        fill: #73ecf9;
      }

      .st6 {
        fill: #94fffc;
      }

      .st7 {
        fill: #17cccc;
      }

      .st8 {
        fill: #080808;
      }

      .st9 {
        fill: #161616;
      }
    </style>
  </defs>
  <path class="st6" d="M115.3,111.5c.6,2.6.9,6.3,3.2,5.3,0,1,0,2.1,0,3.2s-1,8.4-3.2,6.3-2.1-12.8,0-14.7Z"/>
  <path class="st7" d="M115.1,107.9s-1.7,10.6-.7,12.2c.5-1.2-.4-6.2,1.4-7.4.7-.3.5-5.1.5-5.1l-1.2.2Z"/>
  <g class="st1">
    <path class="st8" d="M203.5,87.3c1.2,0,2.1.7,3,1,1.5,3.1,4.9,4.1,8,5,.3,0,.6,1,2,1l2,1c.6.7,3,1.1,4,1l2,1c.3.3,1.4.7,2,1,3.7,8.4.9,16.5.9,24.5,0,6.8,4.5,8.3,5.1,1s-1.2-15-1-22.5c11.2-2,11.6-3.8,13,9,2.1-.4,1.9-4.4,2-6,2.6-.7,1.8,1.7,2,2-2.3,2.4.6,9-3.7,9.8s-4.7-6.9-4.4-9.8c-1.1.6-5.8.8-6,1-.9.9,4.3,21.9-2.3,25.3s-9.2-9.8-9.8-14.3c-.4-3.2.7-7.3-.2-10.3-1.4-5-15.2-8.2-20-10-1.5-.6-3.4-2.6-4.8-2.7.4-3.8,1.5-8.1,6-8Z"/>
    <path class="st8" d="M273.5,56.3c-.3,10.7-6.5,25-13.5,33-2.2,2.5-11.1,9-11.5,10h-2c-.1-1.6-1.8-4.3-.8-5.8.4-.7,10.6-7,13.3-10.2,13.3-14.9,16.2-55.4-11.3-47.3-14.8,4.3-17.3,19.9-24,30-1.7,2.5-2.5,4.5-5.7,2.4-2-1.3-13.2-11.8-13.5-13.5-.7-4.1,5,2,6.4,2.6,10.3,4.1,23.6-14.1,26.3-22.9,6.6-21.6-15.9-32.5-34.3-26.3-4.1,1.4-7.2,4.4-11.4,5.1,4.2,12.1,7.9,28.1-2,38.5-1.1,1.1-4.5,1.5-3,3.4.2.3,1.8-.2,2,0,.2.2-.1,1.4,0,2-4.6-.9-7.9,1.1-11-1.5l11-8c15.6-25.6-10.6-54.4-37.2-36.5-.6.4-6.7,6-6.8,6.5-.3,2.3,1.4,1.2,2.4,2.5,11.4,14.5,8.3,36.9,2.1,52.9-.8,2.1-4.1,6.7-4.3,7.7-.4,2.2,4,7.8,5.8,9.3,1.6,1.4,1.7,1.2,3,2,3.4,9,16.2,9.5,24,8,1.6-.3,2.4-.4,4-1,2.3-.9,2.3-1.6,3-2,4.3-2.4,6-2.9,9.4-7.1,4.7-5.6,4-7.1,5.6-13.2.3-1.1,2.3,0,2-2.7h1c0,3-1.2,8-1,9.4,0,.5,3.3,1,2,3.6-4.5-.1-5.6,4.1-6,8-3.6-.4-6,3.4-8.7,4.8-19,10.1-33.3,6.7-49.7-6-1.3-1-1.6-2.7-1.7-2.8-1.2-.8-3.6,2.1-5,2.6-1.4.5-1.9-.6-2-.6,1.4-4.1,6-6.1,9-9.5,10.1-12,15.2-38.3,10-53C140.3,4.4,104.7.2,85.9,18.6c-8.7,8.5-5.6,15.8-8.3,26.7,14.3-8.4,26.3,1.1,27.1,16.5.1,2.6-1.1,4.9-1.1,5.5h-1c.4-13.8-6.5-28.3-22.4-20.9-10.4,4.8-15.1,26.9-18.2,27.8-1.8.5-7.2-4.4-8.9-5.9-1.6-1.4-10.7-10.3-10.5-11.5.9-4.5,6.4,2.7,7.6,3.4,5.2,2.7,11,1.2,15.4-2.3,6.3-5.1,9.9-14.3,10.9-22.1,1.3-11.1-2.8-18.7-13.9-21.9-10.2-2.9-17.2.8-27,2.6-.4-.2-.8-1-1-1,4.4-5.6,13.1-7.7,20-8,5.4,1.5,10,1.8,15,5,1.4.9,3.7,3.7,5,5,2.8,2.8,1.6-.6,3-2,8.8-8.8,24.5-11.5,36.5-11,3.2.1,10.6,2.2,12.9,2,.7,0,.1-2.8,2-2,1.7,2.5,5.8,6.3,9,6,1.6-.1,3.6-2.7,5.5-3.6,11.5-5.7,28.2-8,39.4-.3,1.2.8,1.6,3,2.1,2.9,2-.7,5.8-4.1,8.8-5.2,1.6-.6,8.2-2.6,9.7-2.8.9-.1,2,0,3,0,.6,0,1.3,0,2,0,1,0,2,0,3,0,1.6,0,3.5-.2,5,0,1.1.1,3.6.7,5,1,1.3.2,3.3,1.2,5.3,2l14,12.7c.9,5.1,2.1,10.1,2.7,15.2,2.4-.1,4.5-1,7-1,15.4,0,23.4,9.9,23,25Z"/>
    <path class="st7" d="M188.5,55.3c-.2-.2-1.7.3-2,0-1.5-1.9,1.9-2.3,3-3.4,9.9-10.4,6.2-26.4,2-38.5,4.2-.7,7.3-3.7,11.4-5.1,18.3-6.2,40.8,4.7,34.3,26.3-2.7,8.8-16,27-26.3,22.8-1.5-.6-7.2-6.7-6.4-2.6s11.5,12.2,13.5,13.5c3.2,2.2,4.1.2,5.7-2.4,6.7-10.1,9.2-25.7,24-30,27.5-8.1,24.6,32.4,11.3,47.3-2.8,3.1-12.9,9.4-13.3,10.2-.9,1.6.7,4.2.8,5.8s0,2,0,3,0,1.3,0,2c0,1.6.1,5.6-2,6-1.5-12.8-1.8-11-13-9-1.1-2-3.5-2.1-5-3s-1.7-.7-2-1,.3-1.7,0-2c-.7-.7-1.9,1-2,1-1,0-3.4-.3-4-1s.2-1.8,0-2c-.5-.5-1.9,1-2,1-1.4,0-1.7-.9-2-1,.3-2.9-5.4-4.3-8-5s-1.8-1-3-1c1.2-2.7-2-3.1-2-3.6-.2-1.4,1.1-6.4,1-9.4-.2-10-3.1-17.5-14-19ZM207.5,27.3c-.1,1.4,0,1.2,0,2,0,3.7-.8,10.4,2,13,0,.6-.1,1.4,0,2,.6,3.7,4,8.5,7.1,4.3,3.5-4.8,3.6-27.6-4.6-28.4s-4.2,3.9-4.4,7Z"/>
    <path class="st8" d="M248.5,99.3c-.6,1.2,1.4,3.7-2,3,0-1,0-2,0-3h2Z"/>
    <path class="st7" d="M130.5,93.3c-.3,0-.7,0-1,0-.7,0-1.3,0-2,0l-1,16c-2.2-1.3-.7-5.5-3-7.5s-6.4-2.1-7-1.5c-.8,5.9,1.8,11.3,2,17-2.1.9-2.4-2.5-3-5-.9-4.1-.4-11.8-2.1-14.4-2-3-13-4.3-13.8-8.2s4.4-10.5,4.8-14-.9-5.8-.9-8.4,1.2-2.9,1.1-5.5c-.8-15.4-12.7-24.9-27.1-16.5,2.8-10.9-.3-18.1,8.3-26.6C104.7.2,140.3,4.4,149.5,30.7c5.1,14.7,0,41-10.1,53s-7.6,5.5-9,9.5ZM106.5,42.3c-.8,7.7.9,16.2,6,22s1.3,3,3.3,2.8c7-.5,5.4-18,4.2-22.9-2.5-10-12.2-15.5-13.6-1.9Z"/>
    <path class="st8" d="M34.5,15.3c.2,0,.6.8,1,1-8.1,9.8-14.8,21.2-14,34.5.2,3.4,1.4,4.8,2,7.5s.6,1.9,1,3,.6,2,1,3c5.3,12.3,18.7,31,32,35,1.1.3,3,1,4,1l2,1c0,0,1.6,0,2,0,.3,1,1.2.9,2,1,20.8,1.3,34.4-15.2,35-35h1c0,2.6,1.2,4.7.9,8.4s-4.9,13.3-4.8,14c.8,3.9,11.8,5.2,13.8,8.2,1.7,2.6,1.2,10.3,2.1,14.4-2,1.9-1,13,0,14,2.1,2,2.9-5.1,3-6h2c-.3,5.6,1.3,10.4-6.6,10.9-10.6.7-2.4-20-5.1-25.7-1.6-3.4-8-3.3-11.2-4.8s-2.4-3-3.7-3.3-13.6,7.2-17.8,8c-13.7,2.7-30.3-1.1-41.9-8.4-18.1-11.4-27-25.9-27.7-48.8,0-.7,0-1.3,0-2s0-1.3,0-2c0-1,0-2,0-3,1.4-.4,1.9-1.5,2-3,.7-.6,5.9-13,9-16s1.9-1.1,3-2c1.6-1.3,4.6-2,6-4,2.3,0,3.6-.9,5-1s2.2-.1,3,0Z"/>
    <path class="st8" d="M129.5,93.3c1.3,5.6,3.1,20.5-4.7,21.7-4,.6-2.4-2.7-4.3-3.7.8,3.4.1,6.2,0,9h-2c0-1,0-2,0-3-.2-5.7-2.8-11.1-2-17,.5-.5,6,.7,7,1.5,2.3,2,.8,6.2,3,7.5l1-16c.7,0,1.3,0,2,0Z"/>
    <path class="st6" d="M231.5,101.3c-.2,7.6,1.7,14.9,1,22.5s-5.1,5.8-5.1-1c0-8,2.8-16.1-.9-24.5,1.5.9,3.9,1,5,3Z"/>
    <path class="st7" d="M206.5,88.3c2.6.7,8.3,2.1,8,5-3.1-.9-6.5-1.9-8-5Z"/>
    <path class="st7" d="M216.5,94.3c.1,0,1.5-1.5,2-1s-.2,1.7,0,2l-2-1Z"/>
    <path class="st0" d="M222.5,96.3c.1,0,1.3-1.7,2-1s-.2,1.8,0,2l-2-1Z"/>
    <path class="st2" d="M35.5,16.3c9.8-1.8,16.8-5.5,27-2.5,11.1,3.2,15.2,10.8,13.8,21.9-.9,7.9-4.6,17-10.9,22.1-4.4,3.6-10.2,5-15.4,2.4s-6.7-7.8-7.6-3.4,8.9,10.1,10.5,11.5,7.1,6.4,8.9,5.9c3.1-.9,7.9-23,18.2-27.8,15.9-7.4,22.8,7.1,22.4,20.9-.6,19.8-14.2,36.3-35,35,.4-3.9-1.4-1.1-2-1s-1.9,0-2,0c-.2-.3.2-1.8,0-2-.5-.6-1.9,1-2,1-1,0-2.9-.7-4-1,0-2.3-3.4-4-5.1-5.5-6.5-5.6-14.4-12.1-18.5-20.5l-8.4-9.1c-.4-1-.7-2-1-3l1-.5c.2-2.3.3-2.9-2-2.5-.7-2.7-1.8-4.1-2-7.5-.8-13.4,5.9-24.7,14-34.5Z"/>
    <path class="st2" d="M201.5,74.3c-1-8.8-3.9-15.1-13-17-4.6-.9-7.9,1.1-11-1.5l11-8c15.6-25.6-10.6-54.4-37.2-36.5-.6.4-6.7,6-6.8,6.5-.3,2.3,1.4,1.2,2.4,2.5,11.4,14.5,8.3,36.9,2.1,52.9-.8,2.1-4.1,6.7-4.3,7.7-.4,2.2,4,7.8,5.8,9.3,4.2-.5,2.4.4,3,2,2.8,1.8,8.5,5.1,11.6,5.9,4.5,1.2,8.5.4,12.4,2.1,1.6-.3,2.4-.4,4-1-.5-2.7.6-2.1,3-2,4.3-2.4,6-2.9,9.4-7.1,4.7-5.6,4-7.1,5.6-13.2.3-1.1,2.3,0,2-2.7ZM170.9,47.2c-2.5,4.2-5.2,3.6-7.5.6,0,0,0,0,0,0-.3-.4-.6-.9-.9-1.4,0,0,0,0,0,0-.4-.7-.7-1.4-1-2.2-.2-.2-.3-.7-.4-1.2,0,0,0,0,0,0,0,0,0-.2,0-.2,0,0,0-.2,0-.3,0-.1,0-.3-.1-.4-.2-.5-.3-1.1-.4-1.7,0,0,0,0,0-.1-.5-1.8-.9-4.2-.9-6.2,0,0,0,0,0,0-.3-4.1,0-7.2,0-7.2h0c0-.2,0-.5.1-.8,2.8-9.7,10.9-5.5,12.5,2.4,1,4.5,1.2,15.1-1.1,19Z"/>
    <path class="st2" d="M150.5,90.3c4.2-.5,2.4.4,3,2,2.8,1.8,8.5,5.1,11.6,5.9,4.5,1.2,8.5.4,12.4,2.1-7.8,1.5-20.6,1-24-8-1.3-.8-1.4-.6-3-2Z"/>
    <path class="st8" d="M202.5,74.3h-1c-1-8.8-3.9-15.1-13-17-.1-.6.2-1.8,0-2,10.9,1.5,13.8,9,14,19Z"/>
    <path class="st2" d="M184.5,97.3c-.7.4-.7,1.1-3,2-.5-2.7.6-2.1,3-2Z"/>
    <path d="M212,20.2c-4.8-.4-4.2,3.9-4.5,7.1-.1,1.4,0,1.2,0,2,0,2.3-.3,5.7.1,8.6,0,.1,0,.2,0,.3.5,4.7,2,7,2,7,1,3.5,4.1,7.2,6.9,3.4,3.5-4.8,3.6-27.6-4.6-28.4ZM210.5,41.3c-.4-.4-1.8-9.1,2-8,0,.7.7,10.9-2,8Z"/>
    <path class="st8" d="M112.5,64.3v-1c.5-.1.9-.5,1-1,1-7.2-.6-14.3-3-21-1.1-.4-1.6.9-2,1s-1.4-.1-2,0c1.4-13.6,11.1-8.1,13.6,1.9,1.2,4.9,2.8,22.4-4.2,22.9s-2.4-1.8-3.3-2.8Z"/>
    <path class="st8" d="M108.5,42.3c-1.4,7.5,2.8,13.1,4,20s0,.7,0,1v1c-5.1-5.8-6.8-14.3-6-22,.6-.1,1.5.2,2,0Z"/>
    <path class="st2" d="M25.5,64.3l8.4,9.1c4.1,8.3,12,14.9,18.5,20.5,1.7,1.5,5,3.2,5.1,5.5-13.3-4-26.7-22.7-32-35Z"/>
    <path class="st2" d="M23.5,58.3c2.3-.4,2.2.2,2,2.5l-1,.5c-.4-1.1-.6-1.6-1-3Z"/>
    <path class="st2" d="M61.5,100.3c.1,0,1.5-1.6,2-1s-.2,1.7,0,2l-2-1Z"/>
    <path class="st2" d="M65.5,101.3c.6-.1,2.4-2.9,2,1-.8,0-1.7,0-2-1Z"/>
    <path class="st9" d="M163.1,46.3c0,0,0,.1,0,.2l-.3-.2c0,0,.1,0,.2,0Z"/>
    <path class="st9" d="M163.1,46.5l.9.6c-.5.2-.7,0-.9-.6Z"/>
    <path class="st9" d="M164.1,47.1h0s0,0,0,0h0Z"/>
    <path class="st9" d="M164.1,47.1c-.5.2-.7,0-.9-.6l.9.6Z"/>
    <path class="st8" d="M112.5,63.3c0-.3,0-.7,0-1h1c0,.5-.5.9-1,1Z"/>
    <path class="st9" d="M160.9,41.9c-.1-.5-.3-1-.4-1.7.1.6.3,1.1.4,1.7Z"/>
    <path class="st9" d="M163.5,47.1c0,0-.1,0-.1,0h.2,0Z"/>
    <path class="st9" d="M172.4,28.2c-1.7-7.7-10-11.9-13.1-3.1-.3.6-.5,1.5-.6,2.5-1.1,5.5,3.5,18.7,3.5,18.7,2.5,4.3,5.9,5.7,9,.9,2.4-3.9,2.2-14.5,1.2-19ZM163.3,47.1s0,0,.1,0c0,0,0,0,0,0h0c0,0-.2,0-.2,0ZM165.5,45.7c-.1.5-.6.6-1.2.6l-3.2-19.1c.8,0,1.5-.1,2,.2,2.2,1.3,2.9,15.6,2.4,18.3Z"/>
    <path class="st9" d="M163.1,46.3c0,0,0,.1,0,.2l-.3-.2c0,0,.1,0,.2,0Z"/>
    <path class="st9" d="M164.1,47.1h0s0,0,0,0h0Z"/>
    <path class="st9" d="M163.5,47.1h-.2s0,0,.1,0c0,0,0,0,0,0h0Z"/>
    <path class="st8" d="M198.8,80.1s2.5-8.9.2-15.3c2,2.3,2.1,9,2.1,9l-1.1,5.6-1.1.7Z"/>
    <polygon class="st8" points="199.9 77 201.5 77.7 201.5 70.1 200.7 69.2 199.9 77"/>
    <path class="st8" d="M153.5,92.3s17.6,12.8,32.7,4.1c-.3,2.9-.7,3.9-.7,3.9l-13.3,3-11.1-.9-9.6-5.1,1.9-5Z"/>
    <path class="st8" d="M248.7,98.6s-.1,7.2-.1,7.6-1.6,1-1.6,1l-.4-3.2v-2.7c0,0,.1-2.7.1-2.7h2.1Z"/>
    <path class="st8" d="M248.5,106.3s-1.1,4-1.1,6.2c-.6-.4-.9-1.8-.9-1.8l.7-2.6,1.3-1.8Z"/>
    <path class="st8" d="M248.5,106.3s0,3.6-1.1,6.2c-.9.2-.5-2.3-.5-2.3l.7-3,.7-1h.2Z"/>
    <path class="st8" d="M201.5,83.6s11.3,9.9,13.7,10.2c-1.6,3-5.2.9-5.2.9l-7.5-3.9-1-7.1Z"/>
    <path class="st8" d="M211.9,92s12.7,6.8,14.6,6.3c-1.5,3.5-10,1-10,1l-4.6-3.7v-3.5Z"/>
    <path class="st8" d="M201.5,83.6"/>
    <polygon class="st7" points="218.5 95.3 226.5 99.3 226.5 95.5 219.8 93.2 218.5 95.3"/>
    <polyline class="st7" points="226.6 98.5 227.4 100.5 226.3 99.2 226.5 98.3"/>
    <path class="st8" d="M147.1,20.6s-3.3-4.6-3.9-4.5c-.6,1,2.7,5.2,2.7,5.2l1.1-.7Z"/>
    <path class="st8" d="M106.5,42.3s-1.8,16.8,6,24.9c2.7.5,4.8-.4,4.8-.4,0,0-11.8-12.6-10.8-24.4Z"/>
    <path class="st8" d="M104.4,59.4s1.9,14.2,0,16.3c-.9-.3-1.1-4.6-1.1-4.6v-7.8l1.1-3.9Z"/>
    <path class="st8" d="M21.4,46.8"/>
    <path class="st2" d="M21.5,50.8s10.8,46,44,50.5c-2.1,3.2-26.5-7.7-34.8-25.6-2.8-3.6-9.7-20.1-9.2-24.8Z"/>
    <path class="st2" d="M27.4,68.3l1.9-.8s14.1,28.9,33.6,32.2c-.9,1.4-1.4,1.5-1.4,1.5l-2.8-1-12.4-6.9-4.8-4.3-7-7.8-1.5-2.9-5.6-10Z"/>
    <polygon class="st2" points="63.6 101.8 67.5 102.3 65.3 100.2 63.6 101.8"/>
    <path class="st8" d="M127.5,93.3"/>
    <path class="st8" d="M136.7,91.2l-9.5,7.2v-5.2s.3-1,1-1,.9,0,.9,0c0,0,.5.7.5,1.2,0,.6.9.2.9.2l.9-1.4.4-1.2h5Z"/>
    <path class="st8" d="M129.1,92.3s.3.8.8.8c.5-.2,1.1-.8,1.1-.8l.5,1.6-1.6.9-.8-2.5Z"/>
    <path class="st7" d="M246.5,99.3s-1.3-4.3,0-5.6c2-1.3,8.9-6,8.9-6,0,0,3.9-3.7,4.4-5.4-1.4-1.6-2.9-1.3-2.9-1.3l-8.7,5.2-3.8,7.3,2.1,5.7Z"/>
    <path class="st7" d="M246.5,99.3s-.3-4,.3-4.5c.7-.7,2.8-2.2,2.8-2.2,0,0,4.7-2.6,5.8-4.9-.4-2.2-3-1-3-1l-4.5,2.8-3.6,4.4,2.1,5.3Z"/>
    <path d="M6.5,42.3S12.4,5.3,50,7.7c7.5,2.8-8.5,2.4-8.5,2.4l-7,5.9-5.2,4.1-9.8,11.4-4.4,10.3-8.5.4Z"/>
    <path d="M31.9,20.9s3-5.2,8.6-5.7c2-2.8-3.7-3.2-3.7-3.2l-5.9,3.2v4.5l.9,1.1Z"/>
    <path d="M6.5,41.3S9.4,13.5,37.2,7.3c15.4-.7,20-2.3,30.4,3.8.3,2.4-14-1.2-14-1.2h-17.5l-6.1,5.2L6.5,42.3v-1Z"/>
    <polygon points="77 16.1 74 18.7 77 20.9 78 17.2 77 16.1"/>
    <path d="M103.7,4.6s14.9-3.6,34.2,5.7c-4.9.2-15.5-3.8-15.5-3.8l-18.7-1.9Z"/>
    <path d="M74.5,17.3s9.2-13.4,29.2-12.7c6.1-1-13.9,4.8-13.9,4.8l-13.1,8.6-2.2-.6Z"/>
    <path d="M95,5.2s10.1-4.6,34-.9c.2,2.1,0,3.3,0,3.3l-19.6-2.4h-14.4Z"/>
    <path d="M129,4.3s9.1,1.8,15.5,7.7c-2.3,3.2-5.5.6-5.5.6l-5.9-2.9-4.9-4,.9-1.4Z"/>
    <path d="M170.2,1.8s17.2,3.3,18.8,8.5c1,3.7-.6,4.2-.6,4.2l-5.3-6.9-13-3.7V1.8Z"/>
    <path d="M187.2,8s14.4-12.8,37.3-4.7c.4,2.4-4.6,1.8-4.6,1.8l-24.6,1.3-8,1.5Z"/>
    <path d="M187.2,8"/>
    <path class="st8" d="M226.8,4.3s9.9,4.5,14,12.7c-1.7,1.5-3.7-1.2-3.7-1.2l-10.3-10.9v-.6Z"/>
    <path class="st8" d="M240.8,17s4.5,7.5,4.5,15c-1.4,1.9-2.8,1.9-2.8,1.9l-1.6-7v-9.9Z"/>
    <path class="st5" d="M41.5,64.3s-3.3-2.7-2.2-4.6,2.2-.3,2.2-.3c0,0,13.7,16.1,16.8,15.5.9.8-1,2.4-1,2.4,0,0-14.9-9.8-15.8-13Z"/>
    <path class="st5" d="M39.1,60.2s.6,7.9,9.7,14.2c4.3,1.9,8.5,2.9,8.5,2.9l-18.2-17.1Z"/>
    <path class="st5" d="M65.5,20.2s12.9,6.7,3.7,24.5c-2.3-1-.2-12.3-.2-12.3l-3.5-12.3Z"/>
    <path class="st5" d="M93.4,50.2s6.6.7,5.1,24.1c-2.3,2.2-5.1,3.4-5.1,3.4,0,0,5.1-23.1,0-27.4Z"/>
    <path class="st6" d="M104.9,35.2s-4.7,27,6.9,34c-1.4-3.1-8.7-25.2-5.5-31.7,3.3-6.6-.3-.7-.3-.7l-1.1-1.6Z"/>
    <path class="st6" d="M142,25.5s10.4,6,5.1,35.6c-3.3,3.8-6.4,6.1-6.4,6.1,0,0,3.8-7.2,3.9-11.9.7-3.4,1.2-27.4-2.7-29.8Z"/>
    <path class="st5" d="M154.7,26.3s1.6,21.8,8.2,23.1c1.1.8.5-.9.5-.9,0,0-7.2-15.3-7.2-20.7,1-1.4-1.4-1.5-1.4-1.5Z"/>
    <path class="st5" d="M179.8,20.2s1.9,23.7,1.3,25-2.3,2.9-2.3,2.9c0,0,8.3-2.3,7.4-5s-.5-23.9-6.3-22.9Z"/>
    <path class="st3" d="M195.5,69.2s-5.8,23.9-18,25c-1.8,2.1-1.8,3.5-1.8,3.5,0,0,16.3-5.1,16.1-11.4,1.8-4.1,6.2-10.2,5.7-12.1s-2-5.1-2-5.1Z"/>
    <path class="st5" d="M177.5,94.2s9.6-2.2,18-25c1.3.9,2.1,6.4,2.1,6.4,0,0-5.7,13.2-7.6,15.4-2.4,2.1-13.5,7.9-14.2,6.7.6-1.8,1.8-3.5,1.8-3.5Z"/>
    <path class="st6" d="M203.2,22.3s-2,27.4,5.1,28.8c1.5-.9-1.8-5.8-1.8-5.8l-1.8-19.9-1.5-3.1Z"/>
    <path class="st6" d="M229.6,13.6s9.8,8.4,4.9,19.6c-.9,3-1.8,4.8-1.8,4.8v-10.8s0-7.7-3.1-13.6Z"/>
    <path class="st6" d="M252.1,39.5s15.8,2.6,11.2,18.9c-1,3.6-.5,7.4-3.4,15.1-2.8,4.1-4.4,2.4-4.4,2.4,0,0,6.1-15.7,4.4-18.9-1.7-3.2,1.5-7.8-7.7-17.4Z"/>
    <path class="st6" d="M252.1,39.5s10.9,6.5,3.3,36.3c1.6.9,4.4-5.6,4.4-5.6l.9-16.6-2.6-8.9-6-5.2Z"/>
    <path class="st6" d="M263.3,48.1s3.7,6.3-2.6,22.8c-1.5.7-1.4-3.8-1.4-3.8l4-19Z"/>
    <path class="st6" d="M207.4,60.9s6,9.6,10.1,10.1c2.4,1.3-2.3,1.4-2.3,1.4l-5.2-2.3s-3.5-5.4-2.5-9.2Z"/>
  </g>
  <text class="st4" transform="translate(27.1 119.2) scale(.9 1)"><tspan x="0" y="0">TRIBUTE TO</tspan></text>
</svg>