<?xml version="1.0" encoding="UTF-8"?><svg id="Capa_1" xmlns="http://www.w3.org/2000/svg" viewBox="0 0 286.43 160"><defs><style>.cls-1{fill:#f2f2f2;}</style></defs><path class="cls-1" d="M283.64,80.43c-2.75,23.99-10.62,46.27-22.39,65.52-1.69,2.76-3.46,5.46-5.3,8.09H30.17c-1.83-2.63-3.59-5.33-5.26-8.09C13.12,126.5,5.33,103.93,2.79,79.63c.01-.02.03-.04.04-.07.03.29.06.59.09.87h8.38c-2.16-6.56-3.33-13.93-3.58-22.36-.02-.73,0-1.46,0-2.18,0-.74-.02-1.47,0-2.19.02-.72-.02-1.46-.03-2.19v-.09c0-.34.01-.67.03-1,0,0,2.88-30.4,30.99-37.15,15.58-.74,20.19-2.46,30.62,4.16.02.01.03.02.05.03.65.36,1.31.77,1.98,1.24,1.38.96,3.78,4.07,5.05,5.47,0,0,6.6-10.37,20.73-13.18h.01c.4-.2,10.43-4.88,33.58-1.15.18-.03.42,0,.71.12,0,0,5.92,1.27,11.59,5.12.99-.87,2.02-1.9,3.04-2.44,7.77-4.11,17.83-6.63,27.03-5.37h0s.02-.01.05,0c.02,0,.05.01.08.02,2.66.36,5.24,1.05,7.67,2.1,3.44,1.15,7.17,2.72,9.39,4.64,0,0,.02-.02.07-.06,1.03-.96,13.29-11.72,32.59-6.65.04,0,.06,0,.09.02.68.16,1.34.31,1.86.42.79.16,1.86.62,3.02,1.17.77.34,1.57.72,2.37,1.06,0,0,10.03,4.88,14.11,13.88,0,0,4.54,8.18,4.5,16.46,1.75-.31,3.44-.84,5.3-.85,15.55-.09,23.64,10.88,23.23,27.34-.1,4.19-.97,8.9-2.37,13.61h8.58Z"/></svg>