<?xml version="1.0" encoding="UTF-8"?>
<svg id="Capa_2" xmlns="http://www.w3.org/2000/svg" version="1.1" viewBox="0 0 280 139">
  <!-- Generator: Adobe Illustrator 29.6.0, SVG Export Plug-In . SVG Version: 2.1.1 Build 207)  -->
  <defs>
    <style>
      .st0 {
        opacity: .9;
      }

      .st1 {
        fill: #ffa466;
      }

      .st2 {
        fill: #283740;
      }

      .st2, .st3, .st4, .st5 {
        isolation: isolate;
      }

      .st2, .st5 {
        font-family: MSReferenceSansSerif, 'MS Reference Sans Serif';
        font-size: 14px;
      }

      .st6 {
        fill: #ff934a;
      }

      .st7 {
        fill: #080808;
      }

      .st3 {
        opacity: .8;
      }

      .st8 {
        fill: #8cbbcd;
      }

      .st9 {
        fill: #ffe2b3;
      }

      .st10 {
        fill: #ffdc9e;
      }

      .st5 {
        fill: none;
        stroke: #283740;
        stroke-miterlimit: 10;
        stroke-width: .5px;
      }

      .st11 {
        fill: #b9b9b9;
      }

      .st12 {
        fill: #ff9240;
      }

      .st13 {
        fill: #161616;
      }
    </style>
  </defs>
  <path class="st9" d="M115.2,111.5c.6,2.6.9,6.3,3.2,5.3v3.2c0,.9-1,8.4-3.2,6.3-1.1-1.1-2.1-12.8,0-14.7h0Z"/>
  <path class="st1" d="M115.1,107.9s-1.7,10.6-.7,12.2c.5-1.2-.4-6.2,1.4-7.4.7-.3.5-5.1.5-5.1l-1.2.2h0Z"/>
  <g class="st0">
    <path class="st7" d="M203.4,87.3c1.2,0,2.1.7,3,1,1.5,3.1,4.9,4.1,8,5,.3,0,.6,1,2,1l2,1c.6.7,2.9,1.1,4,1l2,1c.3.3,1.4.7,2,1,3.7,8.4.9,16.5.9,24.5s4.4,8.3,5.1,1-1.2-15-1-22.5c11.2-2,11.6-3.8,13,9,2.1-.4,1.9-4.4,2-6,2.6-.7,1.8,1.8,2,2-2.3,2.4.6,8.9-3.6,9.8-4.7.9-4.7-6.9-4.4-9.8-1.1.6-5.8.8-6,1-.9.9,4.3,21.9-2.3,25.2-7,3.6-9.2-9.8-9.8-14.3-.4-3.2.7-7.3-.2-10.3-1.4-5-15.2-8.2-20-10-1.5-.6-3.4-2.6-4.8-2.7.4-3.8,1.5-8.1,6-8h.1Z"/>
    <path class="st7" d="M273.4,56.3c-.3,10.7-6.5,25-13.5,33-2.2,2.5-11.1,9-11.5,10h-2c-.1-1.6-1.8-4.3-.8-5.8.4-.7,10.6-7,13.4-10.2,13.3-14.9,16.2-55.4-11.3-47.3-14.8,4.3-17.3,19.9-24,30-1.7,2.5-2.5,4.5-5.7,2.4-2-1.3-13.2-11.8-13.5-13.5-.7-4.1,5,2,6.4,2.6,10.3,4.2,23.6-14,26.3-22.8,6.6-21.6-15.9-32.5-34.3-26.3-4.1,1.4-7.2,4.4-11.4,5.1,4.2,12.1,7.9,28.1-2,38.5-1.1,1.1-4.6,1.5-3,3.4.2.3,1.8-.2,2,0s-.1,1.4,0,2c-4.6-1-7.9,1.1-11-1.5l11-8c15.6-25.5-10.6-54.4-37.2-36.5-.6.4-6.7,6-6.8,6.5-.3,2.3,1.4,1.2,2.4,2.5,11.4,14.5,8.3,36.9,2.1,52.9-.8,2.2-4.1,6.7-4.3,7.7-.4,2.2,4,7.8,5.8,9.3,1.6,1.4,1.7,1.2,3,2,3.4,9,16.2,9.5,24,8,1.6-.3,2.4-.4,4-1,2.3-.9,2.3-1.6,3-2,4.3-2.4,6-2.9,9.4-7.1,4.7-5.6,4-7.1,5.6-13.2.3-1.1,2.3,0,2-2.7h1c0,3-1.2,8-1.1,9.4,0,.5,3.3,1,2.1,3.6-4.5,0-5.6,4.2-6,8-3.6-.4-5.9,3.4-8.7,4.8-19,10.1-33.3,6.7-49.7-6-1.3-1-1.6-2.7-1.7-2.8-1.2-.8-3.6,2.1-4.9,2.6-1.4.5-1.9-.6-2-.6,1.4-4.1,6-6.1,9-9.5,10.1-12,15.2-38.3,10.1-53C140.2,4.4,104.6.2,85.8,18.6c-8.7,8.5-5.6,15.8-8.3,26.6,14.3-8.4,26.3,1.1,27.1,16.5,0,2.6-1.1,4.9-1.1,5.5h-1c.4-13.8-6.5-28.3-22.4-20.9-10.4,4.8-15.1,26.9-18.2,27.8-1.8.5-7.2-4.4-8.9-5.9-1.6-1.4-10.7-10.3-10.5-11.5.9-4.5,6.4,2.7,7.6,3.4,5.2,2.7,11,1.2,15.4-2.3,6.3-5.1,9.9-14.3,10.9-22.1,1.3-11.1-2.8-18.7-13.8-21.9-10.2-2.9-17.2.8-27,2.6-.4-.2-.8-1-1-1,4.3-5.6,13.2-7.7,20-8,5.4,1.5,9.9,1.8,15,5,1.4.9,3.7,3.7,5,5,2.8,2.8,1.6-.6,3-2,8.8-8.8,24.5-11.5,36.5-11,3.2,0,10.6,2.2,12.9,2,.7,0,0-2.8,2-2,1.7,2.5,5.8,6.3,9,6,1.6-.1,3.6-2.7,5.5-3.6,11.6-5.7,28.2-8,39.4-.3,1.2.8,1.6,3,2.1,2.9,2-.7,5.8-4.1,8.8-5.2,1.6-.6,8.2-2.6,9.7-2.8.9-.1,2,0,3,0h5c1.6,0,3.5-.2,5,0,1.1.1,3.6.7,5,1,1.3.2,3.3,1.2,5.3,2l14,12.7c.9,5.1,2.1,10.1,2.7,15.2,2.4-.1,4.5-1,7-1,15.4,0,23.4,10,23,25,0,0-.1,0-.1,0Z"/>
    <path class="st1" d="M188.4,55.3c-.2-.2-1.7.3-1.9,0-1.6-1.9,1.9-2.3,3-3.4,9.9-10.5,6.2-26.4,2-38.5,4.2-.7,7.3-3.7,11.4-5.1,18.3-6.2,40.8,4.6,34.3,26.3-2.7,8.8-16,27-26.3,22.8-1.5-.6-7.2-6.7-6.4-2.6.3,1.7,11.5,12.2,13.5,13.5,3.2,2.2,4.1.2,5.7-2.4,6.7-10.1,9.2-25.7,24-30,27.5-8.1,24.6,32.4,11.3,47.3-2.8,3.1-12.9,9.4-13.4,10.2-.9,1.6.7,4.2.8,5.8v5c-.1,1.6.1,5.6-2,6-1.5-12.8-1.8-11-13-9-1.1-2-3.5-2.1-5-3-.6-.3-1.7-.7-2-1s.3-1.7,0-2c-.6-.7-1.9,1-2,1-1.1,0-3.4-.3-4-1-.2-.3.2-1.8,0-2-.5-.6-1.9,1-2,1-1.4,0-1.7-.9-2-1,.3-2.9-5.4-4.3-8-5-.9-.3-1.8-1-3-1,1.2-2.7-2-3.1-2-3.6-.2-1.4,1.1-6.4,1-9.4-.2-10-3.1-17.5-14-19h0ZM207.4,27.3c-.1,1.4,0,1.2,0,2,0,3.7-.8,10.4,2,13,0,.7-.1,1.4,0,2,.6,3.7,4,8.5,7.1,4.3,3.5-4.8,3.6-27.6-4.6-28.4-4.8-.4-4.2,4-4.4,7h-.1Z"/>
    <path class="st7" d="M248.4,99.3c-.6,1.2,1.4,3.7-2,3v-3h2Z"/>
    <path class="st1" d="M130.4,93.3h-3l-1,16c-2.2-1.3-.7-5.5-3-7.5-1-.8-6.4-2.1-7-1.5-.8,5.9,1.8,11.3,2,17-2.1.9-2.4-2.5-3-5-.9-4.1-.4-11.8-2.1-14.4-1.9-3-13-4.3-13.8-8.2,0-.7,4.4-10.5,4.8-14s-.9-5.8-.9-8.4,1.2-2.9,1.1-5.5c-.8-15.4-12.7-24.9-27.1-16.5,2.8-10.9-.3-18.1,8.3-26.6C104.6.2,140.2,4.4,149.4,30.8c5.1,14.7,0,41-10.1,53-2.9,3.5-7.6,5.5-9,9.5h.1ZM106.4,42.3c-.8,7.7.9,16.2,6,22,.9,1.1,1.3,3,3.3,2.9,7-.5,5.4-18,4.2-22.9-2.5-10-12.2-15.5-13.6-1.9h0Z"/>
    <path class="st7" d="M34.4,15.3c.2,0,.6.8,1,1-8.1,9.8-14.9,21.1-14,34.5.2,3.4,1.4,4.8,2,7.5.4,1.4.6,1.9,1,3,.4,1,.6,2,1,3,5.3,12.3,18.6,31,32,35,1.1.3,3,1,4,1l2,1h2c.3,1,1.2.9,2,1,20.8,1.3,34.4-15.2,35-35h1c0,2.6,1.2,4.7.9,8.4s-4.9,13.3-4.8,14c.8,3.9,11.8,5.2,13.8,8.2,1.7,2.6,1.2,10.3,2.1,14.4-2,1.9-1,13,0,14,2.1,2,2.9-5.1,3-6h2c-.3,5.6,1.3,10.4-6.6,10.9-10.6.7-2.4-20.1-5.1-25.7-1.6-3.4-8-3.2-11.2-4.8-1.4-.7-2.4-3-3.7-3.3-1-.2-13.6,7.2-17.8,8-13.7,2.7-30.3-1.1-41.9-8.4-18.1-11.4-27-25.9-27.7-48.8v-7c1.4-.4,1.9-1.5,2-3,.7-.6,5.9-13,9-16,.1-.1,1.9-1.1,3-2,1.6-1.3,4.6-2,6-4,2.3,0,3.6-.9,5-1,.9,0,2.2-.1,3,0h0Z"/>
    <path class="st7" d="M129.4,93.3c1.3,5.6,3.1,20.5-4.7,21.7-4,.6-2.4-2.7-4.3-3.7.8,3.4,0,6.2,0,9h-2v-3c-.2-5.7-2.8-11.1-2-17,.5-.5,6,.7,7,1.5,2.3,2,.8,6.2,3,7.5l1-16h2Z"/>
    <path class="st9" d="M231.4,101.3c-.2,7.6,1.7,14.9,1,22.5-.7,7.6-5.1,5.8-5.1-1s2.8-16.1-.9-24.5c1.5.9,3.9,1,5,3h0Z"/>
    <path class="st1" d="M206.4,88.3c2.6.7,8.3,2.1,8,5-3.1-.9-6.5-1.9-8-5Z"/>
    <path class="st1" d="M216.4,94.3c.1,0,1.5-1.5,2-1s-.2,1.7,0,2l-2-1h0Z"/>
    <path class="st11" d="M222.4,96.3c.1,0,1.3-1.7,2-1s-.2,1.8,0,2l-2-1Z"/>
    <path class="st6" d="M35.4,16.3c9.8-1.8,16.8-5.5,27-2.5,11.1,3.2,15.2,10.8,13.9,21.9-.9,7.9-4.6,17-10.9,22.1-4.3,3.6-10.2,5-15.4,2.3-1.2-.6-6.7-7.8-7.6-3.4-.2,1.2,8.9,10.1,10.5,11.5,1.7,1.5,7.1,6.4,8.9,5.9,3.1-.9,7.9-23,18.2-27.8,15.9-7.4,22.8,7.1,22.4,20.9-.6,19.8-14.2,36.3-35,35,.4-3.9-1.4-1.1-2-1h-2c-.2-.3.2-1.8,0-2-.5-.6-1.9,1-2,1-1,0-2.9-.7-4-1,0-2.2-3.4-4-5.1-5.5-6.5-5.6-14.5-12.1-18.5-20.5l-8.4-9.1c-.4-1-.6-2-1-3l1-.5c.2-2.3.3-2.9-2-2.5-.7-2.7-1.8-4.1-2-7.5-.8-13.4,6-24.8,14-34.5h0s0,.2,0,.2Z"/>
    <path class="st6" d="M201.4,74.3c-1-8.8-3.9-15.1-13-17-4.6-1-7.9,1.1-11-1.5l11-8c15.6-25.5-10.6-54.4-37.2-36.5-.6.4-6.7,6-6.8,6.5-.3,2.3,1.4,1.2,2.4,2.5,11.4,14.5,8.3,36.9,2.1,52.9-.8,2.2-4.1,6.7-4.3,7.7-.4,2.2,4,7.8,5.8,9.3,4.2-.5,2.4.4,3,2,2.8,1.8,8.5,5.1,11.6,5.9,4.5,1.2,8.5.4,12.4,2.1,1.6-.3,2.4-.4,4-1-.5-2.7.6-2.1,3-2,4.3-2.4,6-2.9,9.4-7.1,4.7-5.6,4-7.1,5.6-13.2.3-1.1,2.3,0,2-2.7h0ZM170.8,47.2c-2.5,4.2-5.2,3.7-7.5.6h0c-.3-.4-.6-.9-.9-1.4h0c-.4-.7-.7-1.4-1-2.2-.2-.2-.3-.7-.4-1.2h0v-.5s0-.3-.1-.4c-.2-.5-.3-1.1-.4-1.7h0c-.4-1.9-.9-4.3-.9-6.3h0c-.3-4.2,0-7.3,0-7.3h0c0-.2,0-.5.1-.8,2.8-9.7,10.9-5.5,12.5,2.4.9,4.5,1.2,15.1-1.1,19h0l-.3-.2h0Z"/>
    <path class="st12" d="M150.4,90.3c4.2-.5,2.4.4,3,2,2.8,1.8,8.5,5.1,11.6,5.9,4.5,1.2,8.5.4,12.4,2.1-7.8,1.5-20.6,1-24-8-1.3-.8-1.4-.6-3-2Z"/>
    <path class="st7" d="M202.4,74.3h-1c-1-8.8-3.9-15.1-13-17-.1-.6.2-1.8,0-2,10.9,1.5,13.8,9,14,19Z"/>
    <path class="st12" d="M184.4,97.3c-.7.4-.6,1.1-3,2-.5-2.7.6-2.1,3-2Z"/>
    <path d="M211.9,20.2c-4.8-.4-4.2,4-4.4,7.1-.1,1.4,0,1.2,0,2,0,2.3-.3,5.7.1,8.6v.3c.5,4.7,2,7,2,7,1,3.5,4.1,7.2,6.9,3.4,3.5-4.8,3.6-27.6-4.6-28.4ZM210.4,41.3c-.4-.4-1.8-9.1,2-8,0,.7.7,10.9-2,8Z"/>
    <path class="st7" d="M112.4,64.3v-1c.5,0,.9-.5,1-1,1-7.2-.6-14.3-3-21-1.1-.4-1.6.9-2,1-.5.2-1.4,0-2,0,1.3-13.6,11.1-8.1,13.6,1.9,1.2,4.9,2.8,22.4-4.2,22.9-2,.2-2.4-1.8-3.3-2.8h0Z"/>
    <path class="st7" d="M108.4,42.3c-1.4,7.5,2.8,13.1,4,20v2c-5.1-5.8-6.8-14.3-6-22,.6,0,1.5.2,2,0Z"/>
    <path class="st6" d="M25.4,64.3l8.4,9.1c4.1,8.3,12,14.9,18.5,20.5,1.7,1.4,5,3.2,5.1,5.5-13.3-4-26.7-22.7-32-35h0Z"/>
    <path class="st6" d="M23.4,58.3c2.3-.4,2.2.2,2,2.5l-1,.5c-.4-1.1-.6-1.6-1-3Z"/>
    <path class="st6" d="M61.4,100.3s1.5-1.6,2-1c.2.2-.2,1.7,0,2l-2-1h0Z"/>
    <path class="st6" d="M65.4,101.3c.6,0,2.4-2.9,2,1-.8,0-1.7,0-2-1Z"/>
    <path class="st13" d="M163,46.3v.2l-.3-.2h.3Z"/>
    <path class="st13" d="M163,46.5l.9.6c-.5.2-.7,0-.9-.6Z"/>
    <path class="st13" d="M164,47.1h0Z"/>
    <path class="st13" d="M164,47.1c-.5.2-.7,0-.9-.6l.9.6Z"/>
    <path class="st7" d="M112.4,63.3v-1h1c0,.5-.5.9-1,1Z"/>
    <path class="st13" d="M160.8,41.9c-.1-.5-.3-1-.4-1.7.1.6.3,1.1.4,1.7Z"/>
    <path class="st13" d="M163.4,47.1h-.1.2,0Z"/>
    <path class="st13" d="M172.3,28.2c-1.7-7.7-10-11.9-13.1-3.1-.3.6-.5,1.5-.6,2.5-1.1,5.5,3.5,18.7,3.5,18.7,2.5,4.3,5.9,5.7,8.9.9,2.4-3.8,2.2-14.5,1.2-19h.1ZM163.2,47.1h.1-.2,0ZM165.4,45.7c-.1.5-.6.6-1.2.6l-3.2-19.1c.8,0,1.5-.1,2,.2,2.2,1.3,2.9,15.6,2.4,18.3h0Z"/>
    <path class="st13" d="M163,46.3v.2l-.3-.2h.3Z"/>
    <path class="st13" d="M164,47.1h0Z"/>
    <path class="st13" d="M163.5,47.1h-.2.2Z"/>
    <path class="st7" d="M198.7,80.1s2.5-8.9.1-15.3c1.9,2.3,2.1,9,2.1,9l-1.1,5.6-1.1.7h0Z"/>
    <polygon class="st7" points="199.8 77 201.4 77.7 201.4 70.1 200.6 69.2 199.8 77"/>
    <path class="st7" d="M153.4,92.3s17.6,12.8,32.7,4.1c-.3,2.9-.7,3.9-.7,3.9l-13.3,3-11.1-.9-9.6-5.1,1.9-5h.1Z"/>
    <path class="st7" d="M248.6,98.6s-.1,7.2-.1,7.6-1.6,1-1.6,1l-.4-3.2v-5.4h2.2-.1,0Z"/>
    <path class="st7" d="M248.4,106.3s-1.1,4-1.1,6.2c-.6-.4-.9-1.8-.9-1.8l.7-2.6,1.3-1.8h0Z"/>
    <path class="st7" d="M248.4,106.3s0,3.6-1.1,6.2c-.9.2-.5-2.3-.5-2.3l.8-3,.7-1h.2,0Z"/>
    <path class="st7" d="M201.4,83.6s11.3,9.9,13.7,10.2c-1.6,3-5.2.9-5.2.9l-7.5-3.9-1-7.1h0Z"/>
    <path class="st7" d="M211.8,92s12.7,6.8,14.6,6.3c-1.5,3.5-10,1-10,1l-4.6-3.7v-3.5h0Z"/>
    <polygon class="st1" points="218.4 95.3 226.4 99.3 226.4 95.5 219.8 93.2 218.4 95.3"/>
    <polyline class="st1" points="226.5 98.6 227.3 100.5 226.2 99.2 226.4 98.3"/>
    <path class="st7" d="M147,20.6s-3.3-4.6-3.9-4.5c-.6,1,2.7,5.2,2.7,5.2l1.1-.7h0Z"/>
    <path class="st7" d="M106.4,42.3s-1.8,16.8,6,24.9c2.7.5,4.8-.4,4.8-.4,0,0-11.8-12.6-10.8-24.4h0Z"/>
    <path class="st7" d="M104.2,59.4s1.9,14.2,0,16.3c-.9-.3-1.1-4.6-1.1-4.6v-7.8s1.1-3.9,1.1-3.9Z"/>
    <path class="st6" d="M21.4,50.8s10.8,46,44,50.5c-2.2,3.2-26.5-7.7-34.8-25.6-2.8-3.6-9.7-20.1-9.2-24.8h0Z"/>
    <path class="st6" d="M27.3,68.3l1.9-.8s14.1,28.9,33.6,32.2c-.9,1.4-1.4,1.5-1.4,1.5l-2.8-1-12.4-6.9-4.8-4.3-7-7.8-1.5-2.9-5.6-10h0Z"/>
    <polygon class="st6" points="63.5 101.9 67.4 102.3 65.2 100.2 63.5 101.9"/>
    <path class="st7" d="M136.5,91.2l-9.5,7.2v-5.2s.3-1.1,1-1h.9s.5.7.5,1.2.9.2.9.2l.9-1.4.4-1.2h5v.2h0Z"/>
    <path class="st7" d="M129,92.3s.3.8.8.8c.5-.2,1.1-.8,1.1-.8l.5,1.6-1.6.9-.8-2.5h0Z"/>
    <path class="st1" d="M246.4,99.3s-1.3-4.3,0-5.6c2-1.3,8.9-6,8.9-6,0,0,3.9-3.7,4.4-5.4-1.4-1.6-3-1.2-3-1.2l-8.7,5.2-3.8,7.3,2.1,5.7h.1Z"/>
    <path class="st1" d="M246.4,99.3s-.3-4,.3-4.5c.7-.7,2.8-2.2,2.8-2.2,0,0,4.7-2.6,5.8-4.8-.4-2.2-3-1-3-1l-4.5,2.8-3.6,4.4,2.1,5.3h0Z"/>
    <path d="M6.4,42.3S12.3,5.3,49.9,7.7c7.5,2.8-8.5,2.4-8.5,2.4l-7,5.9-5.2,4.1-9.8,11.4-4.4,10.3-8.5.4h-.1Z"/>
    <path d="M31.8,20.9s3-5.2,8.6-5.7c2-2.8-3.7-3.2-3.7-3.2l-5.9,3.2v4.6l.9,1.1h.1Z"/>
    <path d="M6.4,41.3S9.3,13.5,37.1,7.3c15.5-.7,20-2.3,30.4,3.8.3,2.4-14-1.2-14-1.2h-17.5l-6.1,5.2L6.4,42.3v-1Z"/>
    <polygon points="76.9 16.1 73.8 18.7 76.9 20.9 77.9 17.2 76.9 16.1"/>
    <path d="M103.6,4.6s14.9-3.7,34.2,5.7c-4.9.2-15.5-3.8-15.5-3.8l-18.7-1.9h0Z"/>
    <path d="M74.4,17.3s9.2-13.4,29.2-12.7c6.1-1-13.9,4.8-13.9,4.8l-13.2,8.5-2.2-.6h0Z"/>
    <path d="M94.9,5.2s10.1-4.6,34-.9c.1,2.1,0,3.3,0,3.3l-19.6-2.4h-14.4Z"/>
    <path d="M128.9,4.3s9.1,1.8,15.5,7.7c-2.3,3.2-5.5.6-5.5.6l-5.9-2.9-4.9-4,.9-1.4s-.1,0-.1,0Z"/>
    <path d="M170.1,1.8s17.2,3.3,18.8,8.5c1,3.7-.6,4.2-.6,4.2l-5.3-6.9-13-3.7V1.8h.1Z"/>
    <path d="M187.1,8s14.4-12.8,37.3-4.7c.4,2.4-4.6,1.8-4.6,1.8l-24.6,1.3-8,1.5h0Z"/>
    <path class="st7" d="M226.7,4.3s9.9,4.5,14,12.7c-1.8,1.5-3.7-1.2-3.7-1.2l-10.3-10.9v-.6h0Z"/>
    <path class="st7" d="M240.7,17s4.5,7.5,4.4,15.1c-1.4,2-2.8,1.9-2.8,1.9l-1.6-7v-9.9h0Z"/>
    <path class="st10" d="M41.4,64.3s-3.3-2.7-2.2-4.5,2.2-.3,2.2-.3c0,0,13.7,16.1,16.8,15.5.9.8-1,2.4-1,2.4,0,0-15-9.8-15.8-13h0Z"/>
    <path class="st10" d="M39,60.2s.6,7.9,9.7,14.2c4.3,1.9,8.5,2.9,8.5,2.9l-18.2-17.1h0Z"/>
    <path class="st10" d="M65.4,20.2s12.9,6.7,3.7,24.5c-2.3-1-.2-12.3-.2-12.3l-3.5-12.3h0Z"/>
    <path class="st10" d="M93.3,50.2s6.6.7,5.1,24.1c-2.3,2.2-5.1,3.4-5.1,3.4,0,0,5.1-23.1,0-27.4h0Z"/>
    <path class="st9" d="M104.8,35.2s-4.7,27,6.9,34c-1.4-3.1-8.7-25.2-5.5-31.7,3.2-6.6-.3-.7-.3-.7l-1.1-1.6Z"/>
    <path class="st9" d="M141.9,25.5s10.4,6,5.1,35.6c-3.3,3.8-6.4,6.1-6.4,6.1,0,0,3.8-7.2,3.9-11.9.6-3.4,1.2-27.4-2.7-29.8h0Z"/>
    <path class="st10" d="M154.6,26.3s1.6,21.8,8.2,23.1c1.1.8.5-.9.5-.9,0,0-7.2-15.3-7.2-20.7,1-1.4-1.4-1.5-1.4-1.5,0,0-.1,0-.1,0Z"/>
    <path class="st10" d="M179.7,20.2s1.9,23.7,1.3,25-2.3,2.9-2.3,2.9c0,0,8.3-2.3,7.4-5s-.5-23.9-6.4-22.9h0Z"/>
    <path class="st8" d="M195.4,69.2s-5.8,23.9-18,25c-1.8,2.1-1.8,3.5-1.8,3.5,0,0,16.3-5.1,16.1-11.3,1.8-4.1,6.2-10.2,5.7-12.1s-2-5.1-2-5.1h0Z"/>
    <path class="st10" d="M177.4,94.2s9.6-2.2,18-25c1.3.9,2.1,6.4,2.1,6.4,0,0-5.7,13.2-7.6,15.4-2.4,2.1-13.5,7.9-14.2,6.7.6-1.8,1.8-3.5,1.8-3.5h-.1Z"/>
    <path class="st9" d="M203.1,22.3s-2,27.4,5.1,28.8c1.5-.8-1.8-5.8-1.8-5.8l-1.8-19.9-1.5-3.1Z"/>
    <path class="st9" d="M229.5,13.6s9.8,8.4,4.9,19.6c-.9,3-1.8,4.8-1.8,4.8v-10.8s0-7.7-3.1-13.6h0Z"/>
    <path class="st9" d="M252,39.5s15.8,2.6,11.2,18.8c-1,3.6-.5,7.4-3.5,15.1-2.9,4.1-4.4,2.3-4.4,2.3,0,0,6.1-15.7,4.4-18.9s1.5-7.8-7.7-17.4h0Z"/>
    <path class="st9" d="M252,39.5s10.9,6.5,3.3,36.3c1.6.9,4.4-5.6,4.4-5.6l.9-16.6-2.6-8.8-6-5.2h0Z"/>
    <path class="st9" d="M263.2,48.1s3.7,6.3-2.6,22.8c-1.5.7-1.4-3.8-1.4-3.8l4-19h0Z"/>
    <path class="st9" d="M207.3,61s6.1,9.6,10.1,10.1c2.4,1.3-2.4,1.4-2.4,1.4l-5.2-2.3s-3.5-5.4-2.5-9.2h0Z"/>
  </g>
  <g class="st3">
    <g class="st4">
      <g class="st4">
        <g class="st4">
          <text class="st2" transform="translate(27 119.3) scale(.9 1)"><tspan x="0" y="0">TRIBUTE</tspan></text>
        </g>
      </g>
    </g>
    <g class="st4">
      <g class="st4">
        <g class="st4">
          <text class="st5" transform="translate(27 119.3) scale(.9 1)"><tspan x="0" y="0">TRIBUTE</tspan></text>
        </g>
      </g>
    </g>
    <g class="st4">
      <g class="st4">
        <g class="st4">
          <text class="st2" transform="translate(86.2 119.3) scale(.9 1)"><tspan x="0" y="0">T</tspan></text>
        </g>
      </g>
    </g>
    <g class="st4">
      <g class="st4">
        <g class="st4">
          <text class="st5" transform="translate(86.2 119.3) scale(.9 1)"><tspan x="0" y="0">T</tspan></text>
        </g>
      </g>
    </g>
    <g class="st4">
      <g class="st4">
        <g class="st4">
          <text class="st2" transform="translate(93.5 119.3) scale(.9 1)"><tspan x="0" y="0">O</tspan></text>
        </g>
      </g>
    </g>
    <g class="st4">
      <g class="st4">
        <g class="st4">
          <text class="st5" transform="translate(93.5 119.3) scale(.9 1)"><tspan x="0" y="0">O</tspan></text>
        </g>
      </g>
    </g>
  </g>
</svg>