<?xml version="1.0" encoding="UTF-8"?>
<svg id="Capa_1" xmlns="http://www.w3.org/2000/svg" version="1.1" viewBox="0 0 51.7 440">
  <!-- Generator: Adobe Illustrator 29.6.0, SVG Export Plug-In . SVG Version: 2.1.1 Build 207)  -->
  <defs>
    <style>
      .st0 {
        fill: #ccd4da;
        stroke: #1d1d1b;
        stroke-width: .9px;
      }

      .st0, .st1 {
        stroke-miterlimit: 10;
      }

      .st2 {
        fill: #efede4;
      }

      .st1 {
        fill: #3f5863;
        stroke: #000;
        stroke-width: .7px;
      }
    </style>
  </defs>
  <path class="st0" d="M23.1,49.8c-1,.9-3.1,2.1-4.8-.4-.2-.2-.4-.5-.6-.8v-9.3c0,0-.2-17.5-.2-17.5,0,0,1.9-5.8,5.1-1.4,0,.7.2,7.8.4,19.7h0c0,2.9,0,6.1.2,9.6Z"/>
  <path class="st1" d="M39.4,27.4l-15.7,21.8s-.2.3-.6.6c-1,.9-3.1,2.1-4.8-.4-.2-.2-.4-.5-.6-.8-3.6-4.8-14.2-19.7-14.2-19.7,0,0-1.7-2.2-.2-4,1.2-2,13.3-21.5,13.3-21.5,0,0,4-3.4,6.3-.3,3.3,3.1,16.3,19.5,16.3,19.5,0,0,2.3,1.8.2,4.7Z"/>
  <path class="st2" d="M33.5,26.4l-10.9,14.3s-2.2,2.4-3.8.2c-1.9-2.3-10.3-13.4-10.3-13.4,0,0-1.2-1.5-.1-2.6.9-1.3,9.2-14.1,9.2-14.1,0,0,2.8-2.2,4.4-.2,2.3,2,11.3,12.7,11.3,12.7,0,0,1.6,1.2.1,3.1h0Z"/>
  <path class="st0" d="M32.3,424l-7,12.1c-.1,0-.3,0-.4,0-.2,0-.5,0-.7.2l-7-12.2h2.7l-2.2-375.4c.2.3.5.6.6.8,1.7,2.5,3.8,1.2,4.8.4,1.5,88.8,5.7,349.6,6,374.2h3.2Z"/>
  <g>
    <path class="st0" d="M25.3,436.2l-.6,1-.5-.9c.2-.1.4-.2.7-.2s.3,0,.4,0Z"/>
    <path class="st0" d="M26.3,437.5c0,.8-.6,1.4-1.4,1.4s-1.4-.6-1.4-1.4.3-1,.8-1.2c.2-.1.4-.2.7-.2s.3,0,.4,0c.6.2,1,.7,1,1.4Z"/>
  </g>
</svg>